<svg xmlns="http://www.w3.org/2000/svg" xmlns:xlink="http://www.w3.org/1999/xlink" xmlns:inkscape="http://www.inkscape.org/namespaces/inkscape" version="1.1" width="282" height="110.5" viewBox="0 0 282 110.5">
<defs>
<clipPath id="clip_1">
<path transform="matrix(1,0,0,-1,-156.5,796.89)" d="M156.5 686.39H438.5V796.89H156.5Z"/>
</clipPath>
<clipPath id="clip_2">
<path transform="matrix(1,0,0,-1,-156.5,796.89)" d="M0 0H595.28V841.89H0Z"/>
</clipPath>
<path id="font_3_2469" d="M.39300538 .5399933C.40033976 .53333029 .40400697 .52899679 .40400697 .5269928 .40400697 .52499899 .39933778 .5240021 .3899994 .5240021H.2519989V.4149933C.29867045 .3943329 .33233644 .37516786 .35299684 .35749818 .3736674 .3398285 .3840027 .32382713 .3840027 .30949403 .3840027 .29516093 .38150025 .2836609 .37649537 .2749939 .37150065 .2663269 .3660024 .2619934 .3600006 .2619934 .3539988 .2619934 .34833274 .2669932 .34300233 .2769928 .31833396 .32632957 .28799949 .36533103 .2519989 .3939972V.06700134C.2519989 .0043385827 .2526652-.042160036 .2539978-.07249451 .2553304-.10282898 .2559967-.120661418 .2559967-.12599182 .2559967-.1313324 .2546641-.13583374 .2519989-.13949585 .2493337-.14316814 .24249776-.14717102 .23149109-.15150452 .22049459-.15583802 .2124939-.15800476 .20748902-.15800476 .20249431-.15800476 .20066326-.15266927 .20199585-.14199829 .20599365-.10066732 .20799256-.034001668 .20799256 .057998659V.41999818C.16600037 .30266825 .107671108 .18966675 .03300476 .08099365L.020004273 .08799744C.10399882 .24199932 .16266378 .3873342 .19599915 .5240021H.13600159C.11000061 .5240021 .08766683 .5203349 .069000247 .5130005L.041000368 .54499819C.073003139 .54233297 .097335819 .54100039 .11399841 .54100039H.20799256V.6239929C.20799256 .66866049 .20665996 .71733096 .20399475 .7700043L.2669983 .7429962C.27566529 .7396698 .27999879 .7363383 .27999879 .7330017 .27999879 .7296651 .27600099 .72432968 .26800538 .71699526L.2519989 .70199587V.54100039H.31900025L.34899903 .58200076 .39300538 .5399933M.96299746 .61099246H.7630005C.7630005 .5909932 .7633362 .57466128 .76400759 .56199648L.7669983 .53100588C.7669983 .52367147 .7606659 .5178375 .7480011 .513504 .7353363 .50917056 .72699996 .5070038 .72299197 .5070038 .71899417 .5070038 .71699526 .5136668 .71699526 .5269928L.7180023 .61099246H.5780029C.5780029 .59232589 .57833358 .57766219 .57899478 .56700137L.58099368 .53900149C.58099368 .5303345 .5753276 .52349856 .56399539 .51849368 .55266317 .51349899 .5444946 .5110016 .53948977 .5110016 .53449508 .5110016 .5319977 .5180003 .5319977 .5319977L.53300479 .61099246H.44099427C.42566429 .61099246 .40933229 .60899356 .3919983 .6049957L.3580017 .6300049C.3780009 .6286723 .40100099 .628006 .42700196 .628006H.53300479V.67900088C.53300479 .70366927 .53200277 .7323354 .5299988 .7649994L.5930023 .7369995C.60033676 .7336629 .6040039 .73066207 .6040039 .7279968 .6040039 .7253316 .6013336 .72233077 .59599307 .71899417L.5780029 .70799258V.628006H.7180023V.66600039C.7180023 .69066879 .7170003 .7193349 .71499636 .7519989L.77900698 .7279968C.78567 .726003 .78900149 .72317 .78900149 .7194977 .78900149 .7158356 .78633627 .71233627 .78100588 .70899966L.7630005 .69799807V.628006H.8789978L.9129944 .673996 .96299746 .628006C.97033187 .6213328 .973999 .61682638 .973999 .6144867 .973999 .61215719 .97033187 .61099246 .96299746 .61099246M.9680023-.119003299C.94933578-.119003299 .93466696-.1210022 .923996-.125 .91333517-.1289978 .90266928-.1373291 .8919983-.1499939 .8899943-.15199788 .8876597-.15299988 .8849945-.15299988 .8776601-.15299988 .85566207-.14183045 .81900027-.11949158 .78233847-.09716288 .75000509-.069997157 .7220001-.037994386 .6939952-.0060017907 .67133077 .03199768 .65400698 .07600403H.6360016C.6193288 .021998087 .5846608-.024500529 .5319977-.06349182 .4793345-.102493289 .40433757-.1373291 .30700685-.16799927L.30299378-.15499878C.3909963-.11633301 .45666505-.07966614 .5-.04499817 .54333499-.0103302 .5726674 .030003867 .58799746 .07600403H.39300538C.3776652 .07600403 .36132813 .07400513 .34399415 .070007327L.30999757 .09500122C.32999674 .09366862 .35299684 .09300232 .3789978 .09300232H.5930023C.6030019 .13300069 .6093343 .17366536 .6119995 .21499634H.4790039V.19200135C.4790039 .18399556 .47283427 .17782593 .460495 .17349243 .4481659 .16916912 .44099937 .16700745 .43899537 .16700745 .43299357 .16700745 .42999269 .17000325 .42999269 .17599488 .42999269 .18199666 .43065898 .19532776 .43199159 .21598816 .43333436 .23665874 .43400575 .25732932 .43400575 .27799989V.42599488C.43400575 .46466065 .43300376 .4993286 .43099977 .5299988L.5 .48199464H.80599978L.82699587 .5169983 .8800049 .47799684C.8866679 .47332765 .8899994 .46932475 .8899994 .46598817 .8899994 .46266175 .88533529 .45799766 .8760071 .45199586L.8549957 .43899537V.31599427C.8549957 .2833303 .85566207 .25933329 .8569946 .2440033L.86099246 .20700073C.86099246 .19766236 .85466006 .19049073 .84199526 .18548584 .82933047 .18049114 .8208313 .17799378 .8164978 .17799378 .8121643 .17799378 .80999758 .18199666 .80999758 .19000244V.21499634H.6609955C.6549937 .16100057 .647995 .1203359 .6399994 .09300232H.8690033L.90600588 .13800049 .95500186 .09300232C.96233627 .08632914 .9660034 .0818278 .9660034 .07949829 .9660034 .077168788 .96233627 .07600403 .95500186 .07600403H.6719971C.73066207-.027999878 .82933047-.08866882 .9680023-.10600281V-.119003299M.80999758 .3560028V.46499635H.4790039V.3560028H.80999758M.80999758 .23199463V.33900453H.4790039V.23199463H.80999758Z"/>
<path id="font_3_2175" d="M.8959961 .70700076 .8659973 .69099429V.2460022C.8659973 .22666423 .8639984 .21266175 .8600006 .20399475 .8560028 .19532776 .8448334 .18565877 .8264923 .1749878 .80816146 .16432698 .7969971 .15899658 .79299929 .15899658 .78900149 .15899658 .78666689 .16099549 .7859955 .16499329 .78333029 .17900086 .77516177 .19066875 .76148989 .19999695 .7478282 .20933533 .71932986 .22033692 .6759949 .23300171L.6779938 .24499512C.7273305 .23632813 .7609965 .23199463 .7789917 .23199463 .7969971 .23199463 .80833438 .23465984 .81300356 .23999024 .8176727 .24533081 .8200073 .2549998 .8200073 .2689972V.6459961C.8200073 .69466146 .8190053 .7339986 .81700137 .76400759L.8959961 .72099307C.9006653 .7183278 .9029999 .7159932 .9029999 .71398928 .9029999 .7119954 .9006653 .70966598 .8959961 .70700076M.6119995 .47399903C.6159973 .46932984 .6179962 .46583048 .6179962 .46350099 .6179962 .46117149 .61466476 .4600067 .6080017 .4600067H.43899537V.34700013C.43899537 .30300395 .43933106 .27466838 .44000245 .2619934L.44099427 .22599793C.44099427 .21599834 .43449403 .20899964 .42149354 .20500183 .40849305 .20100403 .39982606 .19900513 .39549256 .19900513 .39116923 .19900513 .38900758 .20533753 .38900758 .21800232L.39100648 .2749939C.3916677 .29699708 .3919983 .32166545 .3919983 .34899903V.4600067H.2669983C.2609965 .30933128 .18699646 .19466146 .04499817 .115997318L.035003663 .125C.15633138 .21099854 .21832784 .32266746 .22099304 .4600067H.1289978C.10432943 .4600067 .08299764 .45667015 .06500244 .44999696L.037994386 .48599244C.067993167 .48332725 .09132894 .48199464 .10800171 .48199464H.22099304V.67100527H.18699646C.16232808 .67100527 .14099629 .66766867 .1230011 .6609955L.09599304 .6970062C.126002 .6943309 .14933777 .69299319 .16600037 .69299319H.4940033L.53100588 .7400055 .58000186 .68699648C.5853322 .6809947 .58799746 .67682906 .58799746 .6744995 .58799746 .67217 .58399966 .67100527 .576004 .67100527H.43899537V.48199464H.522995L.55799868 .5339966 .6119995 .47399903M.3919983 .48199464V.67100527H.2669983V.48199464H.3919983M.71099856 .6470032 .68499758 .6289978V.47799684C.68499758 .43400065 .68533328 .40567018 .68600466 .39300538L.68699648 .3580017C.68699648 .34933473 .68082687 .34316508 .66848757 .3394928 .65615847 .3358307 .647995 .33399964 .6439972 .33399964 .6399994 .33399964 .6380005 .3393351 .6380005 .3500061L.6399994 .40400697C.6406708 .42599998 .64100649 .45099894 .64100649 .4790039V.59599307C.64100649 .613327 .64000448 .647995 .6380005 .69999697L.7100067 .66200259C.7146657 .65933737 .71699526 .6568349 .71699526 .65449526 .71699526 .6521657 .71499636 .6496684 .71099856 .6470032M.95799258-.09500122C.96266177-.09967041 .96499636-.10316976 .96499636-.10549927 .96499636-.10782877 .96132919-.10899353 .95399478-.10899353H.13400269C.108662929-.10899353 .08632914-.11233012 .06700134-.119003299L.039001466-.08299255C.07033285-.08566793 .09466553-.087005618 .11199951-.087005618H.4960022V.067993167H.2749939C.2503357 .067993167 .2290039 .06466166 .21099854 .057998659L.18400574 .09399414C.21400452 .09132894 .2373352 .08999634 .2539978 .08999634H.4960022V.14199829C.4960022 .17400106 .4950002 .20667012 .49299623 .2400055L.56500247 .20700073C.5703328 .20433553 .57299807 .20167034 .57299807 .19900513 .57299807 .19633992 .57099917 .19366963 .56700137 .19099427L.54200747 .17399597V.08999634H.72099307L.7619934 .13699341 .8220062 .08200073C.8266652 .07733154 .82899478 .07382711 .82899478 .07148743 .82899478 .06915792 .8253276 .067993167 .81799319 .067993167H.54200747V-.087005618H.84599307L.8930054-.02999878 .95799258-.09500122Z"/>
<path id="font_3_1336" d="M.41400147 .7689972C.506663 .740331 .5529938 .70466616 .5529938 .66200259 .5529938 .64999899 .549825 .6396637 .54348757 .6309967 .5371602 .6223297 .5296631 .6179962 .5209961 .6179962 .5123291 .6179962 .5056661 .6263326 .5010071 .6430054 .4869995 .68900558 .45599876 .7280019 .40800477 .7599945L.41400147 .7689972M.91999819 .6000061C.92466738 .5953369 .92700198 .5915019 .92700198 .588501 .92700198 .58550009 .9236705 .58399966 .91700747 .58399966H.6230011V.44900514C.6230011 .41167198 .6236674 .3836721 .625 .3650055L.6269989 .32099916C.6269989 .31099955 .62016299 .30400086 .6064911 .30000306 .5928294 .29600526 .58399966 .29400636 .58000186 .29400636 .576004 .29400636 .5740051 .30000306 .5740051 .31199647L.57499697 .44999696V.58399966H.42700196V.44500733L.42900086 .32200624C.42900086 .31400047 .42783103 .3084971 .42549134 .30549623 .42316184 .30249534 .41732789 .29915873 .4079895 .29548646 .3986613 .29182435 .39116416 .2899933 .38549806 .2899933 .37983195 .2899933 .3769989 .29633079 .3769989 .30900575L.3789978 .3670044C.3796692 .3896688 .38000489 .41600038 .38000489 .44599916V.58399966H.16400147C.13800049 .58399966 .11566671 .58033248 .09700012 .57299807L.069000247 .6100006C.10100301 .6073354 .1253357 .6060028 .14199829 .6060028H.80900576L.8540039 .66900637 .91999819 .6000061M.30900575 .46899415C.31233216 .46632896 .31399537 .4638265 .31399537 .46148683 .31399537 .45915733 .31133018 .45765687 .30599977 .45698548 .30066935 .45632426 .29367066 .45399476 .28500367 .44999696 .27633668 .44599916 .27067057 .44233195 .26800538 .43899537 .2306722 .40100099 .15900167 .34133403 .052993776 .2599945L.041000368 .2709961C.12767029 .34899903 .19900513 .43066917 .25500489 .51600649L.30900575 .46899415M.701004 .49299623C.740331 .47832743 .77516177 .46365867 .8054962 .44898988 .8358307 .43433128 .86033126 .41999818 .8789978 .4059906 .89766439 .3919932 .9096629 .37999473 .9149933 .36999513 .92033389 .3599955 .92300418 .34882609 .92300418 .33648683 .92300418 .3241577 .92066958 .31432597 .91600039 .30699159 .9113312 .29966737 .9049937 .29600526 .8969879 .29600526 .8889923 .29600526 .8794963 .30633546 .86849978 .32699586 .85750326 .3476664 .8366699 .37216697 .80599978 .40049745 .7753296 .4288279 .7386627 .45632936 .69599917 .4830017L.701004 .49299623M.9700012-.0980072C.91533407-.102005008 .8803355-.1166687 .8650055-.14199829 .8630015-.1446635 .86033126-.1459961 .8569946-.1459961 .8456624-.1459961 .79799398-.1329956 .71398928-.10699463 .6299947-.08099365 .55933126-.05032857 .5019989-.01499939 .39733378-.084996547 .2480011-.1366628 .054000856-.16999817L.05000305-.15299988C.22267151-.11166891 .360672-.05700175 .46400453 .011001587 .39466859 .062332155 .33766685 .1346639 .29299928 .22799683H.2590027C.23966472 .22799683 .22233074 .22432964 .20700073 .21699524L.17900086 .2539978C.21100362 .2513326 .2353363 .25 .2519989 .25H.66600039L.70599368 .29299928 .7669983 .23899842C.7716675 .23500061 .7740021 .23166912 .7740021 .2290039 .7740021 .2263387 .7706706 .22467041 .76400759 .22399903 .7420044 .22199504 .7236684 .20999654 .70899966 .18800354 .6643321 .122665408 .607666 .06366476 .53900149 .011001587 .651001-.04499817 .79466757-.07700094 .9700012-.085006717V-.0980072M.67100527 .22799683H.32099916C.3643341 .1459961 .42333476 .081329349 .4980011 .033996583 .56733706 .08733114 .62500509 .15199788 .67100527 .22799683Z"/>
<path id="font_3_1348" d="M.9730072 .055999757C.95500186 .059336347 .9388326 .06100464 .9244995 .06100464 .91016647 .06100464 .8969981 .055338544 .8849945 .044006349 .8830007 .04200236 .8810018 .041000368 .8789978 .041000368 .866333 .041000368 .8328349 .08583069 .7785034 .17549134 .72417196 .26516215 .68900558 .3799998 .67300418 .5200043H.6269989V.09899902H.69200137L.7259979 .14300537 .78300479 .0980072C.78766378 .09399923 .7899933 .0894928 .7899933 .084487918 .7899933 .0794932 .7859955 .07699585 .7779999 .07699585H.6269989C.6269989 .01566569 .6274974-.033162435 .62849429-.069488529 .62950137-.10582479 .6300049-.12466431 .6300049-.12600708 .6300049-.13800049 .62316897-.14833069 .6094971-.15699768 .5958354-.16566468 .5871684-.16999817 .5834961-.16999817 .579834-.16999817 .5780029-.16399639 .5780029-.1519928L.57899478-.070007327C.57966616-.03933716 .58000186 .009663899 .58000186 .07699585H.4790039C.45433555 .07699585 .43299867 .073664348 .4149933 .06700134L.3880005 .102996829C.41799928 .10033163 .44132997 .09899902 .45799256 .09899902H.58000186V.4810028C.53400167 .3663381 .48450218 .27017213 .4315033 .19250489 .37850444 .11483765 .31700135 .046335859 .24699402-.013000488L.23899842-.0039978029C.30966697 .07066854 .36716715 .14549764 .41149903 .2204895 .4558309 .29549156 .5003306 .3953298 .54499819 .5200043H.3730011C.34700013 .5200043 .32466636 .5163371 .30599977 .5090027L.27799989 .54600527C.31000266 .54334 .33433534 .54200747 .35099793 .54200747H.58000186V.628006C.58000186 .6726735 .57866927 .7213389 .576004 .7740021L.6529999 .7369995C.65900167 .73499557 .66200259 .73232528 .66200259 .72898867 .66200259 .72566226 .65966799 .72233077 .6549988 .71899417L.6269989 .6970062V.54200747H.81700137L.8569946 .5970001 .92500308 .54100039C.93033346 .53700259 .93299868 .5325012 .93299868 .52749636 .93299868 .52250167 .92799887 .5200043 .91799929 .5200043H.69299319C.71032717 .4126638 .74516299 .31599427 .7975006 .22999573 .84983828 .14399719 .90834048 .08933004 .9730072 .06599426V.055999757M.2669983 .7519989 .32800294 .7100067C.33666993 .7053375 .34100343 .7015025 .34100343 .6985016 .34100343 .6955007 .33633424 .69266769 .32699586 .69000247 .31766764 .6873372 .31099955 .68433639 .30699159 .68099978 .30299378 .67766317 .29799906 .6686656 .29200746 .65400698 .26000468 .57866927 .23467 .5219981 .21600342 .48399354L.25300599 .46800233C.25700379 .46599833 .2590027 .46366374 .2590027 .46099855 .2590027 .45833335 .25700379 .45533244 .25300599 .45199586L.22799683 .42799378V.042999269C.22799683-.0076700847 .22833252-.04266866 .2290039-.06199646L.23100281-.115997318C.23100281-.1280009 .22416687-.13833618 .210495-.14700318 .1968333-.15567017 .1881663-.16000366 .18449402-.16000366 .18083191-.16000366 .17900086-.15700276 .17900086-.15100098 .17900086-.14499919 .17966716-.123662319 .18099976-.08699036 .18233235-.05032857 .18299866-.0063323976 .18299866 .04499817V.4149933C.14166768 .33566795 .09200033 .26000468 .033996583 .18800354L.024002076 .19599915C.1299998 .3666636 .21099854 .5519969 .2669983 .7519989Z"/>
<path id="font_4_104" d="M.7659912 .44577027 .7449951 .67578127H.068984989L.04798889 .44577027H.08198547C.09599304 .6187744 .125 .6397705 .2789917 .6397705 .29899598 .6397705 .32798768 .6397705 .33799745 .6387787 .3600006 .6347809 .3600006 .6237793 .3600006 .6007843V.081970218C.3600006 .048980714 .3600006 .035995485 .2559967 .035995485H.21398926V0C.2630005 .0039978029 .35598756 .0039978029 .4079895 .0039978029 .45999146 .0039978029 .5519867 .0039978029 .6009979 0V.035995485H.5589905C.45498658 .035995485 .45498658 .048980714 .45498658 .081970218V.6007843C.45498658 .6237793 .45498658 .6347809 .47698976 .6387787 .4869995 .6397705 .5159912 .6397705 .5359955 .6397705 .59199526 .6397705 .6349945 .6397705 .66999819 .61976626 .71499636 .59277346 .7220001 .5287781 .72299197 .5237732L.7319946 .44577027H.7659912Z"/>
<path id="font_4_96" d="M.40699769 .37739564C.40699769 .4113922 .375 .44140626 .32798768 .44140626 .27799989 .44140626 .22299195 .4104004 .19299317 .33439637H.19198609V.44140626L.04899597 .43052674V.39453126C.115997318 .39453126 .12399292 .3875122 .12399292 .33843995V.079055789C.12399292 .035995485 .11399841 .035995485 .04899597 .035995485V0C.053985597 0 .12199402 .0039978029 .16299439 .0039978029L.29299928 0V.035995485H.272995C.19898987 .036071779 .19898987 .047073366 .19898987 .081085208V.22807312C.19898987 .31207276 .23799134 .41308595 .33299256 .41308595 .32398988 .40608216 .31599427 .39308167 .31599427 .3770752 .31599427 .3440857 .34199525 .3310852 .36099244 .3310852 .3849945 .3310852 .40699769 .34707643 .40699769 .3770752V.37739564Z"/>
<path id="font_4_28" d="M.5439911 .09013367V.14515686H.5099945V.09114075C.5099945 .08113098 .5099945 .033111574 .47299195 .033111574 .43598939 .033111574 .43598939 .0801239 .43598939 .09313965V.268219C.43598939 .3212433 .43598939 .35925294 .3899994 .39627076 .34899903 .4302826 .30099488 .44628907 .24198914 .44628907 .14698792 .44628907 .07998657 .41027833 .07998657 .34925843 .07998657 .31723023 .101989749 .30023194 .12799073 .30023194 .15499878 .30023194 .1749878 .3202362 .1749878 .34724427 .1749878 .3642578 .16699219 .38526917 .13999939 .39326478 .17599488 .41827394 .23399353 .41827394 .23999024 .41827394 .29599 .41827394 .35699464 .38127137 .35699464 .29722596V.2662201C.3019867 .26420594 .23599243 .2612152 .16299439 .23420716 .07299805 .20118714 .04499817 .14616394 .04499817 .101135257 .04499817 .0152282719 .14898682-.009765625 .21998596-.009765625 .2999878-.009765625 .34700013 .035232545 .36799623 .07423401 .37199403 .033111574 .39898683-.0048828127 .44499208-.0048828127 .44499208-.0048828127 .5439911-.0048828127 .5439911 .09010315V.09013367M.35699464 .14111328C.35699464 .04522705 .272995 .018234253 .22799683 .018234253 .1769867 .018234253 .1289978 .052230836 .1289978 .10122681 .1289978 .15621948 .1769867 .23323059 .35699464 .24023438V.14111328Z"/>
<path id="font_4_43" d="M.46798707 .120407108C.46798707 .13243103 .45498658 .13243103 .45098878 .13243103 .43798829 .13243103 .43699647 .12942505 .43199159 .11540222 .4099884 .05328369 .35699464 .022232056 .29599 .022232056 .22698975 .022232056 .13699341 .07331848 .13699341 .21759033 .13699341 .34448243 .19898987 .41427613 .2919922 .41427613 .30499269 .41441346 .35299684 .41441346 .3889923 .39941407 .37098695 .39128114 .36099244 .37527467 .36099244 .35528565 .36099244 .3284607 .37998963 .30859376 .4079895 .30859376 .43499757 .30859376 .45599366 .32546998 .45599366 .35728456 .45599366 .44628907 .31698609 .44628907 .2889862 .44628907 .13899231 .44628907 .04598999 .33143617 .04598999 .21658325 .04598999 .09034729 .15299988-.009765625 .28399659-.009765625 .43299867-.009765625 .46798707 .10838318 .46798707 .120407108Z"/>
<path id="font_4_50" d="M.46798707 .12036133C.46798707 .12435913 .46598817 .13438416 .45098878 .13438416 .43798829 .13438416 .43598939 .12837219 .43299867 .11836243 .4019928 .037246705 .32598878 .022232056 .2899933 .022232056 .24299622 .022232056 .19799805 .043258668 .16799927 .08131409 .1309967 .12837219 .12998963 .18945313 .12998963 .22851563H.43998719C.46099855 .22851563 .46798707 .22851563 .46798707 .25050355 .46798707 .33839417 .4189911 .44628907 .269989 .44628907 .13899231 .44628907 .038986207 .34239198 .038986207 .21949768 .038986207 .092315677 .1499939-.009765625 .2829895-.009765625 .41799928-.009765625 .46798707 .09832764 .46798707 .12036133M.397995 .25450135H.1309967C.14199829 .39530946 .23199463 .41827394 .269989 .41827394 .3929901 .41827394 .39698792 .27947999 .397995 .25450135Z"/>
<path id="font_4_71" d="M.651001 .2628479H.61698916C.60598757 .16491699 .59098818 .035995485 .4019928 .035995485H.3019867C.25498963 .035995485 .2539978 .04399109 .2539978 .07496643V.600647C.2539978 .6336212 .2539978 .64660647 .34799195 .64660647H.3829956V.6826172L.20799256 .6786041 .055999757 .6826172V.64660647H.07998657C.15699768 .64660647 .15899658 .63661196 .15899658 .6016388V.080963138C.15899658 .04698181 .15699768 .035995485 .07998657 .035995485H.055999757V0H.62098696L.651001 .2628479Z"/>
<path id="font_4_81" d="M.5289917 .21325684C.5289917 .3382721 .42199708 .44628907 .28399659 .44628907 .1459961 .44628907 .038986207 .3382721 .038986207 .21325684 .038986207 .0892334 .14898682-.009765625 .28399659-.009765625 .4189911-.009765625 .5289917 .0892334 .5289917 .21325684M.43798829 .22225952C.43798829 .17424011 .43499757 .12124634 .4059906 .08023071 .3789978 .042236329 .33299256 .022232056 .28399659 .022232056 .24699402 .022232056 .19299317 .034225465 .1599884 .083236698 .1329956 .12423706 .12998963 .17625427 .12998963 .22225952 .12998963 .2652588 .1309967 .32426454 .1659851 .36727906 .19099427 .39627076 .23298645 .41827394 .28399659 .41827394 .34298707 .41827394 .3849945 .39027406 .40699769 .3592682 .43499757 .32026673 .43798829 .27026368 .43798829 .22225952Z"/>
<path id="font_4_59" d="M.54499819 .40040589C.54499819 .42340089 .526001 .45140077 .48599244 .45140077 .47099305 .45140077 .4169922 .44839479 .36999513 .4053955 .33999635 .42739869 .2979889 .44140626 .2539978 .44140626 .15098572 .44140626 .07598877 .372406 .07598877 .29440309 .07598877 .2554016 .09599304 .21939087 .12399292 .19340515 .115997318 .18440247 .09399414 .1513977 .09399414 .11239624 .09399414 .09939575 .09700012 .05239868 .13598633 .023391724 .09098816 .0082092289 .038986207-.024841309 .038986207-.076934818 .038986207-.15003968 .14898682-.20507813 .28399659-.20507813 .41099549-.20507813 .5289917-.15505982 .5289917-.074920658 .5289917-.0448761 .5169983 .00920105 .46199037 .039260866 .40299989 .0703125 .34399415 .0703125 .24699402 .0703125 .22499085 .0703125 .18899536 .0703125 .18099976 .07130432 .14898682 .078308109 .1309967 .108306888 .1309967 .13729859 .1309967 .16246033 .13798523 .17045594 .14399719 .17845154 .15899658 .16944885 .19499207 .14746094 .25299073 .14746094 .35598756 .14746094 .43099977 .21644593 .43099977 .29444886 .43099977 .33345033 .41299439 .36445619 .3889923 .39045716 .43399049 .42245484 .47299195 .42344667 .48999024 .42344667 .48599244 .41944886 .48098756 .41545106 .48098756 .39945985 .48098756 .37945558 .49598695 .3674469 .5130005 .3674469 .5269928 .3674469 .54499819 .37745667 .54499819 .40045167V.40040589M.35099793 .29444886C.35099793 .27845765 .35099793 .2384491 .33099366 .21244812 .31698609 .19544983 .2899933 .17745972 .2539978 .17745972 .1559906 .17720032 .1559906 .2732849 .1559906 .29429627 .1559906 .310318 .1559906 .3503418 .17599488 .3763733 .18998719 .39338685 .21699524 .4113922 .25299073 .4113922 .35099793 .4113922 .35099793 .31532289 .35099793 .29429627V.29444886M.46798707-.07600403C.46798707-.12904358 .3889923-.17507935 .28399659-.17507935 .1789856-.17507935 .099990848-.12808228 .099990848-.07608032 .099990848-.04107666 .13198853 .0019226074 .19599915 .0029296876H.2539978C.34298707 .0029296876 .46798707 .0029296876 .46798707-.07608032V-.07600403Z"/>
<path id="font_4_54" d="M.6819916 .44908143 .6519928 .67871096H.055999757V.6427002H.07998657C.15699768 .6427002 .15899658 .63272097 .15899658 .5977936V.08103943C.15899658 .04699707 .15699768 .035995485 .07998657 .035995485H.055999757V0L.20799256 .0039978029 .3829956 0V.035995485H.34799195C.2539978 .035995485 .2539978 .04901123 .2539978 .08203125V.32226563H.35099793C.45098878 .32226563 .46499635 .29223634 .46499635 .20515442H.49899293V.47503663H.46499635C.46499635 .38919068 .45098878 .3582611 .35099793 .3582611H.2539978V.603775C.2539978 .63471987 .25498963 .6427002 .3019867 .6427002H.44198609C.6029968 .6427002 .6299896 .58880618 .647995 .44908143H.6819916Z"/>
<path id="font_4_72" d="M.2809906 0V.035995485C.21598816 .035995485 .20599365 .035995485 .20599365 .07901001V.69433596L.055999757 .6826172V.64660647C.12298584 .64660647 .1309967 .6396179 .1309967 .59065249V.07896423C.1309967 .035995485 .12098694 .035995485 .055999757 .035995485V0C.055999757 0 .12799073 .0039978029 .16799927 .0039978029 .20599365 .0039978029 .24299622 .0029907227 .2809906 0Z"/>
<path id="font_4_114" d="M.7839966 .39465333V.43066407C.7569885 .42765809 .7409973 .426651 .71199038 .426651 .6819916 .426651 .6439972 .42765809 .6139984 .43066407V.39465333C.6489868 .3936615 .66600039 .37471009 .66600039 .350708 .66600039 .3427124 .66600039 .3407135 .6599884 .32670594L.5629883 .07771301 .45498658 .350708C.45298768 .3559723 .44999696 .36398316 .44999696 .36997987 .44999696 .39169313 .47599793 .39465333 .5039978 .39465333V.43066407C.46798707 .42765809 .43199159 .426651 .3959961 .426651 .36698915 .426651 .33699037 .4286499 .30799867 .43066407V.39465333C.33099366 .39471437 .35198976 .39471437 .36499024 .38671876 .3789978 .37670899 .3880005 .3427124 .3880005 .3427124 .3880005 .3427124 .38598634 .3347168 .38398744 .33070375L.2899933 .0927124 .18899536 .350708C.18299866 .36497499 .18299866 .36598207 .18299866 .36997987 .18299866 .39465333 .21899414 .39465333 .23699951 .39465333V.43066407C.23699951 .43066407 .1639862 .426651 .12399292 .426651 .09298706 .426651 .06098938 .42765809 .02999878 .43066407V.39465333C.068984989 .39465333 .09098816 .39465333 .101989749 .36598207L.24099732 .013214111C.24699402-.0017852783 .25-.009765625 .2679901-.009765625 .28599549-.009765625 .2889862-.0017852783 .2939911 .01121521L.40699769 .29699708 .5179901 .014205933C.5239868-.00077819827 .5279999-.009765625 .54599-.009765625 .56399539-.009765625 .5669861-.0027770997 .57299807 .013214111L.69999697 .33398438C.7200012 .38380433 .7529907 .39367677 .7839966 .39465333Z"/>
<path id="font_4_58" d="M.82199099 .24035645V.2763672C.8149872 .2763672 .74198916 .27235414 .69299319 .27235414 .6399994 .27235414 .56399539 .27235414 .5119934 .2763672V.24035645H.5499878C.6499939 .24034119 .6499939 .22735596 .6499939 .19436646V.13040161C.6499939 .1084137 .6499939 .06942749 .59298709 .04144287 .5439911 .016464234 .48799134 .016464234 .47499085 .016464234 .3619995 .016464234 .1769867 .0814209 .1769867 .34228517 .1769867 .60813906 .36698915 .66711428 .46598817 .66711428 .5629883 .66711428 .68299868 .60214236 .70899966 .429245 .71099856 .4169922 .7200012 .4169922 .72698977 .4169922 .7449951 .4172516 .7449951 .4232483 .7449951 .4432373V.677124C.7449951 .6941223 .7449951 .703125 .73098757 .703125 .72698977 .703125 .7220001 .703125 .71398928 .69111636L.6609955 .6151428C.6119995 .66511538 .54100039 .703125 .45298768 .703125 .24499512 .703125 .069992069 .5421753 .069992069 .34228517 .069992069 .14439392 .23999024-.01953125 .45599366-.01953125 .5109863-.01953125 .621994-.009536743 .6689911 .060440065 .6859894 .034454347 .72299197 .00045776368 .73298647 .00045776368 .7449951 .00045776368 .7449951 .011459351 .7449951 .02645874V.19636536C.7449951 .24035645 .7549896 .24035645 .82199099 .24035645Z"/>
<path id="font_4_84" d="M.58399966 .21640015C.58399966 .33940126 .48199464 .44140626 .35499574 .44140626 .2979889 .44140626 .23999024 .4203949 .19898987 .3804016V.44140626L.04899597 .43052674V.39453126C.11898804 .39453126 .12399292 .38952638 .12399292 .34753419V-.11437988C.12399292-.15736389 .11399841-.15736389 .04899597-.15736389V-.19335938C.04899597-.19346619 .12098694-.18945313 .16299439-.18945313 .19999695-.18936157 .2689972-.19236756 .27799989-.19335938V-.15736389C.21299744-.15736389 .20298767-.15736389 .20298767-.114486698V.048233034C.20799256 .04324341 .25498963-.009765625 .33898927-.009765625 .47099305-.009765625 .58399966 .089263919 .58399966 .2163086V.21640015M.49299623 .2163086C.49299623 .102264408 .41799928 .018234253 .33299256 .018234253 .24499512 .018234253 .20599365 .09526062 .20298767 .101257327V.33335877C.23298645 .38339234 .29100038 .4093933 .34399415 .4093933 .42799378 .4093933 .49299623 .32136537 .49299623 .2163086Z"/>
<path id="font_4_63" d="M.58999636 0V.035995485C.5249939 .035995485 .5149994 .035995485 .5149994 .0790863V.3035736C.5149994 .39045716 .47200013 .44140626 .36499024 .44140626 .27598573 .44140626 .22698975 .3884735 .20498657 .35058595H.20399475V.69433596L.053985597 .6826172V.64660647C.12098694 .64660647 .1289978 .6396179 .1289978 .59065249V.07896423C.1289978 .035995485 .11898804 .035995485 .053985597 .035995485V0C.053985597 0 .12599182 .0039978029 .16799927 .0039978029 .20498657 .0039978029 .27398683 .0009918213 .2829895 0V.035995485C.21798706 .035995485 .20799256 .035995485 .20799256 .07904053V.25923158C.20799256 .36434938 .29100038 .4133911 .35699464 .4133911 .4269867 .4133911 .43598939 .3583374 .43598939 .3072815V.07904053C.43598939 .035995485 .42599488 .035995485 .36099244 .035995485V0C.36099244 0 .43299867 .0039978029 .47499085 .0039978029 .5119934 .0039978029 .58099368 .0009918213 .58999636 0Z"/>
<path id="font_4_27" d="M.7969971 0V.035995485H.7769928C.70999148 .035995485 .7029877 .04597473 .69200137 .07392883L.44898988 .6898804C.44299317 .70588687 .43998719 .7128906 .42099 .7128906 .4019928 .7128906 .39898683 .70588687 .3929901 .6898804L.1619873 .104888919C.1519928 .07992554 .1349945 .035995485 .04499817 .035995485V0C.07899475 .0029907227 .11399841 .0039978029 .147995 .0039978029 .18798828 .0039978029 .2619934 0 .2679901 0V.035995485C.22399903 .035995485 .19599915 .05595398 .19599915 .08392334 .19599915 .09190369 .19699097 .09390259 .20098877 .103881839L.24899292 .22668457H.5329895L.59098818 .08091736C.59298709 .075927738 .59599307 .06893921 .59599307 .063949588 .59599307 .035995485 .5419922 .035995485 .5149994 .035995485V0L.6639862 .0039978029C.71099856 .0039978029 .7859955 .0009918213 .7969971 0M.5189972 .2626953H.2630005L.3909912 .5878296 .5189972 .2626953Z"/>
<path id="font_4_46" d="M.78900149 .33580018C.78900149 .52568057 .6380005 .6826172 .45199586 .6826172H.057998659V.64660647H.08198547C.15899658 .64660647 .16099549 .63661196 .16099549 .6016388V.080963138C.16099549 .04698181 .15899658 .035995485 .08198547 .035995485H.057998659V0H.45199586C.6359863 0 .78900149 .1479187 .78900149 .33580018M.6859894 .33580018C.6859894 .21987915 .6569977 .15991211 .621994 .11793518 .57699587 .066970828 .5049896 .035995485 .4249878 .035995485H.2999878C.25299073 .035614015 .2519989 .04360962 .2519989 .07461548V.607605C.2519989 .63861086 .25299073 .64660647 .2999878 .64660647H.42399598C.5089874 .64660647 .58299258 .6116028 .6289978 .5526123 .66999819 .49861146 .6859894 .42260743 .6859894 .3356018V.33580018Z"/>
<path id="font_4_64" d="M.31399537 .18101502V.24902344H.019989014V.18101502H.31399537Z"/>
<path id="font_4_108" d="M.7859955 .64660647V.6826172C.74598696 .6796112 .7049866 .6786041 .6649933 .6786041 .625 .6786041 .58399966 .6796112 .5439911 .6826172V.64660647C.6469879 .64660647 .6469879 .6016693 .6469879 .57470706V.23216248C.6469879 .09436035 .54100039 .016464234 .43699647 .016464234 .37799073 .016464234 .2539978 .047424318 .2539978 .22717285V.6016693C.2539978 .6356201 .2559967 .64660647 .33299256 .64660647H.35699464V.6826172L.20698548 .6786041 .055999757 .6826172V.64660647H.07998657C.15699768 .64660647 .15899658 .6366272 .15899658 .6016693V.23017884C.15899658 .086364749 .2869873-.01953125 .43499757-.01953125 .57199099-.01953125 .68299868 .08935547 .68299868 .22917176V.57470706C.68299868 .6016693 .68299868 .64660647 .7859955 .64660647Z"/>
<path id="font_4_95" d="M.81700137 .09107971C.81700137 .09806824 .81700137 .110061649 .7999878 .110061649 .7849884 .110061649 .7839966 .10107422 .7829895 .09107971 .7779999 .03312683 .7449951 .008117676 .71398928 .008117676 .6569977 .008117676 .6489868 .067092899 .6369934 .15802002 .6259918 .23796082 .6230011 .25393678 .59399417 .286911 .58399966 .29789735 .55599978 .32388307 .5019989 .3408661 .59199526 .36184693 .6819916 .42079164 .6819916 .50172427 .6819916 .6016388 .5499878 .6826172 .394989 .6826172H.057998659V.64660647H.08198547C.15899658 .64660647 .16099549 .63661196 .16099549 .6016388V.081085208C.16099549 .04711914 .15899658 .036132814 .08198547 .036132814H.057998659V0L.20599365 .0039978029 .35499574 0V.035995485H.33099366C.2539978 .035995485 .2519989 .04598999 .2519989 .08100891V.328125H.3849945C.40299989 .328125 .45498658 .328125 .49899293 .28709413 .5339966 .25608827 .5339966 .2310791 .5339966 .16404724 .5339966 .09901428 .5339966 .057998659 .5799866 .019989014 .6230011-.014541626 .6819916-.01953125 .70999148-.01953125 .79499819-.01953125 .81700137 .061401369 .81700137 .09136963V.09107971M.57499697 .5018616C.57499697 .39006043 .48799134 .35612489 .38198854 .35612489H.2519989V.6076813C.2519989 .6356354 .25299073 .6426239 .2789917 .6456146 .2869873 .64660647 .32099916 .64660647 .34199525 .64660647 .43798829 .64660647 .57499697 .64660647 .57499697 .5018616Z"/>
<path id="font_4_80" d="M.80599978 .33828736C.80599978 .53819277 .6419983 .703125 .43798829 .703125 .23298645 .703125 .069992069 .53819277 .069992069 .33828736 .069992069 .14239502 .23298645-.01953125 .43798829-.01953125 .6429901-.01953125 .80599978 .14239502 .80599978 .33828736M.69898989 .35427857C.69898989 .1084137 .5549927 .013458252 .43798829 .013458252 .32099916 .013458252 .1769867 .1084137 .1769867 .35427857 .1769867 .5861664 .32398988 .67111209 .43798829 .67111209 .5519867 .67111209 .69898989 .5861664 .69898989 .35427857Z"/>
<path id="font_4_42" d="M.74398806 .23434448C.74398806 .24534607 .7429962 .25334168 .72698977 .25334168 .72099307 .25334168 .71099856 .25334168 .70999148 .24034119 .70199587 .079422 .56599429 .016464234 .46699525 .016464234 .3600006 .016464234 .1769867 .0814209 .1769867 .34129334 .1769867 .61213687 .37098695 .66711428 .46499635 .66711428 .56399539 .66711428 .6819916 .6011505 .70799258 .429245 .70999148 .4172516 .71899417 .4172516 .7259979 .4172516 .74398806 .4172516 .74398806 .4232483 .74398806 .4432373V.677124C.74398806 .6941223 .74398806 .703125 .7299957 .703125 .7259979 .703125 .72099307 .703125 .71299746 .69111636L.6599884 .6151428C.6179962 .65711978 .548996 .703125 .45298768 .703125 .24299622 .703125 .069992069 .5411835 .069992069 .34228517 .069992069 .13938904 .24598694-.01953125 .45298768-.01953125 .6299896-.01953125 .74398806 .1124115 .74398806 .23434448Z"/>
<path id="font_4_83" d="M.69699099 .4947052C.69699099 .5936432 .58499148 .6826172 .43798829 .6826172H.057998659V.64660647H.08198547C.15899658 .64660647 .16099549 .63661196 .16099549 .6016388V.080963138C.16099549 .04698181 .15899658 .035995485 .08198547 .035995485H.057998659V0L.20799256 .00390625 .35899354 0V.035995485H.33499146C.2579956 .035995485 .2559967 .04598999 .2559967 .080963138V.30978395H.43798829C.58299258 .30978395 .69699099 .39375306 .69699099 .4947052M.58999636 .4947052C.58999636 .45072938 .58999636 .34179688 .41299439 .34179688H.2519989V.6076355C.2519989 .63861086 .25299073 .64660647 .2999878 .64660647H.41299439C.5799866 .64660647 .58999636 .5526581 .58999636 .4947052Z"/>
<path id="font_4_97" d="M.55999758 .18554688C.55999758 .27555848 .49699403 .36054994 .39698792 .38356019L.24899292 .41755677C.16099549 .43756105 .13398743 .5005493 .13398743 .5424652 .13398743 .6082916 .19499207 .67111209 .28599549 .67111209 .42099 .67111209 .47898866 .58135989 .49499513 .4765625 .49699403 .46154786 .49798585 .45655824 .5130005 .45655824 .5299988 .45655824 .5299988 .463562 .5299988 .4825592V.677124C.5299988 .6941223 .5299988 .703125 .5159912 .703125 .5079956 .703125 .5059967 .700119 .49899293 .68911746L.46299745 .6332245C.39698792 .700119 .31399537 .703125 .28599549 .703125 .1599884 .703125 .069992069 .61328127 .069992069 .512558 .069992069 .45655824 .09498596 .41355897 .1309967 .37954713 .17098999 .3405609 .20399475 .33355714 .31199647 .30955506 .40299989 .28955079 .4229889 .28555299 .45199586 .2575531 .47499085 .23446656 .49598695 .20246887 .49598695 .15745545 .49598695 .08746338 .43798829 .016464234 .34199525 .016464234 .24499512 .016464234 .11099243 .05445862 .10398865 .2054596 .102996829 .22146607 .102996829 .22746277 .08699036 .22746277 .069992069 .22746277 .069992069 .22045899 .069992069 .20045471V.006454468C.069992069-.010543823 .069992069-.01953125 .083999637-.01953125 .09199524-.01953125 .09399414-.016540528 .099990848-.007537842 .10899353 .0044555666 .1289978 .036468507 .13699341 .049453737 .19999695-.0055389406 .2769928-.01953125 .34199525-.01953125 .47399903-.01953125 .55999758 .07946777 .55999758 .18545532V.18554688Z"/>
<path id="font_4_105" d="M.375 .12606812V.1809845H.34098817V.12705994C.34098817 .059173585 .30899049 .022232056 .269989 .022232056 .20098877 .022232056 .20098877 .10609436 .20098877 .124069217V.39465333H.35699464V.43066407H.20098877V.6142578H.16699219C.1659851 .5244446 .125 .42565919 .0289917 .4226532V.39465333H.12199402V.1250763C.12199402 .01322937 .20599365-.009765625 .2619934-.009765625 .32899476-.010009766 .375 .04699707 .375 .12599182V.12606812Z"/>
<path id="font_4_66" d="M.27398683 0V.035995485C.21598816 .035995485 .20599365 .035995485 .20599365 .07803345V.44140626L.05899048 .43052674V.39453126C.12199402 .39453126 .1309967 .3885193 .1309967 .33952333V.07952881C.1309967 .035995485 .12098694 .035995485 .055999757 .035995485V0C.055999757 0 .12799073 .0039978029 .16799927 .0039978029 .20298767 .0039978029 .23899842 .0029907227 .27398683 0M.21899414 .60214236C.21899414 .6341553 .19400025 .66015627 .1619873 .66015627 .12799073 .66015627 .10499573 .6321411 .10499573 .6031494 .10499573 .57115176 .12998963 .54515078 .1619873 .54515078 .19599915 .54515078 .21899414 .57315066 .21899414 .60214236Z"/>
<path id="font_4_77" d="M.58999636 0V.035995485C.5249939 .035995485 .5149994 .035995485 .5149994 .07904053V.3032837C.5149994 .3903656 .47200013 .44140626 .36499024 .44140626 .2829895 .44140626 .22999573 .39637757 .20199585 .34432984H.20098877V.44140626L.053985597 .43052674V.39453126C.12098694 .39453126 .1289978 .3875122 .1289978 .33843995V.079055789C.1289978 .035995485 .11898804 .035995485 .053985597 .035995485V0C.053985597 0 .12599182 .0039978029 .16799927 .0039978029 .20498657 .0039978029 .27398683 .0009918213 .2829895 0V.035995485C.21798706 .035995485 .20799256 .035995485 .20799256 .079055789V.25932313C.20799256 .36434938 .29100038 .4133911 .35699464 .4133911 .4269867 .4133911 .43598939 .3583374 .43598939 .3072815V.07904053C.43598939 .035995485 .42599488 .035995485 .36099244 .035995485V0C.36099244 0 .43299867 .0039978029 .47499085 .0039978029 .5119934 .0039978029 .58099368 .0009918213 .58999636 0Z"/>
<path id="font_4_121" d="M.5159912 .31925965C.5159912 .42918397 .5029907 .50813296 .45700074 .5780945 .42599488 .62405398 .3639984 .6640625 .28399659 .6640625 .051986696 .6640625 .051986696 .39120484 .051986696 .31925965 .051986696 .2472992 .051986696-.01953125 .28399659-.01953125 .5159912-.01953125 .5159912 .2472992 .5159912 .31925965M.4249878 .33224488C.4249878 .25830079 .4249878 .18434143 .4119873 .12138367 .3919983 .030441285 .32398988 .008468628 .28399659 .008468628 .23799134 .008468628 .1769867 .035446168 .15699768 .117385867 .14299011 .17634583 .14299011 .25830079 .14299011 .33224488 .14299011 .40519715 .14299011 .4811554 .1579895 .53611758 .1789856 .6150665 .24299622 .63604739 .28399659 .63604739 .33799745 .63604739 .3899994 .6030731 .4079895 .545105 .42399598 .4911499 .4249878 .41918946 .4249878 .33224488Z"/>
<path id="font_4_88" d="M.21899414 .056991579C.21899414 .09199524 .19099427 .114990238 .1619873 .114990238 .1269989 .114990238 .10398865 .08699036 .10398865 .057998659 .10398865 .022994996 .13198853 0 .16099549 0 .19599915 0 .21899414 .027999878 .21899414 .056991579Z"/>
<path id="font_4_51" d="M.5139923 .16905213C.5139923 .23504639 .47499085 .2910614 .4169922 .32505799L.35499574 .36105348C.43299867 .39904786 .48298646 .44606019 .48298646 .5150604 .48298646 .61206057 .38198854 .6640625 .2849884 .6640625 .1749878 .6640625 .084991458 .5920563 .084991458 .49705506 .084991458 .45005799 .10699463 .4160614 .125 .39605714 .14299011 .37506105 .1499939 .37104798 .20899964 .33605958 .15299988 .31245423 .053985597 .25846864 .053985597 .15345764 .053985597 .04246521 .16899109-.01953125 .2829895-.01953125 .4099884-.01953125 .5139923 .061462404 .5139923 .16946411V.16905213M.42999269 .51545718C.42999269 .4264679 .32398988 .38145448 .32398988 .38145448 .32398988 .38145448 .31999208 .38246156 .31298829 .38645936L.19198609 .45646668C.1659851 .4711609 .13798523 .49813844 .13798523 .53512576 .13798523 .5980835 .21099854 .63505557 .2829895 .63505557 .36099244 .63505557 .42999269 .5860901 .42999269 .5151367V.51545718M.45399476 .13438416C.45399476 .059432985 .37098695 .012466431 .2849884 .012466431 .19299317 .011993408 .11399841 .070999149 .11399841 .15299988 .11399841 .22698975 .16899109 .28399659 .24099732 .31698609 .29699708 .2849884 .29899598 .2849884 .37799073 .23799134 .4039917 .22299195 .45399476 .19299317 .45399476 .13398743V.13438416Z"/>
<path id="font_4_101" d="M.5139923 .20445252C.5139923 .33145143 .41299439 .42546083 .29599 .42546083 .21598816 .42546083 .17199707 .37245179 .1499939 .3274536 .1499939 .40945436 .15699768 .48303224 .19499207 .543869 .22898865 .5978699 .2829895 .63505557 .34700013 .63505557 .3769989 .63505557 .4169922 .62701418 .43699647 .5998688 .4119873 .5978699 .3909912 .5808716 .3909912 .5518799 .3909912 .5268707 .4079895 .5048828 .43798829 .5048828 .46798707 .5048828 .48599244 .5248718 .48599244 .5538788 .48599244 .6119385 .44400025 .6640625 .34498597 .6640625 .20098877 .6640625 .053985597 .5318756 .053985597 .3174591 .053985597 .05845642 .17599488-.01953125 .28599549-.01953125 .4079895-.01953125 .5139923 .07345581 .5139923 .20445252M.41799928 .20445252C.41799928 .14746094 .41799928 .10545349 .3909912 .066467288 .36698915 .031463624 .33499146 .012466431 .28599549 .012466431 .23599243 .012466431 .19699097 .04145813 .17599488 .08546448 .16099549 .115448 .15299988 .16545105 .15299988 .22544861 .15299988 .32244874 .21099854 .39746095 .29100038 .39746095 .33699037 .39746095 .36799623 .37945558 .3929901 .342453 .4169922 .30445863 .41799928 .26245118 .41799928 .20445252Z"/>
<path id="font_4_56" d="M.5049896 .20095825C.5049896 .31396485 .4189911 .41796876 .29499818 .41796876 .25099183 .41796876 .19898987 .40696717 .15499878 .36895753V.5579071C.20599365 .5449219 .23599243 .5449219 .2519989 .5449219 .38398744 .5449219 .46199037 .6349182 .46199037 .6499176 .46199037 .6610565 .45498658 .6640625 .44999696 .6640625 .44999696 .6640625 .44599916 .6640625 .44198609 .6610565 .41799928 .65205386 .36499024 .63204959 .29100038 .63204959 .2630005 .63204959 .20999146 .63404849 .14498902 .6590576 .1349945 .6640625 .13198853 .6640625 .13198853 .6640625 .11898804 .6640625 .11898804 .6530609 .11898804 .63705447V.34204103C.11898804 .32507325 .11898804 .3130951 .1349945 .3130951 .14399719 .3130951 .14498902 .31507875 .15499878 .32707215 .19799805 .38197328 .25898744 .3899536 .2939911 .3899536 .35398866 .3899536 .3809967 .34204103 .38598634 .33406068 .4039917 .30110169 .4099884 .26316834 .4099884 .20524597 .4099884 .17524719 .4099884 .116256717 .37998963 .07234192 .35499574 .03640747 .31199647 .012466431 .2630005 .012466431 .19799805 .012466431 .1309967 .04838562 .10598755 .11425781 .14399719 .11125183 .16299439 .13624573 .16299439 .16325379 .16299439 .20625305 .12599182 .21424866 .11299133 .21424866 .11299133 .21424866 .06298828 .21424866 .06298828 .1602478 .06298828 .07034302 .14498902-.01953125 .2649994-.01953125 .3929901-.019744873 .5049896 .07525635 .5049896 .20124817V.20095825Z"/>
<path id="font_4_100" d="M.54499819 .6435852H.2829895C.24299622 .6435852 .23199463 .6445923 .19599915 .6476135 .14399719 .6516266 .14199829 .65867617 .13899231 .67578127H.10499573L.069992069 .46173097H.10398865C.10598755 .47669984 .115997318 .54260256 .13198853 .55259707 .13999939 .55859377 .22099304 .55859377 .23599243 .55859377H.45399476L.34999085 .42678834C.21899414 .25505067 .20698548 .09628296 .20698548 .037368776 .20698548 .026397706 .20698548-.01953125 .2539978-.01953125 .3019867-.01953125 .3019867 .025390625 .3019867 .038375856V.078308109C.3019867 .27201844 .34199525 .36088563 .3849945 .41479493L.5349884 .6035919C.54499819 .6155853 .54499819 .6175842 .54499819 .6435852Z"/>
<path id="font_4_106" d="M.5139923 .1733551C.5139923 .2513275 .44999696 .32929994 .33999635 .35229493 .44499208 .39024354 .48298646 .4650879 .48298646 .5260773 .48298646 .60505679 .3919983 .6640625 .2809906 .6640625 .16999817 .6640625 .084991458 .61006167 .084991458 .5300751 .084991458 .49606324 .10699463 .47706605 .13699341 .47706605 .16799927 .47706605 .18798828 .5000763 .18798828 .5280762 .18798828 .5570679 .16799927 .57806399 .13699341 .5800781 .17199707 .62405398 .24099732 .63505557 .27799989 .63505557 .32299806 .63505557 .38598634 .6130676 .38598634 .5260773 .38598634 .48406983 .37199403 .43814088 .34599305 .4072113 .31298829 .36927796 .2849884 .3672943 .23498535 .36428834 .20999146 .3623047 .20799256 .3623047 .20298767 .3612976 .20298767 .3612976 .19299317 .3592987 .19299317 .34829713 .19299317 .33428956 .20199585 .33428956 .21899414 .33428956H.272995C.35099793 .33428956 .40699769 .2803192 .40699769 .1733551 .40699769 .04940796 .33499146 .012466431 .2769928 .012466431 .23699951 .012466431 .14898682 .0234375 .10699463 .082351688 .1539917 .084350589 .16499329 .11735535 .16499329 .13835144 .16499329 .17034912 .14099121 .19335938 .10998535 .19335938 .08198547 .19335938 .053985597 .17634583 .053985597 .13534546 .053985597 .041412355 .1579895-.01953125 .2789917-.01953125 .41799928-.01953125 .5139923 .07336426 .5139923 .1733551Z"/>
<path id="font_4_78" d="M.5139923 .3290558C.5139923 .5770569 .4039917 .6640625 .2869873 .6640625 .2539978 .6637573 .18499756 .65875247 .12799073 .6027527 .09399414 .56977847 .053985597 .53082278 .053985597 .44088746 .053985597 .3139801 .15499878 .22003174 .27198792 .22003174 .35198976 .22003174 .394989 .2730255 .41799928 .3179779V.29800416C.41799928 .05064392 .29499818 .012466431 .23498535 .012466431 .21299744 .012466431 .1599884 .014465332 .1329956 .045639039 .17399597 .04963684 .1769867 .08363342 .1769867 .09263611 .1769867 .11764526 .1599884 .13964844 .12998963 .13964844 .099990848 .13964844 .08198547 .119644168 .08198547 .09063721 .08198547 .022521973 .13899231-.01953125 .23599243-.01953125 .3789978-.01953125 .5139923 .11564636 .5139923 .3289795V.3290558M.4149933 .42990113C.4149933 .30000306 .33999635 .24804688 .2769928 .24804688 .23799134 .24804688 .20098877 .2610321 .17298889 .30699159 .1499939 .34396363 .1499939 .3859253 .1499939 .44088746 .1499939 .49884034 .1499939 .5388031 .1789856 .5787811 .20298767 .6137543 .23599243 .6347656 .28799439 .6347656 .33898927 .6347656 .36898805 .6027527 .3849945 .5767822 .4119873 .5349884 .4149933 .46499635 .4149933 .42999269V.42990113Z"/>
<path id="font_4_57" d="M.5289917 .1640625V.20005799H.41799928V.6458435C.41799928 .66682437 .41799928 .6738281 .3959961 .6738281 .38398744 .6738281 .37998963 .6738281 .36999513 .6598358L.038986207 .20005799V.1640625H.33299256V.08201599C.33299256 .04800415 .33299256 .035995485 .2519989 .035995485H.22499085V0L.375 .0039978029 .526001 0V.035995485H.49899293C.41799928 .035995485 .41799928 .04800415 .41799928 .08201599V.1640625H.5289917M.33999635 .20005799H.07598877L.33999635 .5658722V.20005799Z"/>
<path id="font_4_107" d="M.5049896 .18203736H.47099305C.46798707 .16001892 .45799256 .100997928 .44499208 .09098816 .43699647 .084991458 .3600006 .084991458 .34599305 .084991458H.1619873C.2669983 .17803955 .3019867 .20603943 .3619995 .25306703 .43598939 .312088 .5049896 .374115 .5049896 .46914674 .5049896 .5900879 .39898683 .6640625 .2709961 .6640625 .14698792 .6640625 .06298828 .57710269 .06298828 .4851532 .06298828 .43414308 .10598755 .42915345 .115997318 .42915345 .13999939 .42915345 .16899109 .44615174 .16899109 .48214723 .16899109 .5001526 .1619873 .53515627 .10998535 .53515627 .14099121 .6060791 .20899964 .62805178 .2559967 .62805178 .35598756 .62805178 .4079895 .5501404 .4079895 .46914674 .4079895 .38212586 .34599305 .3130951 .31399537 .27708436L.07299805 .038986207C.06298828 .02999878 .06298828 .027999878 .06298828 0H.47499085L.5049896 .18203736Z"/>
<path id="font_4_118" d="M.56799319 .39465333V.43066407C.5399933 .4286499 .5209961 .426651 .49198915 .426651 .46499635 .426651 .42799378 .42765809 .40098573 .43066407V.39465333C.43399049 .39265443 .44198609 .3726654 .44198609 .3566742 .44198609 .3446808 .43699647 .33569337 .43299867 .32569886L.32199098 .08883667 .19898987 .3526764C.19599915 .3586731 .19299317 .3646698 .19299317 .37167359 .19299317 .39465333 .22698975 .39465333 .24398804 .39465333V.43066407L.1289978 .426651C.09899902 .426651 .05999756 .42765809 .0309906 .43066407V.39465333C.08699036 .39465333 .09799194 .3916626 .11299133 .35968019L.2809906-.00012207031C.27198792-.020111084 .2619934-.039093019 .25299073-.05908203 .23098755-.10707092 .19898987-.17610169 .1309967-.17610169 .10598755-.17610169 .09799194-.1710968 .08799744-.1640625 .08799744-.16397095 .116989139-.15396118 .116989139-.12097168 .116989139-.096069339 .09899902-.078063968 .07398987-.078063968 .04798889-.078063968 .02999878-.096069339 .02999878-.12207031 .02999878-.16908264 .07699585-.20410156 .1309967-.20410156 .21598816-.20396424 .2649994-.114974979 .2789917-.08496094L.47299195 .33270265C.5009918 .3936615 .5519867 .39465333 .56799319 .39465333Z"/>
<path id="font_4_75" d="M.8969879 0V.035995485C.83200076 .035995485 .82199099 .035995485 .82199099 .07904053V.3032837C.82199099 .3903656 .7789917 .44140626 .6719971 .44140626 .59298709 .44140626 .5389862 .39837647 .5119934 .34832765 .49198915 .41940309 .43798829 .44140626 .36499024 .44140626 .2829895 .44140626 .22999573 .39637757 .20199585 .34432984H.20098877V.44140626L.053985597 .43052674V.39453126C.12098694 .39453126 .1289978 .3875122 .1289978 .33843995V.079055789C.1289978 .035995485 .11898804 .035995485 .053985597 .035995485V0C.053985597 0 .12599182 .0039978029 .16799927 .0039978029 .20498657 .0039978029 .27398683 .0009918213 .2829895 0V.035995485C.21798706 .035995485 .20799256 .035995485 .20799256 .079055789V.25932313C.20799256 .36434938 .29100038 .4133911 .35699464 .4133911 .4269867 .4133911 .43598939 .3583374 .43598939 .3072815V.07904053C.43598939 .035995485 .42599488 .035995485 .36099244 .035995485V0C.36099244 0 .43299867 .0039978029 .47499085 .0039978029 .5119934 .0039978029 .58099368 .0009918213 .58999636 0V.035995485C.5249939 .035995485 .5149994 .035995485 .5149994 .07904053V.25923158C.5149994 .36434938 .59799197 .4133911 .6639862 .4133911 .73399356 .4133911 .7429962 .3583374 .7429962 .3072815V.07904053C.7429962 .035995485 .73298647 .035995485 .66799929 .035995485V0C.66799929 0 .73999026 .0039978029 .7819977 .0039978029 .81900027 .0039978029 .8880005 .0009918213 .8969879 0Z"/>
<path id="font_4_82" d="M.47299195 0V.035995485H.43499757C.33499146 .035995485 .33499146 .048980714 .33499146 .081970218V.6357422C.33499146 .66304019 .33299256 .6640625 .30499269 .6640625 .24099732 .6007385 .1499939 .59973147 .10899353 .59973147V.5644531C.1329956 .5644531 .19898987 .5644531 .2539978 .592453V.08203125C.2539978 .04899597 .2539978 .035995485 .1539917 .035995485H.115997318V0L.2939911 .0039978029 .47299195 0Z"/>
<path id="font_4_74" d="M.96499636 0V.035995485H.94099429C.8639984 .035995485 .8619995 .04598999 .8619995 .080963138V.6016388C.8619995 .6356201 .8639984 .64660647 .94099429 .64660647H.96499636V.6826172H.79100039C.7709961 .6826172 .7619934 .6826172 .7539978 .6626129L.5139923 .095962528 .2749939 .660614C.2659912 .6826172 .2579956 .6826172 .23699951 .6826172H.06199646V.64660647H.085998538C.16299439 .64660647 .16499329 .63661196 .16499329 .6016388V.107940677C.16499329 .080963138 .16499329 .035995485 .06199646 .035995485V0C.102996829 .0029907227 .14299011 .0039978029 .18399048 .0039978029 .22499085 .0039978029 .2649994 .0029907227 .30599977 0V.035995485C.20298767 .035995485 .20298767 .080963138 .20298767 .107940677V.63461306L.20399475 .6356201 .46398927 .022994996C.46899415 .010986328 .47399903 0 .4889984 0 .49598695 0 .5049896 .0029907227 .5130005 .020996094L.7769928 .6456146 .7779999 .64460757V.080963138C.7779999 .04698181 .776001 .035995485 .69898989 .035995485H.6749878V0L.81999209 .0039978029 .96499636 0Z"/>
<path id="font_4_116" d="M.57398989 0V.035995485C.5069885 .035995485 .49899293 .04197693 .47599793 .06793213L.33898927 .22369385 .33099366 .23371887C.33099366 .23672486 .39698792 .3078308 .4059906 .31684876 .44099427 .35588075 .47599793 .3936615 .5549927 .39465333V.43066407C.5269928 .4286499 .49798585 .426651 .47099305 .426651 .44099427 .426651 .4019928 .42765809 .37199403 .43066407V.39465333C.3889923 .39169313 .3919983 .3808136 .3919983 .3718872 .3919983 .3718872 .3919983 .35488893 .3769989 .33789063L.30699159 .25875855 .22399903 .35388185C.21398926 .36488343 .21299744 .3698883 .21299744 .3738861 .21299744 .38871766 .22698975 .39465333 .23999024 .39465333V.43066407C.20298767 .42765809 .16499329 .426651 .12799073 .426651 .09799194 .426651 .05999756 .42765809 .0309906 .43066407V.39465333C.07699585 .39465333 .102996829 .39465333 .1289978 .36488343L.2539978 .22070313 .2619934 .21069336C.2619934 .20770264 .18699646 .12580872 .1769867 .11483765 .13999939 .074920658 .10598755 .037994386 .025985718 .035995485V0C.055999757 .0019989014 .07798767 .0039978029 .10899353 .0039978029 .13899231 .0039978029 .1789856 .0029907227 .20899964 0V.035995485C.19699097 .037994386 .18899536 .04496765 .18899536 .058944704 .18899536 .07791138 .19999695 .09088135 .21598816 .10784912L.28599549 .18469239 .37298585 .08589172C.3919983 .064941409 .3919983 .062942508 .3919983 .0569458 .3919983 .036987306 .36898805 .035995485 .36499024 .035995485V0C.37399293 .0009918213 .44599916 .0039978029 .47799684 .0039978029 .5099945 .0039978029 .5419922 .0029907227 .57398989 0Z"/>
<path id="font_5_82" d="M.5529938 0V.055999757H.39898683V.6211853C.39898683 .65625 .3919983 .65625 .34999085 .65625 .28799439 .6061554 .20599365 .59213259 .12599182 .59213259H.101989749V.5361328H.12599182C.1659851 .5361328 .22698975 .54312136 .2689972 .5571289V.055999757H.11099243V0C.1599884 .0039978029 .27999879 .0039978029 .33399964 .0039978029L.44198609 .0029907227C.47200013 .0029907227 .5239868 .0019989014 .5529938 0Z"/>
<path id="font_5_88" d="M.2630005 .08099365C.2630005 .1289978 .22399903 .16299439 .18199158 .16299439 .13398743 .16299439 .099990848 .12399292 .099990848 .08198547 .099990848 .033996583 .13899231 0 .18099976 0 .22898865 0 .2630005 .038986207 .2630005 .08099365Z"/>
<path id="font_5_121" d="M.59199526 .31825257C.59199526 .44125367 .57899478 .65625 .32299806 .65625 .066986087 .65625 .053985597 .44024659 .053985597 .31825257 .053985597 .19226074 .069992069-.01171875 .32299806-.01171875 .57598879-.01171875 .59199526 .19126892 .59199526 .31825257M.45298768 .33125306C.45298768 .261261 .45298768 .18826294 .44299317 .13226319 .42900086 .05126953 .3600006 .03427124 .32299806 .03427124 .29100038 .03427124 .26098634 .045272829 .23699951 .06626892 .20999146 .089263919 .19299317 .104263309 .19299317 .33125306 .19299317 .4002533 .19299317 .47924806 .20399475 .5272522 .21998596 .5922394 .28199769 .61024478 .32299806 .61024478 .36099244 .61024478 .42599488 .5942383 .44198609 .52523806 .45298768 .47824098 .45298768 .3952484 .45298768 .33125306Z"/>
<path id="font_4_102" d="M.49798585 .72499087C.49798585 .74198916 .48399354 .75 .47399903 .75 .45700074 .75 .45199586 .73799136 .44699098 .72499087L.07499695-.20700073C.069992069-.2190094 .069992069-.2250061 .069992069-.2250061 .069992069-.2420044 .083999637-.25 .09399414-.25 .11099243-.25 .115997318-.23800659 .12098694-.2250061L.49299623 .70700076C.49798585 .71899417 .49798585 .72499087 .49798585 .72499087Z"/>
<path id="font_4_109" d="M.58999636 0V.035995485C.522995 .035995485 .5149994 .042999269 .5149994 .092056278V.44140626L.36099244 .43052674V.39453126C.42799378 .39439393 .43598939 .3874359 .43598939 .33872987V.16749573C.43598939 .079330448 .3789978 .018234253 .30299378 .018234253 .21199036 .018234253 .20799256 .061309816 .20799256 .11239624V.44140626L.053985597 .43052674V.39453126C.1289978 .39453126 .1289978 .39154054 .1289978 .30273438V.15246582C.1289978 .083343509 .1289978-.009765625 .29599-.009765625 .31799317-.009765625 .3909912-.009765625 .43899537 .07432556H.43998719V-.009765625L.58999636 0Z"/>
<path id="font_4_98" d="M.40699769 .1315155C.40699769 .1694336 .3899994 .1993866 .3639984 .2233429 .32598878 .25827027 .27999879 .2662506 .24499512 .2722473 .16499329 .28622438 .099990848 .29818727 .099990848 .35113526 .099990848 .38320924 .1269989 .422287 .22200012 .422287 .33799745 .422287 .34298707 .34114076 .34498597 .3121643 .34599305 .30119325 .35798646 .30119325 .3619995 .30119325 .3789978 .30119325 .3789978 .30818177 .3789978 .32714845V.42027284C.3789978 .43728639 .3789978 .44628907 .36499024 .44628907 .3600006 .44628907 .35798646 .44628907 .34498597 .4342804 .34298707 .43328858 .33299256 .4242859 .32699586 .419281 .29699708 .4402771 .25898744 .44628907 .22200012 .44628907 .07899475 .44628907 .04499817 .3711853 .04499817 .32115174 .04499817 .2892151 .05899048 .2632599 .08299255 .24330139 .12098694 .21035767 .15899658 .20336914 .22099304 .1933899 .2709961 .18440247 .35198976 .17044068 .35198976 .103515628 .35198976 .06437683 .32499696 .018234253 .22898865 .018234253 .1329956 .018234253 .09799194 .08143616 .07998657 .1494751 .07699585 .16244507 .07598877 .16644287 .06199646 .16644287 .04499817 .16644287 .04499817 .15945435 .04499817 .13949585V.016220093C.04499817-.00077819827 .04499817-.009765625 .05899048-.009765625 .067993167-.009765625 .08699036 .011230469 .10699463 .03327942 .15098572-.0077667238 .20498657-.009765625 .22898865-.009765625 .35899354-.009765625 .40699769 .06036377 .40699769 .1315155Z"/>
<path id="font_4_85" d="M.375-.23703003C.375-.23103333 .37199403-.22903443 .36499024-.22203064 .23199463-.10203552 .18299866 .067977908 .18299866 .24998474 .18299866 .519989 .28599549 .65197756 .36799623 .72598269 .37199403 .72998049 .375 .73298647 .375 .73799136 .375 .75 .36299134 .75 .35499574 .75 .16499329 .61598208 .114990238 .40397645 .114990238 .25097657 .114990238 .10997009 .15699768-.10902405 .35499574-.24902344 .36299134-.24902344 .375-.24902344 .375-.23703003Z"/>
<path id="font_4_86" d="M.32998658 .24998474C.32998658 .39097596 .28799439 .60998538 .08999634 .75 .08299255 .75 .070999149 .75 .070999149 .73799136 .070999149 .73298647 .07398987 .72998049 .07998657 .72299197 .1659851 .64398196 .2619934 .5089874 .2619934 .25097657 .2619934 .04197693 .19699097-.11602783 .08898926-.21403504 .07199097-.23103333 .070999149-.23202515 .070999149-.23703003 .070999149-.24203491 .07398987-.24902344 .083999637-.24902344 .09599304-.24902344 .19099427-.18302918 .25698854-.058029176 .30099488 .024978638 .32998658 .13298035 .32998658 .24998474Z"/>
<path id="font_5_51" d="M.58898928 .18824768C.58898928 .2992401 .4909973 .34724427 .44799806 .36924745 .519989 .40423585 .5529938 .4502411 .5529938 .5072479 .5529938 .65625 .3639984 .65625 .32598878 .65625 .1639862 .65625 .09298706 .5752411 .09298706 .47824098 .09298706 .38523866 .1789856 .33624269 .18899536 .33024598 .10998535 .29927064 .056991579 .24627686 .056991579 .16326905 .056991579 .0022735596 .23999024-.01171875 .32099916-.01171875 .5039978-.01171875 .58898928 .07727051 .58898928 .1882782V.18824768M.46499635 .50627139C.46499635 .4562683 .43399049 .4232788 .3899994 .39927674L.22698975 .48127748C.19198609 .49925233 .18099976 .51724246 .18099976 .5372467 .18099976 .5882416 .23199463 .61024478 .31999208 .61024478 .4119873 .61024478 .46499635 .5732422 .46499635 .50624087V.50627139M.4869995 .13526917C.4869995 .057266237 .3999939 .039276124 .32499696 .039276124 .22898865 .038986207 .15899658 .07899475 .15899658 .16299439 .15899658 .22499085 .19499207 .2689972 .25299073 .2979889L.394989 .22698975C.44898988 .19898987 .4869995 .17999268 .4869995 .1349945V.13526917Z"/>
<path id="font_5_106" d="M.58898928 .18118286C.58898928 .25819398 .5279999 .32818605 .4139862 .35118104 .48599244 .3781891 .5529938 .4302063 .5529938 .5142212 .5529938 .5922394 .47299195 .65625 .31298829 .65625 .1769867 .65625 .09298706 .5892334 .09298706 .5062256 .09298706 .45620729 .1289978 .42919923 .16799927 .42919923 .21798706 .42919923 .24398804 .46621705 .24398804 .5042114 .24398804 .5552368 .20399475 .5732269 .19400025 .5762329 .23498535 .60624697 .28799439 .61024478 .30799867 .61024478 .4059906 .61024478 .4059906 .54522708 .4059906 .5172272 .4059906 .47120667 .38598634 .37919618 .28599549 .37419129 .26098634 .3731842 .23599243 .37219239 .22999573 .37019349 .21699524 .36618043 .21699524 .354187 .21699524 .3481903 .21699524 .3251953 .22999573 .3251953 .24899292 .3251953H.3019867C.42099 .3251953 .42599488 .23521424 .42599488 .18223572 .42599488 .14024353 .42599488 .039276124 .30599977 .039276124 .2789917 .039276124 .21598816 .044265748 .17298889 .071258548 .19400025 .07998657 .21998596 .102996829 .21998596 .1459961 .21998596 .1925354 .18699646 .22753906 .13899231 .22753906 .08898926 .22753906 .056991579 .1925354 .056991579 .14546204 .056991579 .043273927 .16799927-.01171875 .30999757-.01171875 .5189972-.01171875 .58898928 .09738159 .58898928 .18153382V.18118286Z"/>
<path id="font_5_100" d="M.6239929 .64382937H.37298585L.3019867 .64782717 .23298645 .65083315C.22599793 .64982607 .22399903 .64982607 .21798706 .64982607 .17999268 .64982607 .17799378 .66282656 .17599488 .6738281H.11299133L.07499695 .4159088H.13798523C.1459961 .4728546 .15899658 .500824 .16899109 .50183108 .17199707 .5028229 .21199036 .50683596 .28199769 .50683596H.44499208C.41799928 .47685243 .40499879 .4658661 .37098695 .42988587 .30299378 .35694886 .21899414 .21807862 .21899414 .065200809 .21899414-.01171875 .2829895-.01171875 .28799439-.01171875 .31999208-.01171875 .33699037 .0062561037 .34199525 .011260986 .35798646 .03024292 .35798646 .040222169 .35798646 .107177738 .35798646 .2680359 .3869934 .35694886 .44699098 .4179077L.61698916 .5928345C.61898806 .5958252 .62098696 .5988312 .621994 .6018219 .6239929 .6048279 .6239929 .6068268 .6239929 .64382937Z"/>
<path id="font_5_101" d="M.58898928 .20600891C.58898928 .3380127 .4869995 .42001344 .34399415 .42001344 .32199098 .42001344 .2539978 .42001344 .20399475 .34301759 .20399475 .41101075 .20799256 .48805238 .24398804 .53808596 .29299928 .6072235 .37199403 .61024478 .3929901 .61024478 .42399598 .61024478 .44999696 .6011658 .46499635 .5890808 .43598939 .5780792 .41799928 .5530853 .41799928 .52207949 .41799928 .4841156 .44499208 .453125 .4869995 .453125 .5279999 .453125 .5569916 .48112489 .5569916 .52412417 .5569916 .5851135 .5169983 .65625 .3909912 .65625 .22200012 .65625 .056991579 .5541229 .056991579 .31817628 .056991579 .18322754 .09298706-.01171875 .32699586-.01171875 .4869995-.01171875 .58898928 .07426453 .58898928 .20620728V.20600891M.44198609 .20721436C.44198609 .11424255 .44198609 .039276124 .32598878 .039276124 .20698548 .039016725 .20599365 .15802002 .20599365 .2190094 .20599365 .29101563 .24699402 .37402345 .33299256 .37402345 .44198609 .37402345 .44198609 .2980194 .44198609 .20701599V.20721436Z"/>
<path id="font_5_56" d="M.5779877 .20124817C.5779877 .30725099 .5 .4102478 .32798768 .4102478 .2889862 .4102478 .23699951 .40524293 .18899536 .37724305V.49620057C.22499085 .49121095 .25099183 .49121095 .2630005 .49121095 .2869873 .49121095 .35598756 .49121095 .42999269 .535202 .45899964 .5522003 .5279999 .60321047 .5279999 .6332092 .5279999 .6372223 .5279999 .65625 .5099945 .65625 .5099945 .65625 .5059967 .65625 .49398805 .65223696 .42799378 .63020327 .36898805 .62420657 .32299806 .62420657 .28199769 .62420657 .21998596 .6292114 .1539917 .65122988 .13999939 .65625 .13598633 .65625 .13598633 .65625 .117996219 .6559906 .117996219 .6399994 .117996219 .625V.32899476C.117996219 .30899049 .117996219 .29499818 .14698792 .29499818 .15699768 .29525758 .1639862 .29525758 .17199707 .30325318 .19099427 .32424928 .22799683 .3642578 .32299806 .3642578 .4269867 .3642578 .4269867 .2772522 .4269867 .20526123 .4269867 .13825989 .4269867 .039276124 .2889862 .039276124 .24198914 .039276124 .18998719 .055267335 .16099549 .088272098 .21099854 .10127258 .21499634 .14326477 .21499634 .15826416 .21499634 .20741272 .1769867 .23242188 .14199829 .23242188 .10598755 .23242188 .067993167 .2084198 .067993167 .15740967 .067993167 .06535339 .1579895-.01171875 .29299928-.01171875 .48199464-.01171875 .5779877 .088409427 .5779877 .20141602V.20124817Z"/>
<path id="font_5_107" d="M.5779877 .2280426H.5149994C.5130005 .21603394 .5039978 .14500427 .48599244 .14099121 .46499635 .13699341 .40499879 .13699341 .38198854 .13699341H.24499512C.2999878 .17800904 .35598756 .21903992 .4139862 .25605775 .49499513 .3080902 .5779877 .3611145 .5779877 .46116639 .5779877 .5812378 .46499635 .65625 .30599977 .65625 .16999817 .65625 .067993167 .60324099 .067993167 .50819399 .067993167 .4501648 .114990238 .42915345 .14498902 .42915345 .18099976 .42915345 .22299195 .4541626 .22299195 .5071869 .22299195 .55522158 .18598938 .57522585 .18299866 .5762329 .21899414 .59924319 .2649994 .600235 .2769928 .600235 .3619995 .600235 .42900086 .5462189 .42900086 .4601593 .42900086 .38311769 .3769989 .3190918 .31900025 .2680664L.08099365 .056991579C.068984989 .04499817 .067993167 .04399109 .067993167 .023986817V0H.5439911L.5779877 .2280426Z"/>
</defs>
<g clip-path="url(#clip_1)">
<g clip-path="url(#clip_2)">
<path transform="matrix(1,0,0,-1,-84.5,27)" stroke-width=".84" stroke-linecap="butt" stroke-miterlimit="10" stroke-linejoin="miter" fill="none" stroke="#000000" d="M90.749 20.556H360.526"/>
<use data-text="&#x6a21;" xlink:href="#font_3_2469" transform="matrix(6.5,0,0,-6.5,10.234001,21.365)"/>
<use data-text="&#x578b;" xlink:href="#font_3_2175" transform="matrix(6.5,0,0,-6.5,16.734002,21.365)"/>
<use data-text="&#x53d8;" xlink:href="#font_3_1336" transform="matrix(6.5,0,0,-6.5,23.234002,21.365)"/>
<use data-text="&#x4f53;" xlink:href="#font_3_1348" transform="matrix(6.5,0,0,-6.5,29.734002,21.365)"/>
<use data-text="T" xlink:href="#font_4_104" transform="matrix(6.5,0,0,-6.5,95.38901,16.477)"/>
<use data-text="r" xlink:href="#font_4_96" transform="matrix(6.5,0,0,-6.5,100.1015,16.477)"/>
<use data-text="a" xlink:href="#font_4_28" transform="matrix(6.5,0,0,-6.5,103.0005,16.477)"/>
<use data-text="c" xlink:href="#font_4_43" transform="matrix(6.5,0,0,-6.5,106.699008,16.477)"/>
<use data-text="e" xlink:href="#font_4_50" transform="matrix(6.5,0,0,-6.5,110.00101,16.477)"/>
<use data-text="L" xlink:href="#font_4_71" transform="matrix(6.5,0,0,-6.5,113.30301,16.477)"/>
<use data-text="o" xlink:href="#font_4_81" transform="matrix(6.5,0,0,-6.5,117.89201,16.477)"/>
<use data-text="g" xlink:href="#font_4_59" transform="matrix(6.5,0,0,-6.5,121.590518,16.477)"/>
<use data-text="F" xlink:href="#font_4_54" transform="matrix(6.5,0,0,-6.5,158.49301,16.477)"/>
<use data-text="l" xlink:href="#font_4_72" transform="matrix(6.5,0,0,-6.5,163.28351,16.477)"/>
<use data-text="o" xlink:href="#font_4_81" transform="matrix(6.5,0,0,-6.5,165.38301,16.477)"/>
<use data-text="w" xlink:href="#font_4_114" transform="matrix(6.5,0,0,-6.5,168.8865,16.477)"/>
<use data-text="G" xlink:href="#font_4_58" transform="matrix(6.5,0,0,-6.5,174.19049,16.477)"/>
<use data-text="r" xlink:href="#font_4_96" transform="matrix(6.5,0,0,-6.5,179.9365,16.477)"/>
<use data-text="a" xlink:href="#font_4_28" transform="matrix(6.5,0,0,-6.5,182.83548,16.477)"/>
<use data-text="p" xlink:href="#font_4_84" transform="matrix(6.5,0,0,-6.5,186.53397,16.477)"/>
<use data-text="h" xlink:href="#font_4_63" transform="matrix(6.5,0,0,-6.5,190.63547,16.477)"/>
<use data-text="A" xlink:href="#font_4_27" transform="matrix(6.5,0,0,-6.5,226.27802,16.477)"/>
<use data-text="D" xlink:href="#font_4_46" transform="matrix(6.5,0,0,-6.5,231.7575,16.477)"/>
<use data-text="F" xlink:href="#font_4_54" transform="matrix(6.5,0,0,-6.5,237.3475,16.477)"/>
<use data-text="A" xlink:href="#font_4_27" transform="matrix(6.5,0,0,-6.5,241.3385,16.477)"/>
<use data-text="-" xlink:href="#font_4_64" transform="matrix(6.5,0,0,-6.5,246.818,16.477)"/>
<use data-text="L" xlink:href="#font_4_71" transform="matrix(6.5,0,0,-6.5,249.3205,16.477)"/>
<use data-text="D" xlink:href="#font_4_46" transform="matrix(6.5,0,0,-6.5,253.90949,16.477)"/>
<path transform="matrix(1,0,0,-1,-84.5,27)" stroke-width=".315" stroke-linecap="butt" stroke-miterlimit="10" stroke-linejoin="miter" fill="none" stroke="#000000" d="M166.948 5.696H222.724"/>
<path transform="matrix(1,0,0,-1,-84.5,27)" stroke-width=".315" stroke-linecap="butt" stroke-miterlimit="10" stroke-linejoin="miter" fill="none" stroke="#000000" d="M233.224 5.696H289"/>
<path transform="matrix(1,0,0,-1,-84.5,27)" stroke-width=".315" stroke-linecap="butt" stroke-miterlimit="10" stroke-linejoin="miter" fill="none" stroke="#000000" d="M299.5 5.696H355.276"/>
<use data-text="A" xlink:href="#font_4_27" transform="matrix(6.5,0,0,-6.5,81.183,31.076)"/>
<use data-text="U" xlink:href="#font_4_108" transform="matrix(6.5,0,0,-6.5,86.461,31.076)"/>
<use data-text="R" xlink:href="#font_4_95" transform="matrix(6.5,0,0,-6.5,91.940509,31.076)"/>
<use data-text="O" xlink:href="#font_4_80" transform="matrix(6.5,0,0,-6.5,97.1275,31.076)"/>
<use data-text="C" xlink:href="#font_4_42" transform="matrix(6.5,0,0,-6.5,102.828,31.076)"/>
<use data-text="A" xlink:href="#font_4_27" transform="matrix(6.5,0,0,-6.5,122.55551,31.076)"/>
<use data-text="P" xlink:href="#font_4_83" transform="matrix(6.5,0,0,-6.5,128.03502,31.076)"/>
<use data-text="A" xlink:href="#font_4_27" transform="matrix(6.5,0,0,-6.5,147.45703,31.076)"/>
<use data-text="U" xlink:href="#font_4_108" transform="matrix(6.5,0,0,-6.5,152.74153,31.076)"/>
<use data-text="R" xlink:href="#font_4_95" transform="matrix(6.5,0,0,-6.5,158.22104,31.076)"/>
<use data-text="O" xlink:href="#font_4_80" transform="matrix(6.5,0,0,-6.5,163.40804,31.076)"/>
<use data-text="C" xlink:href="#font_4_42" transform="matrix(6.5,0,0,-6.5,169.10854,31.076)"/>
<use data-text="A" xlink:href="#font_4_27" transform="matrix(6.5,0,0,-6.5,188.83603,31.076)"/>
<use data-text="P" xlink:href="#font_4_83" transform="matrix(6.5,0,0,-6.5,194.31552,31.076)"/>
<use data-text="A" xlink:href="#font_4_27" transform="matrix(6.5,0,0,-6.5,213.73102,31.076)"/>
<use data-text="U" xlink:href="#font_4_108" transform="matrix(6.5,0,0,-6.5,219.0155,31.076)"/>
<use data-text="R" xlink:href="#font_4_95" transform="matrix(6.5,0,0,-6.5,224.495,31.076)"/>
<use data-text="O" xlink:href="#font_4_80" transform="matrix(6.5,0,0,-6.5,229.68198,31.076)"/>
<use data-text="C" xlink:href="#font_4_42" transform="matrix(6.5,0,0,-6.5,235.38248,31.076)"/>
<use data-text="A" xlink:href="#font_4_27" transform="matrix(6.5,0,0,-6.5,255.10996,31.076)"/>
<use data-text="P" xlink:href="#font_4_83" transform="matrix(6.5,0,0,-6.5,260.58946,31.076)"/>
<path transform="matrix(1,0,0,-1,-84.5,27)" stroke-width=".525" stroke-linecap="butt" stroke-miterlimit="10" stroke-linejoin="miter" fill="none" stroke="#000000" d="M90.749-9.008H360.526"/>
<use data-text="S" xlink:href="#font_4_97" transform="matrix(6.5,0,0,-6.5,10.234001,45.884004)"/>
<use data-text="t" xlink:href="#font_4_105" transform="matrix(6.5,0,0,-6.5,14.335503,45.884004)"/>
<use data-text="a" xlink:href="#font_4_28" transform="matrix(6.5,0,0,-6.5,17.234505,45.884004)"/>
<use data-text="t" xlink:href="#font_4_105" transform="matrix(6.5,0,0,-6.5,20.933007,45.884004)"/>
<use data-text="i" xlink:href="#font_4_66" transform="matrix(6.5,0,0,-6.5,23.832009,45.884004)"/>
<use data-text="c" xlink:href="#font_4_43" transform="matrix(6.5,0,0,-6.5,25.93151,45.884004)"/>
<use data-text="C" xlink:href="#font_4_42" transform="matrix(6.5,0,0,-6.5,31.736016,45.884004)"/>
<use data-text="o" xlink:href="#font_4_81" transform="matrix(6.5,0,0,-6.5,37.040018,45.884004)"/>
<use data-text="n" xlink:href="#font_4_77" transform="matrix(6.5,0,0,-6.5,40.738519,45.884004)"/>
<use data-text="c" xlink:href="#font_4_43" transform="matrix(6.5,0,0,-6.5,44.84001,45.884004)"/>
<use data-text="a" xlink:href="#font_4_28" transform="matrix(6.5,0,0,-6.5,48.142015,45.884004)"/>
<use data-text="t" xlink:href="#font_4_105" transform="matrix(6.5,0,0,-6.5,51.840517,45.884004)"/>
<use data-text="0" xlink:href="#font_4_121" transform="matrix(6.5,0,0,-6.5,84.36099,45.884004)"/>
<use data-text="." xlink:href="#font_4_88" transform="matrix(6.5,0,0,-6.5,88.059497,45.884004)"/>
<use data-text="8" xlink:href="#font_4_51" transform="matrix(6.5,0,0,-6.5,90.159,45.884004)"/>
<use data-text="0" xlink:href="#font_4_121" transform="matrix(6.5,0,0,-6.5,93.8575,45.884004)"/>
<use data-text="6" xlink:href="#font_4_101" transform="matrix(6.5,0,0,-6.5,97.556,45.884004)"/>
<use data-text="5" xlink:href="#font_4_56" transform="matrix(6.5,0,0,-6.5,101.2545,45.884004)"/>
<use data-text="0" xlink:href="#font_4_121" transform="matrix(6.5,0,0,-6.5,117.498,45.884004)"/>
<use data-text="." xlink:href="#font_4_88" transform="matrix(6.5,0,0,-6.5,121.1965,45.884004)"/>
<use data-text="7" xlink:href="#font_4_100" transform="matrix(6.5,0,0,-6.5,123.296009,45.884004)"/>
<use data-text="3" xlink:href="#font_4_106" transform="matrix(6.5,0,0,-6.5,126.99451,45.884004)"/>
<use data-text="5" xlink:href="#font_4_56" transform="matrix(6.5,0,0,-6.5,130.69301,45.884004)"/>
<use data-text="9" xlink:href="#font_4_78" transform="matrix(6.5,0,0,-6.5,134.39151,45.884004)"/>
<use data-text="0" xlink:href="#font_4_121" transform="matrix(6.5,0,0,-6.5,150.63501,45.884004)"/>
<use data-text="." xlink:href="#font_4_88" transform="matrix(6.5,0,0,-6.5,154.33351,45.884004)"/>
<use data-text="9" xlink:href="#font_4_78" transform="matrix(6.5,0,0,-6.5,156.43302,45.884004)"/>
<use data-text="9" xlink:href="#font_4_78" transform="matrix(6.5,0,0,-6.5,160.13152,45.884004)"/>
<use data-text="9" xlink:href="#font_4_78" transform="matrix(6.5,0,0,-6.5,163.83002,45.884004)"/>
<use data-text="6" xlink:href="#font_4_101" transform="matrix(6.5,0,0,-6.5,167.52852,45.884004)"/>
<use data-text="0" xlink:href="#font_4_121" transform="matrix(6.5,0,0,-6.5,183.77204,45.884004)"/>
<use data-text="." xlink:href="#font_4_88" transform="matrix(6.5,0,0,-6.5,187.47052,45.884004)"/>
<use data-text="9" xlink:href="#font_4_78" transform="matrix(6.5,0,0,-6.5,189.57,45.884004)"/>
<use data-text="9" xlink:href="#font_4_78" transform="matrix(6.5,0,0,-6.5,193.2685,45.884004)"/>
<use data-text="9" xlink:href="#font_4_78" transform="matrix(6.5,0,0,-6.5,196.96698,45.884004)"/>
<use data-text="5" xlink:href="#font_4_56" transform="matrix(6.5,0,0,-6.5,200.66547,45.884004)"/>
<use data-text="0" xlink:href="#font_4_121" transform="matrix(6.5,0,0,-6.5,216.90897,45.884004)"/>
<use data-text="." xlink:href="#font_4_88" transform="matrix(6.5,0,0,-6.5,220.60746,45.884004)"/>
<use data-text="8" xlink:href="#font_4_51" transform="matrix(6.5,0,0,-6.5,222.70694,45.884004)"/>
<use data-text="5" xlink:href="#font_4_56" transform="matrix(6.5,0,0,-6.5,226.40543,45.884004)"/>
<use data-text="4" xlink:href="#font_4_57" transform="matrix(6.5,0,0,-6.5,230.10391,45.884004)"/>
<use data-text="5" xlink:href="#font_4_56" transform="matrix(6.5,0,0,-6.5,233.8024,45.884004)"/>
<use data-text="0" xlink:href="#font_4_121" transform="matrix(6.5,0,0,-6.5,250.0459,45.884004)"/>
<use data-text="." xlink:href="#font_4_88" transform="matrix(6.5,0,0,-6.5,253.74439,45.884004)"/>
<use data-text="8" xlink:href="#font_4_51" transform="matrix(6.5,0,0,-6.5,255.84387,45.884004)"/>
<use data-text="4" xlink:href="#font_4_57" transform="matrix(6.5,0,0,-6.5,259.54237,45.884004)"/>
<use data-text="5" xlink:href="#font_4_56" transform="matrix(6.5,0,0,-6.5,263.24085,45.884004)"/>
<use data-text="2" xlink:href="#font_4_107" transform="matrix(6.5,0,0,-6.5,266.93934,45.884004)"/>
<use data-text="D" xlink:href="#font_4_46" transform="matrix(6.5,0,0,-6.5,10.233994,55.415)"/>
<use data-text="y" xlink:href="#font_4_118" transform="matrix(6.5,0,0,-6.5,15.82399,55.415)"/>
<use data-text="n" xlink:href="#font_4_77" transform="matrix(6.5,0,0,-6.5,19.723992,55.415)"/>
<use data-text="a" xlink:href="#font_4_28" transform="matrix(6.5,0,0,-6.5,23.825493,55.415)"/>
<use data-text="m" xlink:href="#font_4_75" transform="matrix(6.5,0,0,-6.5,27.523995,55.415)"/>
<use data-text="i" xlink:href="#font_4_66" transform="matrix(6.5,0,0,-6.5,33.627496,55.415)"/>
<use data-text="c" xlink:href="#font_4_43" transform="matrix(6.5,0,0,-6.5,35.726999,55.415)"/>
<use data-text="A" xlink:href="#font_4_27" transform="matrix(6.5,0,0,-6.5,41.5315,55.415)"/>
<use data-text="t" xlink:href="#font_4_105" transform="matrix(6.5,0,0,-6.5,46.815996,55.415)"/>
<use data-text="t" xlink:href="#font_4_105" transform="matrix(6.5,0,0,-6.5,49.714998,55.415)"/>
<use data-text="e" xlink:href="#font_4_50" transform="matrix(6.5,0,0,-6.5,52.614,55.415)"/>
<use data-text="n" xlink:href="#font_4_77" transform="matrix(6.5,0,0,-6.5,55.916,55.415)"/>
<use data-text="t" xlink:href="#font_4_105" transform="matrix(6.5,0,0,-6.5,59.815996,55.415)"/>
<use data-text="i" xlink:href="#font_4_66" transform="matrix(6.5,0,0,-6.5,62.714998,55.415)"/>
<use data-text="o" xlink:href="#font_4_81" transform="matrix(6.5,0,0,-6.5,64.8145,55.415)"/>
<use data-text="n" xlink:href="#font_4_77" transform="matrix(6.5,0,0,-6.5,68.513,55.415)"/>
<use data-text="0" xlink:href="#font_4_121" transform="matrix(6.5,0,0,-6.5,84.36,55.415)"/>
<use data-text="." xlink:href="#font_4_88" transform="matrix(6.5,0,0,-6.5,88.0585,55.415)"/>
<use data-text="8" xlink:href="#font_4_51" transform="matrix(6.5,0,0,-6.5,90.158008,55.415)"/>
<use data-text="2" xlink:href="#font_4_107" transform="matrix(6.5,0,0,-6.5,93.85651,55.415)"/>
<use data-text="7" xlink:href="#font_4_100" transform="matrix(6.5,0,0,-6.5,97.55501,55.415)"/>
<use data-text="4" xlink:href="#font_4_57" transform="matrix(6.5,0,0,-6.5,101.25351,55.415)"/>
<use data-text="0" xlink:href="#font_4_121" transform="matrix(6.5,0,0,-6.5,117.49701,55.415)"/>
<use data-text="." xlink:href="#font_4_88" transform="matrix(6.5,0,0,-6.5,121.19551,55.415)"/>
<use data-text="7" xlink:href="#font_4_100" transform="matrix(6.5,0,0,-6.5,123.29501,55.415)"/>
<use data-text="6" xlink:href="#font_4_101" transform="matrix(6.5,0,0,-6.5,126.993518,55.415)"/>
<use data-text="7" xlink:href="#font_4_100" transform="matrix(6.5,0,0,-6.5,130.69202,55.415)"/>
<use data-text="9" xlink:href="#font_4_78" transform="matrix(6.5,0,0,-6.5,134.39052,55.415)"/>
<use data-text="0" xlink:href="#font_4_121" transform="matrix(6.5,0,0,-6.5,150.63402,55.415)"/>
<use data-text="." xlink:href="#font_4_88" transform="matrix(6.5,0,0,-6.5,154.33252,55.415)"/>
<use data-text="9" xlink:href="#font_4_78" transform="matrix(6.5,0,0,-6.5,156.43202,55.415)"/>
<use data-text="8" xlink:href="#font_4_51" transform="matrix(6.5,0,0,-6.5,160.13053,55.415)"/>
<use data-text="6" xlink:href="#font_4_101" transform="matrix(6.5,0,0,-6.5,163.82903,55.415)"/>
<use data-text="4" xlink:href="#font_4_57" transform="matrix(6.5,0,0,-6.5,167.52753,55.415)"/>
<use data-text="0" xlink:href="#font_4_121" transform="matrix(6.5,0,0,-6.5,183.77103,55.415)"/>
<use data-text="." xlink:href="#font_4_88" transform="matrix(6.5,0,0,-6.5,187.46952,55.415)"/>
<use data-text="9" xlink:href="#font_4_78" transform="matrix(6.5,0,0,-6.5,189.569,55.415)"/>
<use data-text="8" xlink:href="#font_4_51" transform="matrix(6.5,0,0,-6.5,193.26749,55.415)"/>
<use data-text="7" xlink:href="#font_4_100" transform="matrix(6.5,0,0,-6.5,196.96598,55.415)"/>
<use data-text="1" xlink:href="#font_4_82" transform="matrix(6.5,0,0,-6.5,200.66446,55.415)"/>
<use data-text="0" xlink:href="#font_4_121" transform="matrix(6.5,0,0,-6.5,216.90796,55.415)"/>
<use data-text="." xlink:href="#font_4_88" transform="matrix(6.5,0,0,-6.5,220.60645,55.415)"/>
<use data-text="8" xlink:href="#font_4_51" transform="matrix(6.5,0,0,-6.5,222.70594,55.415)"/>
<use data-text="3" xlink:href="#font_4_106" transform="matrix(6.5,0,0,-6.5,226.40442,55.415)"/>
<use data-text="8" xlink:href="#font_4_51" transform="matrix(6.5,0,0,-6.5,230.1029,55.415)"/>
<use data-text="7" xlink:href="#font_4_100" transform="matrix(6.5,0,0,-6.5,233.80139,55.415)"/>
<use data-text="0" xlink:href="#font_4_121" transform="matrix(6.5,0,0,-6.5,250.05139,55.415)"/>
<use data-text="." xlink:href="#font_4_88" transform="matrix(6.5,0,0,-6.5,253.74988,55.415)"/>
<use data-text="8" xlink:href="#font_4_51" transform="matrix(6.5,0,0,-6.5,255.84937,55.415)"/>
<use data-text="2" xlink:href="#font_4_107" transform="matrix(6.5,0,0,-6.5,259.54786,55.415)"/>
<use data-text="9" xlink:href="#font_4_78" transform="matrix(6.5,0,0,-6.5,263.24635,55.415)"/>
<use data-text="1" xlink:href="#font_4_82" transform="matrix(6.5,0,0,-6.5,266.94483,55.415)"/>
<use data-text="O" xlink:href="#font_4_80" transform="matrix(6.5,0,0,-6.5,10.233994,64.947)"/>
<use data-text="n" xlink:href="#font_4_77" transform="matrix(6.5,0,0,-6.5,15.934494,64.947)"/>
<use data-text="l" xlink:href="#font_4_72" transform="matrix(6.5,0,0,-6.5,20.035996,64.947)"/>
<use data-text="y" xlink:href="#font_4_118" transform="matrix(6.5,0,0,-6.5,22.135499,64.947)"/>
<use data-text="M" xlink:href="#font_4_74" transform="matrix(6.5,0,0,-6.5,28.538002,64.947)"/>
<use data-text="a" xlink:href="#font_4_28" transform="matrix(6.5,0,0,-6.5,35.22,64.947)"/>
<use data-text="x" xlink:href="#font_4_116" transform="matrix(6.5,0,0,-6.5,38.918504,64.947)"/>
<use data-text="-" xlink:href="#font_4_64" transform="matrix(6.5,0,0,-6.5,42.818506,64.947)"/>
<use data-text="P" xlink:href="#font_4_83" transform="matrix(6.5,0,0,-6.5,45.321,64.947)"/>
<use data-text="o" xlink:href="#font_4_81" transform="matrix(6.5,0,0,-6.5,50.117998,64.947)"/>
<use data-text="o" xlink:href="#font_4_81" transform="matrix(6.5,0,0,-6.5,54.011507,64.947)"/>
<use data-text="l" xlink:href="#font_4_72" transform="matrix(6.5,0,0,-6.5,57.710008,64.947)"/>
<use data-text="i" xlink:href="#font_4_66" transform="matrix(6.5,0,0,-6.5,59.80951,64.947)"/>
<use data-text="n" xlink:href="#font_4_77" transform="matrix(6.5,0,0,-6.5,61.90901,64.947)"/>
<use data-text="g" xlink:href="#font_4_59" transform="matrix(6.5,0,0,-6.5,66.01051,64.947)"/>
<use data-text="0" xlink:href="#font_4_121" transform="matrix(6.5,0,0,-6.5,84.360019,64.947)"/>
<use data-text="." xlink:href="#font_4_88" transform="matrix(6.5,0,0,-6.5,88.05852,64.947)"/>
<use data-text="7" xlink:href="#font_4_100" transform="matrix(6.5,0,0,-6.5,90.15802,64.947)"/>
<use data-text="5" xlink:href="#font_4_56" transform="matrix(6.5,0,0,-6.5,93.85652,64.947)"/>
<use data-text="0" xlink:href="#font_4_121" transform="matrix(6.5,0,0,-6.5,97.55502,64.947)"/>
<use data-text="6" xlink:href="#font_4_101" transform="matrix(6.5,0,0,-6.5,101.253528,64.947)"/>
<use data-text="0" xlink:href="#font_4_121" transform="matrix(6.5,0,0,-6.5,117.497028,64.947)"/>
<use data-text="." xlink:href="#font_4_88" transform="matrix(6.5,0,0,-6.5,121.195529,64.947)"/>
<use data-text="6" xlink:href="#font_4_101" transform="matrix(6.5,0,0,-6.5,123.29503,64.947)"/>
<use data-text="6" xlink:href="#font_4_101" transform="matrix(6.5,0,0,-6.5,126.99353,64.947)"/>
<use data-text="6" xlink:href="#font_4_101" transform="matrix(6.5,0,0,-6.5,130.69203,64.947)"/>
<use data-text="4" xlink:href="#font_4_57" transform="matrix(6.5,0,0,-6.5,134.39054,64.947)"/>
<use data-text="1" xlink:href="#font_5_82" transform="matrix(6.5,0,0,-6.5,149.23999,64.947)"/>
<use data-text="." xlink:href="#font_5_88" transform="matrix(6.5,0,0,-6.5,153.4455,64.947)"/>
<use data-text="0" xlink:href="#font_5_121" transform="matrix(6.5,0,0,-6.5,155.805,64.947)"/>
<use data-text="0" xlink:href="#font_5_121" transform="matrix(6.5,0,0,-6.5,160.0105,64.947)"/>
<use data-text="0" xlink:href="#font_5_121" transform="matrix(6.5,0,0,-6.5,164.216,64.947)"/>
<use data-text="0" xlink:href="#font_5_121" transform="matrix(6.5,0,0,-6.5,168.42151,64.947)"/>
<use data-text="1" xlink:href="#font_5_82" transform="matrix(6.5,0,0,-6.5,182.37702,64.947)"/>
<use data-text="." xlink:href="#font_5_88" transform="matrix(6.5,0,0,-6.5,186.58252,64.947)"/>
<use data-text="0" xlink:href="#font_5_121" transform="matrix(6.5,0,0,-6.5,188.94202,64.947)"/>
<use data-text="0" xlink:href="#font_5_121" transform="matrix(6.5,0,0,-6.5,193.14752,64.947)"/>
<use data-text="0" xlink:href="#font_5_121" transform="matrix(6.5,0,0,-6.5,197.35303,64.947)"/>
<use data-text="0" xlink:href="#font_5_121" transform="matrix(6.5,0,0,-6.5,201.55854,64.947)"/>
<use data-text="0" xlink:href="#font_4_121" transform="matrix(6.5,0,0,-6.5,216.914,64.947)"/>
<use data-text="." xlink:href="#font_4_88" transform="matrix(6.5,0,0,-6.5,220.61249,64.947)"/>
<use data-text="8" xlink:href="#font_4_51" transform="matrix(6.5,0,0,-6.5,222.71198,64.947)"/>
<use data-text="4" xlink:href="#font_4_57" transform="matrix(6.5,0,0,-6.5,226.41046,64.947)"/>
<use data-text="6" xlink:href="#font_4_101" transform="matrix(6.5,0,0,-6.5,230.10895,64.947)"/>
<use data-text="8" xlink:href="#font_4_51" transform="matrix(6.5,0,0,-6.5,233.80744,64.947)"/>
<use data-text="0" xlink:href="#font_4_121" transform="matrix(6.5,0,0,-6.5,250.05094,64.947)"/>
<use data-text="." xlink:href="#font_4_88" transform="matrix(6.5,0,0,-6.5,253.74942,64.947)"/>
<use data-text="8" xlink:href="#font_4_51" transform="matrix(6.5,0,0,-6.5,255.8489,64.947)"/>
<use data-text="4" xlink:href="#font_4_57" transform="matrix(6.5,0,0,-6.5,259.5474,64.947)"/>
<use data-text="9" xlink:href="#font_4_78" transform="matrix(6.5,0,0,-6.5,263.24589,64.947)"/>
<use data-text="1" xlink:href="#font_4_82" transform="matrix(6.5,0,0,-6.5,266.94438,64.947)"/>
<use data-text="O" xlink:href="#font_4_80" transform="matrix(6.5,0,0,-6.5,10.234009,74.479)"/>
<use data-text="n" xlink:href="#font_4_77" transform="matrix(6.5,0,0,-6.5,15.934509,74.479)"/>
<use data-text="l" xlink:href="#font_4_72" transform="matrix(6.5,0,0,-6.5,20.03601,74.479)"/>
<use data-text="y" xlink:href="#font_4_118" transform="matrix(6.5,0,0,-6.5,22.135514,74.479)"/>
<use data-text="M" xlink:href="#font_4_74" transform="matrix(6.5,0,0,-6.5,28.538018,74.479)"/>
<use data-text="e" xlink:href="#font_4_50" transform="matrix(6.5,0,0,-6.5,35.220018,74.479)"/>
<use data-text="a" xlink:href="#font_4_28" transform="matrix(6.5,0,0,-6.5,38.52202,74.479)"/>
<use data-text="n" xlink:href="#font_4_77" transform="matrix(6.5,0,0,-6.5,42.22052,74.479)"/>
<use data-text="-" xlink:href="#font_4_64" transform="matrix(6.5,0,0,-6.5,46.32202,74.479)"/>
<use data-text="P" xlink:href="#font_4_83" transform="matrix(6.5,0,0,-6.5,48.824525,74.479)"/>
<use data-text="o" xlink:href="#font_4_81" transform="matrix(6.5,0,0,-6.5,53.62152,74.479)"/>
<use data-text="o" xlink:href="#font_4_81" transform="matrix(6.5,0,0,-6.5,57.51503,74.479)"/>
<use data-text="l" xlink:href="#font_4_72" transform="matrix(6.5,0,0,-6.5,61.21353,74.479)"/>
<use data-text="i" xlink:href="#font_4_66" transform="matrix(6.5,0,0,-6.5,63.313035,74.479)"/>
<use data-text="n" xlink:href="#font_4_77" transform="matrix(6.5,0,0,-6.5,65.41254,74.479)"/>
<use data-text="g" xlink:href="#font_4_59" transform="matrix(6.5,0,0,-6.5,69.51404,74.479)"/>
<use data-text="0" xlink:href="#font_4_121" transform="matrix(6.5,0,0,-6.5,84.36005,74.479)"/>
<use data-text="." xlink:href="#font_4_88" transform="matrix(6.5,0,0,-6.5,88.05855,74.479)"/>
<use data-text="6" xlink:href="#font_4_101" transform="matrix(6.5,0,0,-6.5,90.15805,74.479)"/>
<use data-text="8" xlink:href="#font_4_51" transform="matrix(6.5,0,0,-6.5,93.85655,74.479)"/>
<use data-text="8" xlink:href="#font_4_51" transform="matrix(6.5,0,0,-6.5,97.55505,74.479)"/>
<use data-text="2" xlink:href="#font_4_107" transform="matrix(6.5,0,0,-6.5,101.253559,74.479)"/>
<use data-text="0" xlink:href="#font_4_121" transform="matrix(6.5,0,0,-6.5,117.497058,74.479)"/>
<use data-text="." xlink:href="#font_4_88" transform="matrix(6.5,0,0,-6.5,121.19556,74.479)"/>
<use data-text="6" xlink:href="#font_4_101" transform="matrix(6.5,0,0,-6.5,123.29506,74.479)"/>
<use data-text="1" xlink:href="#font_4_82" transform="matrix(6.5,0,0,-6.5,126.99356,74.479)"/>
<use data-text="0" xlink:href="#font_4_121" transform="matrix(6.5,0,0,-6.5,130.69207,74.479)"/>
<use data-text="1" xlink:href="#font_4_82" transform="matrix(6.5,0,0,-6.5,134.39057,74.479)"/>
<use data-text="0" xlink:href="#font_4_121" transform="matrix(6.5,0,0,-6.5,150.63407,74.479)"/>
<use data-text="." xlink:href="#font_4_88" transform="matrix(6.5,0,0,-6.5,154.33257,74.479)"/>
<use data-text="9" xlink:href="#font_4_78" transform="matrix(6.5,0,0,-6.5,156.43207,74.479)"/>
<use data-text="9" xlink:href="#font_4_78" transform="matrix(6.5,0,0,-6.5,160.13057,74.479)"/>
<use data-text="2" xlink:href="#font_4_107" transform="matrix(6.5,0,0,-6.5,163.82907,74.479)"/>
<use data-text="9" xlink:href="#font_4_78" transform="matrix(6.5,0,0,-6.5,167.52758,74.479)"/>
<use data-text="0" xlink:href="#font_4_121" transform="matrix(6.5,0,0,-6.5,183.77109,74.479)"/>
<use data-text="." xlink:href="#font_4_88" transform="matrix(6.5,0,0,-6.5,187.46958,74.479)"/>
<use data-text="9" xlink:href="#font_4_78" transform="matrix(6.5,0,0,-6.5,189.56906,74.479)"/>
<use data-text="9" xlink:href="#font_4_78" transform="matrix(6.5,0,0,-6.5,193.26755,74.479)"/>
<use data-text="2" xlink:href="#font_4_107" transform="matrix(6.5,0,0,-6.5,196.96604,74.479)"/>
<use data-text="5" xlink:href="#font_4_56" transform="matrix(6.5,0,0,-6.5,200.66452,74.479)"/>
<use data-text="0" xlink:href="#font_4_121" transform="matrix(6.5,0,0,-6.5,216.90802,74.479)"/>
<use data-text="." xlink:href="#font_4_88" transform="matrix(6.5,0,0,-6.5,220.6065,74.479)"/>
<use data-text="8" xlink:href="#font_4_51" transform="matrix(6.5,0,0,-6.5,222.706,74.479)"/>
<use data-text="5" xlink:href="#font_4_56" transform="matrix(6.5,0,0,-6.5,226.40448,74.479)"/>
<use data-text="5" xlink:href="#font_4_56" transform="matrix(6.5,0,0,-6.5,230.10297,74.479)"/>
<use data-text="8" xlink:href="#font_4_51" transform="matrix(6.5,0,0,-6.5,233.80146,74.479)"/>
<use data-text="0" xlink:href="#font_4_121" transform="matrix(6.5,0,0,-6.5,250.05146,74.479)"/>
<use data-text="." xlink:href="#font_4_88" transform="matrix(6.5,0,0,-6.5,253.74994,74.479)"/>
<use data-text="8" xlink:href="#font_4_51" transform="matrix(6.5,0,0,-6.5,255.84943,74.479)"/>
<use data-text="1" xlink:href="#font_4_82" transform="matrix(6.5,0,0,-6.5,259.5479,74.479)"/>
<use data-text="8" xlink:href="#font_4_51" transform="matrix(6.5,0,0,-6.5,263.2464,74.479)"/>
<use data-text="3" xlink:href="#font_4_106" transform="matrix(6.5,0,0,-6.5,266.9449,74.479)"/>
<use data-text="w" xlink:href="#font_4_114" transform="matrix(6.5,0,0,-6.5,10.234009,84.009998)"/>
<use data-text="/" xlink:href="#font_4_102" transform="matrix(6.5,0,0,-6.5,15.53801,84.009998)"/>
<use data-text="o" xlink:href="#font_4_81" transform="matrix(6.5,0,0,-6.5,19.236512,84.009998)"/>
<use data-text="S" xlink:href="#font_4_97" transform="matrix(6.5,0,0,-6.5,25.437516,84.009998)"/>
<use data-text="S" xlink:href="#font_4_97" transform="matrix(6.5,0,0,-6.5,29.539017,84.009998)"/>
<use data-text="L" xlink:href="#font_4_71" transform="matrix(6.5,0,0,-6.5,33.64052,84.009998)"/>
<use data-text="0" xlink:href="#font_4_121" transform="matrix(6.5,0,0,-6.5,84.36101,84.009998)"/>
<use data-text="." xlink:href="#font_4_88" transform="matrix(6.5,0,0,-6.5,88.05951,84.009998)"/>
<use data-text="8" xlink:href="#font_4_51" transform="matrix(6.5,0,0,-6.5,90.15901,84.009998)"/>
<use data-text="0" xlink:href="#font_4_121" transform="matrix(6.5,0,0,-6.5,93.85751,84.009998)"/>
<use data-text="2" xlink:href="#font_4_107" transform="matrix(6.5,0,0,-6.5,97.556018,84.009998)"/>
<use data-text="3" xlink:href="#font_4_106" transform="matrix(6.5,0,0,-6.5,101.25452,84.009998)"/>
<use data-text="0" xlink:href="#font_4_121" transform="matrix(6.5,0,0,-6.5,117.49802,84.009998)"/>
<use data-text="." xlink:href="#font_4_88" transform="matrix(6.5,0,0,-6.5,121.19652,84.009998)"/>
<use data-text="7" xlink:href="#font_4_100" transform="matrix(6.5,0,0,-6.5,123.29602,84.009998)"/>
<use data-text="1" xlink:href="#font_4_82" transform="matrix(6.5,0,0,-6.5,126.99452,84.009998)"/>
<use data-text="1" xlink:href="#font_4_82" transform="matrix(6.5,0,0,-6.5,130.69303,84.009998)"/>
<use data-text="9" xlink:href="#font_4_78" transform="matrix(6.5,0,0,-6.5,134.39153,84.009998)"/>
<use data-text="0" xlink:href="#font_4_121" transform="matrix(6.5,0,0,-6.5,150.63503,84.009998)"/>
<use data-text="." xlink:href="#font_4_88" transform="matrix(6.5,0,0,-6.5,154.33353,84.009998)"/>
<use data-text="9" xlink:href="#font_4_78" transform="matrix(6.5,0,0,-6.5,156.43303,84.009998)"/>
<use data-text="9" xlink:href="#font_4_78" transform="matrix(6.5,0,0,-6.5,160.13153,84.009998)"/>
<use data-text="9" xlink:href="#font_4_78" transform="matrix(6.5,0,0,-6.5,163.83003,84.009998)"/>
<use data-text="6" xlink:href="#font_4_101" transform="matrix(6.5,0,0,-6.5,167.52854,84.009998)"/>
<use data-text="0" xlink:href="#font_4_121" transform="matrix(6.5,0,0,-6.5,183.77204,84.009998)"/>
<use data-text="." xlink:href="#font_4_88" transform="matrix(6.5,0,0,-6.5,187.47052,84.009998)"/>
<use data-text="9" xlink:href="#font_4_78" transform="matrix(6.5,0,0,-6.5,189.57,84.009998)"/>
<use data-text="9" xlink:href="#font_4_78" transform="matrix(6.5,0,0,-6.5,193.2685,84.009998)"/>
<use data-text="9" xlink:href="#font_4_78" transform="matrix(6.5,0,0,-6.5,196.96698,84.009998)"/>
<use data-text="5" xlink:href="#font_4_56" transform="matrix(6.5,0,0,-6.5,200.66547,84.009998)"/>
<use data-text="0" xlink:href="#font_4_121" transform="matrix(6.5,0,0,-6.5,216.90897,84.009998)"/>
<use data-text="." xlink:href="#font_4_88" transform="matrix(6.5,0,0,-6.5,220.60746,84.009998)"/>
<use data-text="8" xlink:href="#font_4_51" transform="matrix(6.5,0,0,-6.5,222.70694,84.009998)"/>
<use data-text="2" xlink:href="#font_4_107" transform="matrix(6.5,0,0,-6.5,226.40543,84.009998)"/>
<use data-text="6" xlink:href="#font_4_101" transform="matrix(6.5,0,0,-6.5,230.10391,84.009998)"/>
<use data-text="4" xlink:href="#font_4_57" transform="matrix(6.5,0,0,-6.5,233.8024,84.009998)"/>
<use data-text="0" xlink:href="#font_4_121" transform="matrix(6.5,0,0,-6.5,250.0459,84.009998)"/>
<use data-text="." xlink:href="#font_4_88" transform="matrix(6.5,0,0,-6.5,253.74439,84.009998)"/>
<use data-text="8" xlink:href="#font_4_51" transform="matrix(6.5,0,0,-6.5,255.84387,84.009998)"/>
<use data-text="2" xlink:href="#font_4_107" transform="matrix(6.5,0,0,-6.5,259.54237,84.009998)"/>
<use data-text="2" xlink:href="#font_4_107" transform="matrix(6.5,0,0,-6.5,263.24085,84.009998)"/>
<use data-text="3" xlink:href="#font_4_106" transform="matrix(6.5,0,0,-6.5,266.93934,84.009998)"/>
<path transform="matrix(1,0,0,-1,-84.5,27)" stroke-width=".525" stroke-linecap="butt" stroke-miterlimit="10" stroke-linejoin="miter" fill="none" stroke="#000000" d="M90.749-61.942H360.526"/>
<use data-text="O" xlink:href="#font_4_80" transform="matrix(6.5,0,0,-6.5,10.234001,98.819)"/>
<use data-text="u" xlink:href="#font_4_109" transform="matrix(6.5,0,0,-6.5,15.934502,98.819)"/>
<use data-text="r" xlink:href="#font_4_96" transform="matrix(6.5,0,0,-6.5,20.036004,98.819)"/>
<use data-text="s" xlink:href="#font_4_98" transform="matrix(6.5,0,0,-6.5,22.935006,98.819)"/>
<use data-text="(" xlink:href="#font_4_85" transform="matrix(6.5,0,0,-6.5,28.382004,98.819)"/>
<use data-text="F" xlink:href="#font_4_54" transform="matrix(6.5,0,0,-6.5,31.281006,98.819)"/>
<use data-text="u" xlink:href="#font_4_109" transform="matrix(6.5,0,0,-6.5,35.480005,98.819)"/>
<use data-text="l" xlink:href="#font_4_72" transform="matrix(6.5,0,0,-6.5,39.581506,98.819)"/>
<use data-text="l" xlink:href="#font_4_72" transform="matrix(6.5,0,0,-6.5,41.681009,98.819)"/>
<use data-text=")" xlink:href="#font_4_86" transform="matrix(6.5,0,0,-6.5,43.780504,98.819)"/>
<use data-text="0" xlink:href="#font_5_121" transform="matrix(6.5,0,0,-6.5,82.964008,98.819)"/>
<use data-text="." xlink:href="#font_5_88" transform="matrix(6.5,0,0,-6.5,87.16951,98.819)"/>
<use data-text="8" xlink:href="#font_5_51" transform="matrix(6.5,0,0,-6.5,89.52901,98.819)"/>
<use data-text="3" xlink:href="#font_5_106" transform="matrix(6.5,0,0,-6.5,93.73451,98.819)"/>
<use data-text="7" xlink:href="#font_5_100" transform="matrix(6.5,0,0,-6.5,97.94002,98.819)"/>
<use data-text="6" xlink:href="#font_5_101" transform="matrix(6.5,0,0,-6.5,102.14552,98.819)"/>
<use data-text="0" xlink:href="#font_5_121" transform="matrix(6.5,0,0,-6.5,116.10103,98.819)"/>
<use data-text="." xlink:href="#font_5_88" transform="matrix(6.5,0,0,-6.5,120.30653,98.819)"/>
<use data-text="7" xlink:href="#font_5_100" transform="matrix(6.5,0,0,-6.5,122.66603,98.819)"/>
<use data-text="7" xlink:href="#font_5_100" transform="matrix(6.5,0,0,-6.5,126.87154,98.819)"/>
<use data-text="7" xlink:href="#font_5_100" transform="matrix(6.5,0,0,-6.5,131.07704,98.819)"/>
<use data-text="8" xlink:href="#font_5_51" transform="matrix(6.5,0,0,-6.5,135.28255,98.819)"/>
<use data-text="1" xlink:href="#font_5_82" transform="matrix(6.5,0,0,-6.5,149.23805,98.819)"/>
<use data-text="." xlink:href="#font_5_88" transform="matrix(6.5,0,0,-6.5,153.44356,98.819)"/>
<use data-text="0" xlink:href="#font_5_121" transform="matrix(6.5,0,0,-6.5,155.80306,98.819)"/>
<use data-text="0" xlink:href="#font_5_121" transform="matrix(6.5,0,0,-6.5,160.00856,98.819)"/>
<use data-text="0" xlink:href="#font_5_121" transform="matrix(6.5,0,0,-6.5,164.21407,98.819)"/>
<use data-text="0" xlink:href="#font_5_121" transform="matrix(6.5,0,0,-6.5,168.41957,98.819)"/>
<use data-text="1" xlink:href="#font_5_82" transform="matrix(6.5,0,0,-6.5,182.37506,98.819)"/>
<use data-text="." xlink:href="#font_5_88" transform="matrix(6.5,0,0,-6.5,186.58057,98.819)"/>
<use data-text="0" xlink:href="#font_5_121" transform="matrix(6.5,0,0,-6.5,188.94007,98.819)"/>
<use data-text="0" xlink:href="#font_5_121" transform="matrix(6.5,0,0,-6.5,193.14557,98.819)"/>
<use data-text="0" xlink:href="#font_5_121" transform="matrix(6.5,0,0,-6.5,197.35108,98.819)"/>
<use data-text="0" xlink:href="#font_5_121" transform="matrix(6.5,0,0,-6.5,201.55658,98.819)"/>
<use data-text="0" xlink:href="#font_5_121" transform="matrix(6.5,0,0,-6.5,215.51209,98.819)"/>
<use data-text="." xlink:href="#font_5_88" transform="matrix(6.5,0,0,-6.5,219.71759,98.819)"/>
<use data-text="8" xlink:href="#font_5_51" transform="matrix(6.5,0,0,-6.5,222.07709,98.819)"/>
<use data-text="6" xlink:href="#font_5_101" transform="matrix(6.5,0,0,-6.5,226.2826,98.819)"/>
<use data-text="5" xlink:href="#font_5_56" transform="matrix(6.5,0,0,-6.5,230.4881,98.819)"/>
<use data-text="0" xlink:href="#font_5_121" transform="matrix(6.5,0,0,-6.5,234.6936,98.819)"/>
<use data-text="0" xlink:href="#font_5_121" transform="matrix(6.5,0,0,-6.5,248.64911,98.819)"/>
<use data-text="." xlink:href="#font_5_88" transform="matrix(6.5,0,0,-6.5,252.85462,98.819)"/>
<use data-text="8" xlink:href="#font_5_51" transform="matrix(6.5,0,0,-6.5,255.21411,98.819)"/>
<use data-text="5" xlink:href="#font_5_56" transform="matrix(6.5,0,0,-6.5,259.41963,98.819)"/>
<use data-text="2" xlink:href="#font_5_107" transform="matrix(6.5,0,0,-6.5,263.62513,98.819)"/>
<use data-text="6" xlink:href="#font_5_101" transform="matrix(6.5,0,0,-6.5,267.83064,98.819)"/>
<path transform="matrix(1,0,0,-1,-84.5,27)" stroke-width=".84" stroke-linecap="butt" stroke-miterlimit="10" stroke-linejoin="miter" fill="none" stroke="#000000" d="M90.749-76.908H360.526"/>
</g>
</g>
</svg>
