<?xml version="1.0" encoding="utf-8" standalone="no"?>
<!DOCTYPE svg PUBLIC "-//W3C//DTD SVG 1.1//EN"
  "http://www.w3.org/Graphics/SVG/1.1/DTD/svg11.dtd">
<svg xmlns:xlink="http://www.w3.org/1999/xlink" width="1111.754375pt" height="305.349141pt" viewBox="0 0 1111.754375 305.349141" xmlns="http://www.w3.org/2000/svg" version="1.1">
 <metadata>
  <rdf:RDF xmlns:dc="http://purl.org/dc/elements/1.1/" xmlns:cc="http://creativecommons.org/ns#" xmlns:rdf="http://www.w3.org/1999/02/22-rdf-syntax-ns#">
   <cc:Work>
    <dc:type rdf:resource="http://purl.org/dc/dcmitype/StillImage"/>
    <dc:date>2026-07-04T05:48:16.088456</dc:date>
    <dc:format>image/svg+xml</dc:format>
    <dc:creator>
     <cc:Agent>
      <dc:title>Matplotlib v3.10.9, https://matplotlib.org/</dc:title>
     </cc:Agent>
    </dc:creator>
   </cc:Work>
  </rdf:RDF>
 </metadata>
 <defs>
  <style type="text/css">*{stroke-linejoin: round; stroke-linecap: butt}</style>
 </defs>
 <g id="figure_1">
  <g id="patch_1">
   <path d="M 0 305.349141
L 1111.754375 305.349141
L 1111.754375 0
L 0 0
z
" style="fill: #ffffff"/>
  </g>
  <g id="axes_1">
   <g id="patch_2">
    <path d="M 46.964375 263.474297
L 360.932664 263.474297
L 360.932664 11.136797
L 46.964375 11.136797
z
" style="fill: #ffffff"/>
   </g>
   <g id="matplotlib.axis_1">
    <g id="xtick_1">
     <g id="line2d_1">
      <path d="M 52.408061 263.474297
L 52.408061 11.136797
" clip-path="url(#p3841f55e40)" style="fill: none; stroke: #cccccc; stroke-linecap: round"/>
     </g>
     <g id="text_1">
      <!-- 0.0000 -->
      <g style="fill: #262626" transform="translate(35.587514 280.847891) scale(0.11 -0.11)">
       <defs>
        <path id="ArialMT-30" d="M 266 2259
Q 266 3072 433 3567
Q 600 4063 929 4331
Q 1259 4600 1759 4600
Q 2128 4600 2406 4451
Q 2684 4303 2865 4023
Q 3047 3744 3150 3342
Q 3253 2941 3253 2259
Q 3253 1453 3087 958
Q 2922 463 2592 192
Q 2263 -78 1759 -78
Q 1097 -78 719 397
Q 266 969 266 2259
z
M 844 2259
Q 844 1131 1108 757
Q 1372 384 1759 384
Q 2147 384 2411 759
Q 2675 1134 2675 2259
Q 2675 3391 2411 3762
Q 2147 4134 1753 4134
Q 1366 4134 1134 3806
Q 844 3388 844 2259
z
" transform="scale(0.015625)"/>
        <path id="ArialMT-2e" d="M 581 0
L 581 641
L 1222 641
L 1222 0
L 581 0
z
" transform="scale(0.015625)"/>
       </defs>
       <use xlink:href="#ArialMT-30"/>
       <use xlink:href="#ArialMT-2e" transform="translate(55.615234 0)"/>
       <use xlink:href="#ArialMT-30" transform="translate(83.398438 0)"/>
       <use xlink:href="#ArialMT-30" transform="translate(139.013672 0)"/>
       <use xlink:href="#ArialMT-30" transform="translate(194.628906 0)"/>
       <use xlink:href="#ArialMT-30" transform="translate(250.244141 0)"/>
      </g>
     </g>
    </g>
    <g id="xtick_2">
     <g id="line2d_2">
      <path d="M 111.258725 263.474297
L 111.258725 11.136797
" clip-path="url(#p3841f55e40)" style="fill: none; stroke: #cccccc; stroke-linecap: round"/>
     </g>
     <g id="text_2">
      <!-- 0.0002 -->
      <g style="fill: #262626" transform="translate(94.438178 280.847891) scale(0.11 -0.11)">
       <defs>
        <path id="ArialMT-32" d="M 3222 541
L 3222 0
L 194 0
Q 188 203 259 391
Q 375 700 629 1000
Q 884 1300 1366 1694
Q 2113 2306 2375 2664
Q 2638 3022 2638 3341
Q 2638 3675 2398 3904
Q 2159 4134 1775 4134
Q 1369 4134 1125 3890
Q 881 3647 878 3216
L 300 3275
Q 359 3922 746 4261
Q 1134 4600 1788 4600
Q 2447 4600 2831 4234
Q 3216 3869 3216 3328
Q 3216 3053 3103 2787
Q 2991 2522 2730 2228
Q 2469 1934 1863 1422
Q 1356 997 1212 845
Q 1069 694 975 541
L 3222 541
z
" transform="scale(0.015625)"/>
       </defs>
       <use xlink:href="#ArialMT-30"/>
       <use xlink:href="#ArialMT-2e" transform="translate(55.615234 0)"/>
       <use xlink:href="#ArialMT-30" transform="translate(83.398438 0)"/>
       <use xlink:href="#ArialMT-30" transform="translate(139.013672 0)"/>
       <use xlink:href="#ArialMT-30" transform="translate(194.628906 0)"/>
       <use xlink:href="#ArialMT-32" transform="translate(250.244141 0)"/>
      </g>
     </g>
    </g>
    <g id="xtick_3">
     <g id="line2d_3">
      <path d="M 170.109388 263.474297
L 170.109388 11.136797
" clip-path="url(#p3841f55e40)" style="fill: none; stroke: #cccccc; stroke-linecap: round"/>
     </g>
     <g id="text_3">
      <!-- 0.0004 -->
      <g style="fill: #262626" transform="translate(153.288841 280.847891) scale(0.11 -0.11)">
       <defs>
        <path id="ArialMT-34" d="M 2069 0
L 2069 1097
L 81 1097
L 81 1613
L 2172 4581
L 2631 4581
L 2631 1613
L 3250 1613
L 3250 1097
L 2631 1097
L 2631 0
L 2069 0
z
M 2069 1613
L 2069 3678
L 634 1613
L 2069 1613
z
" transform="scale(0.015625)"/>
       </defs>
       <use xlink:href="#ArialMT-30"/>
       <use xlink:href="#ArialMT-2e" transform="translate(55.615234 0)"/>
       <use xlink:href="#ArialMT-30" transform="translate(83.398438 0)"/>
       <use xlink:href="#ArialMT-30" transform="translate(139.013672 0)"/>
       <use xlink:href="#ArialMT-30" transform="translate(194.628906 0)"/>
       <use xlink:href="#ArialMT-34" transform="translate(250.244141 0)"/>
      </g>
     </g>
    </g>
    <g id="xtick_4">
     <g id="line2d_4">
      <path d="M 228.960051 263.474297
L 228.960051 11.136797
" clip-path="url(#p3841f55e40)" style="fill: none; stroke: #cccccc; stroke-linecap: round"/>
     </g>
     <g id="text_4">
      <!-- 0.0006 -->
      <g style="fill: #262626" transform="translate(212.139504 280.847891) scale(0.11 -0.11)">
       <defs>
        <path id="ArialMT-36" d="M 3184 3459
L 2625 3416
Q 2550 3747 2413 3897
Q 2184 4138 1850 4138
Q 1581 4138 1378 3988
Q 1113 3794 959 3422
Q 806 3050 800 2363
Q 1003 2672 1297 2822
Q 1591 2972 1913 2972
Q 2475 2972 2870 2558
Q 3266 2144 3266 1488
Q 3266 1056 3080 686
Q 2894 316 2569 119
Q 2244 -78 1831 -78
Q 1128 -78 684 439
Q 241 956 241 2144
Q 241 3472 731 4075
Q 1159 4600 1884 4600
Q 2425 4600 2770 4297
Q 3116 3994 3184 3459
z
M 888 1484
Q 888 1194 1011 928
Q 1134 663 1356 523
Q 1578 384 1822 384
Q 2178 384 2434 671
Q 2691 959 2691 1453
Q 2691 1928 2437 2201
Q 2184 2475 1800 2475
Q 1419 2475 1153 2201
Q 888 1928 888 1484
z
" transform="scale(0.015625)"/>
       </defs>
       <use xlink:href="#ArialMT-30"/>
       <use xlink:href="#ArialMT-2e" transform="translate(55.615234 0)"/>
       <use xlink:href="#ArialMT-30" transform="translate(83.398438 0)"/>
       <use xlink:href="#ArialMT-30" transform="translate(139.013672 0)"/>
       <use xlink:href="#ArialMT-30" transform="translate(194.628906 0)"/>
       <use xlink:href="#ArialMT-36" transform="translate(250.244141 0)"/>
      </g>
     </g>
    </g>
    <g id="xtick_5">
     <g id="line2d_5">
      <path d="M 287.810715 263.474297
L 287.810715 11.136797
" clip-path="url(#p3841f55e40)" style="fill: none; stroke: #cccccc; stroke-linecap: round"/>
     </g>
     <g id="text_5">
      <!-- 0.0008 -->
      <g style="fill: #262626" transform="translate(270.990168 280.847891) scale(0.11 -0.11)">
       <defs>
        <path id="ArialMT-38" d="M 1131 2484
Q 781 2613 612 2850
Q 444 3088 444 3419
Q 444 3919 803 4259
Q 1163 4600 1759 4600
Q 2359 4600 2725 4251
Q 3091 3903 3091 3403
Q 3091 3084 2923 2848
Q 2756 2613 2416 2484
Q 2838 2347 3058 2040
Q 3278 1734 3278 1309
Q 3278 722 2862 322
Q 2447 -78 1769 -78
Q 1091 -78 675 323
Q 259 725 259 1325
Q 259 1772 486 2073
Q 713 2375 1131 2484
z
M 1019 3438
Q 1019 3113 1228 2906
Q 1438 2700 1772 2700
Q 2097 2700 2305 2904
Q 2513 3109 2513 3406
Q 2513 3716 2298 3927
Q 2084 4138 1766 4138
Q 1444 4138 1231 3931
Q 1019 3725 1019 3438
z
M 838 1322
Q 838 1081 952 856
Q 1066 631 1291 507
Q 1516 384 1775 384
Q 2178 384 2440 643
Q 2703 903 2703 1303
Q 2703 1709 2433 1975
Q 2163 2241 1756 2241
Q 1359 2241 1098 1978
Q 838 1716 838 1322
z
" transform="scale(0.015625)"/>
       </defs>
       <use xlink:href="#ArialMT-30"/>
       <use xlink:href="#ArialMT-2e" transform="translate(55.615234 0)"/>
       <use xlink:href="#ArialMT-30" transform="translate(83.398438 0)"/>
       <use xlink:href="#ArialMT-30" transform="translate(139.013672 0)"/>
       <use xlink:href="#ArialMT-30" transform="translate(194.628906 0)"/>
       <use xlink:href="#ArialMT-38" transform="translate(250.244141 0)"/>
      </g>
     </g>
    </g>
    <g id="xtick_6">
     <g id="line2d_6">
      <path d="M 346.661378 263.474297
L 346.661378 11.136797
" clip-path="url(#p3841f55e40)" style="fill: none; stroke: #cccccc; stroke-linecap: round"/>
     </g>
     <g id="text_6">
      <!-- 0.0010 -->
      <g style="fill: #262626" transform="translate(329.840831 280.847891) scale(0.11 -0.11)">
       <defs>
        <path id="ArialMT-31" d="M 2384 0
L 1822 0
L 1822 3584
Q 1619 3391 1289 3197
Q 959 3003 697 2906
L 697 3450
Q 1169 3672 1522 3987
Q 1875 4303 2022 4600
L 2384 4600
L 2384 0
z
" transform="scale(0.015625)"/>
       </defs>
       <use xlink:href="#ArialMT-30"/>
       <use xlink:href="#ArialMT-2e" transform="translate(55.615234 0)"/>
       <use xlink:href="#ArialMT-30" transform="translate(83.398438 0)"/>
       <use xlink:href="#ArialMT-30" transform="translate(139.013672 0)"/>
       <use xlink:href="#ArialMT-31" transform="translate(194.628906 0)"/>
       <use xlink:href="#ArialMT-30" transform="translate(250.244141 0)"/>
      </g>
     </g>
    </g>
    <g id="text_7">
     <!-- training.learning_rate -->
     <g style="fill: #262626" transform="translate(147.583207 295.623516) scale(0.12 -0.12)">
      <defs>
       <path id="ArialMT-74" d="M 1650 503
L 1731 6
Q 1494 -44 1306 -44
Q 1000 -44 831 53
Q 663 150 594 308
Q 525 466 525 972
L 525 2881
L 113 2881
L 113 3319
L 525 3319
L 525 4141
L 1084 4478
L 1084 3319
L 1650 3319
L 1650 2881
L 1084 2881
L 1084 941
Q 1084 700 1114 631
Q 1144 563 1211 522
Q 1278 481 1403 481
Q 1497 481 1650 503
z
" transform="scale(0.015625)"/>
       <path id="ArialMT-72" d="M 416 0
L 416 3319
L 922 3319
L 922 2816
Q 1116 3169 1280 3281
Q 1444 3394 1641 3394
Q 1925 3394 2219 3213
L 2025 2691
Q 1819 2813 1613 2813
Q 1428 2813 1281 2702
Q 1134 2591 1072 2394
Q 978 2094 978 1738
L 978 0
L 416 0
z
" transform="scale(0.015625)"/>
       <path id="ArialMT-61" d="M 2588 409
Q 2275 144 1986 34
Q 1697 -75 1366 -75
Q 819 -75 525 192
Q 231 459 231 875
Q 231 1119 342 1320
Q 453 1522 633 1644
Q 813 1766 1038 1828
Q 1203 1872 1538 1913
Q 2219 1994 2541 2106
Q 2544 2222 2544 2253
Q 2544 2597 2384 2738
Q 2169 2928 1744 2928
Q 1347 2928 1158 2789
Q 969 2650 878 2297
L 328 2372
Q 403 2725 575 2942
Q 747 3159 1072 3276
Q 1397 3394 1825 3394
Q 2250 3394 2515 3294
Q 2781 3194 2906 3042
Q 3031 2891 3081 2659
Q 3109 2516 3109 2141
L 3109 1391
Q 3109 606 3145 398
Q 3181 191 3288 0
L 2700 0
Q 2613 175 2588 409
z
M 2541 1666
Q 2234 1541 1622 1453
Q 1275 1403 1131 1340
Q 988 1278 909 1158
Q 831 1038 831 891
Q 831 666 1001 516
Q 1172 366 1500 366
Q 1825 366 2078 508
Q 2331 650 2450 897
Q 2541 1088 2541 1459
L 2541 1666
z
" transform="scale(0.015625)"/>
       <path id="ArialMT-69" d="M 425 3934
L 425 4581
L 988 4581
L 988 3934
L 425 3934
z
M 425 0
L 425 3319
L 988 3319
L 988 0
L 425 0
z
" transform="scale(0.015625)"/>
       <path id="ArialMT-6e" d="M 422 0
L 422 3319
L 928 3319
L 928 2847
Q 1294 3394 1984 3394
Q 2284 3394 2536 3286
Q 2788 3178 2913 3003
Q 3038 2828 3088 2588
Q 3119 2431 3119 2041
L 3119 0
L 2556 0
L 2556 2019
Q 2556 2363 2490 2533
Q 2425 2703 2258 2804
Q 2091 2906 1866 2906
Q 1506 2906 1245 2678
Q 984 2450 984 1813
L 984 0
L 422 0
z
" transform="scale(0.015625)"/>
       <path id="ArialMT-67" d="M 319 -275
L 866 -356
Q 900 -609 1056 -725
Q 1266 -881 1628 -881
Q 2019 -881 2231 -725
Q 2444 -569 2519 -288
Q 2563 -116 2559 434
Q 2191 0 1641 0
Q 956 0 581 494
Q 206 988 206 1678
Q 206 2153 378 2554
Q 550 2956 876 3175
Q 1203 3394 1644 3394
Q 2231 3394 2613 2919
L 2613 3319
L 3131 3319
L 3131 450
Q 3131 -325 2973 -648
Q 2816 -972 2473 -1159
Q 2131 -1347 1631 -1347
Q 1038 -1347 672 -1080
Q 306 -813 319 -275
z
M 784 1719
Q 784 1066 1043 766
Q 1303 466 1694 466
Q 2081 466 2343 764
Q 2606 1063 2606 1700
Q 2606 2309 2336 2618
Q 2066 2928 1684 2928
Q 1309 2928 1046 2623
Q 784 2319 784 1719
z
" transform="scale(0.015625)"/>
       <path id="ArialMT-6c" d="M 409 0
L 409 4581
L 972 4581
L 972 0
L 409 0
z
" transform="scale(0.015625)"/>
       <path id="ArialMT-65" d="M 2694 1069
L 3275 997
Q 3138 488 2766 206
Q 2394 -75 1816 -75
Q 1088 -75 661 373
Q 234 822 234 1631
Q 234 2469 665 2931
Q 1097 3394 1784 3394
Q 2450 3394 2872 2941
Q 3294 2488 3294 1666
Q 3294 1616 3291 1516
L 816 1516
Q 847 969 1125 678
Q 1403 388 1819 388
Q 2128 388 2347 550
Q 2566 713 2694 1069
z
M 847 1978
L 2700 1978
Q 2663 2397 2488 2606
Q 2219 2931 1791 2931
Q 1403 2931 1139 2672
Q 875 2413 847 1978
z
" transform="scale(0.015625)"/>
       <path id="ArialMT-5f" d="M -97 -1272
L -97 -866
L 3631 -866
L 3631 -1272
L -97 -1272
z
" transform="scale(0.015625)"/>
      </defs>
      <use xlink:href="#ArialMT-74"/>
      <use xlink:href="#ArialMT-72" transform="translate(27.783203 0)"/>
      <use xlink:href="#ArialMT-61" transform="translate(61.083984 0)"/>
      <use xlink:href="#ArialMT-69" transform="translate(116.699219 0)"/>
      <use xlink:href="#ArialMT-6e" transform="translate(138.916016 0)"/>
      <use xlink:href="#ArialMT-69" transform="translate(194.53125 0)"/>
      <use xlink:href="#ArialMT-6e" transform="translate(216.748047 0)"/>
      <use xlink:href="#ArialMT-67" transform="translate(272.363281 0)"/>
      <use xlink:href="#ArialMT-2e" transform="translate(327.978516 0)"/>
      <use xlink:href="#ArialMT-6c" transform="translate(355.761719 0)"/>
      <use xlink:href="#ArialMT-65" transform="translate(377.978516 0)"/>
      <use xlink:href="#ArialMT-61" transform="translate(433.59375 0)"/>
      <use xlink:href="#ArialMT-72" transform="translate(489.208984 0)"/>
      <use xlink:href="#ArialMT-6e" transform="translate(522.509766 0)"/>
      <use xlink:href="#ArialMT-69" transform="translate(578.125 0)"/>
      <use xlink:href="#ArialMT-6e" transform="translate(600.341797 0)"/>
      <use xlink:href="#ArialMT-67" transform="translate(655.957031 0)"/>
      <use xlink:href="#ArialMT-5f" transform="translate(711.572266 0)"/>
      <use xlink:href="#ArialMT-72" transform="translate(767.1875 0)"/>
      <use xlink:href="#ArialMT-61" transform="translate(800.488281 0)"/>
      <use xlink:href="#ArialMT-74" transform="translate(856.103516 0)"/>
      <use xlink:href="#ArialMT-65" transform="translate(883.886719 0)"/>
     </g>
    </g>
   </g>
   <g id="matplotlib.axis_2">
    <g id="ytick_1">
     <g id="line2d_7">
      <path d="M 46.964375 263.474297
L 360.932664 263.474297
" clip-path="url(#p3841f55e40)" style="fill: none; stroke: #cccccc; stroke-linecap: round"/>
     </g>
     <g id="text_8">
      <!-- 0.0 -->
      <g style="fill: #262626" transform="translate(22.174375 267.411094) scale(0.11 -0.11)">
       <use xlink:href="#ArialMT-30"/>
       <use xlink:href="#ArialMT-2e" transform="translate(55.615234 0)"/>
       <use xlink:href="#ArialMT-30" transform="translate(83.398438 0)"/>
      </g>
     </g>
    </g>
    <g id="ytick_2">
     <g id="line2d_8">
      <path d="M 46.964375 213.006797
L 360.932664 213.006797
" clip-path="url(#p3841f55e40)" style="fill: none; stroke: #cccccc; stroke-linecap: round"/>
     </g>
     <g id="text_9">
      <!-- 0.2 -->
      <g style="fill: #262626" transform="translate(22.174375 216.943594) scale(0.11 -0.11)">
       <use xlink:href="#ArialMT-30"/>
       <use xlink:href="#ArialMT-2e" transform="translate(55.615234 0)"/>
       <use xlink:href="#ArialMT-32" transform="translate(83.398438 0)"/>
      </g>
     </g>
    </g>
    <g id="ytick_3">
     <g id="line2d_9">
      <path d="M 46.964375 162.539297
L 360.932664 162.539297
" clip-path="url(#p3841f55e40)" style="fill: none; stroke: #cccccc; stroke-linecap: round"/>
     </g>
     <g id="text_10">
      <!-- 0.4 -->
      <g style="fill: #262626" transform="translate(22.174375 166.476094) scale(0.11 -0.11)">
       <use xlink:href="#ArialMT-30"/>
       <use xlink:href="#ArialMT-2e" transform="translate(55.615234 0)"/>
       <use xlink:href="#ArialMT-34" transform="translate(83.398438 0)"/>
      </g>
     </g>
    </g>
    <g id="ytick_4">
     <g id="line2d_10">
      <path d="M 46.964375 112.071797
L 360.932664 112.071797
" clip-path="url(#p3841f55e40)" style="fill: none; stroke: #cccccc; stroke-linecap: round"/>
     </g>
     <g id="text_11">
      <!-- 0.6 -->
      <g style="fill: #262626" transform="translate(22.174375 116.008594) scale(0.11 -0.11)">
       <use xlink:href="#ArialMT-30"/>
       <use xlink:href="#ArialMT-2e" transform="translate(55.615234 0)"/>
       <use xlink:href="#ArialMT-36" transform="translate(83.398438 0)"/>
      </g>
     </g>
    </g>
    <g id="ytick_5">
     <g id="line2d_11">
      <path d="M 46.964375 61.604297
L 360.932664 61.604297
" clip-path="url(#p3841f55e40)" style="fill: none; stroke: #cccccc; stroke-linecap: round"/>
     </g>
     <g id="text_12">
      <!-- 0.8 -->
      <g style="fill: #262626" transform="translate(22.174375 65.541094) scale(0.11 -0.11)">
       <use xlink:href="#ArialMT-30"/>
       <use xlink:href="#ArialMT-2e" transform="translate(55.615234 0)"/>
       <use xlink:href="#ArialMT-38" transform="translate(83.398438 0)"/>
      </g>
     </g>
    </g>
    <g id="ytick_6">
     <g id="line2d_12">
      <path d="M 46.964375 11.136797
L 360.932664 11.136797
" clip-path="url(#p3841f55e40)" style="fill: none; stroke: #cccccc; stroke-linecap: round"/>
     </g>
     <g id="text_13">
      <!-- 1.0 -->
      <g style="fill: #262626" transform="translate(22.174375 15.073594) scale(0.11 -0.11)">
       <use xlink:href="#ArialMT-31"/>
       <use xlink:href="#ArialMT-2e" transform="translate(55.615234 0)"/>
       <use xlink:href="#ArialMT-30" transform="translate(83.398438 0)"/>
      </g>
     </g>
    </g>
    <g id="text_14">
     <!-- Validation score -->
     <g style="fill: #262626" transform="translate(15.789375 179.552109) rotate(-90) scale(0.12 -0.12)">
      <defs>
       <path id="ArialMT-56" d="M 1803 0
L 28 4581
L 684 4581
L 1875 1253
Q 2019 853 2116 503
Q 2222 878 2363 1253
L 3600 4581
L 4219 4581
L 2425 0
L 1803 0
z
" transform="scale(0.015625)"/>
       <path id="ArialMT-64" d="M 2575 0
L 2575 419
Q 2259 -75 1647 -75
Q 1250 -75 917 144
Q 584 363 401 755
Q 219 1147 219 1656
Q 219 2153 384 2558
Q 550 2963 881 3178
Q 1213 3394 1622 3394
Q 1922 3394 2156 3267
Q 2391 3141 2538 2938
L 2538 4581
L 3097 4581
L 3097 0
L 2575 0
z
M 797 1656
Q 797 1019 1065 703
Q 1334 388 1700 388
Q 2069 388 2326 689
Q 2584 991 2584 1609
Q 2584 2291 2321 2609
Q 2059 2928 1675 2928
Q 1300 2928 1048 2622
Q 797 2316 797 1656
z
" transform="scale(0.015625)"/>
       <path id="ArialMT-6f" d="M 213 1659
Q 213 2581 725 3025
Q 1153 3394 1769 3394
Q 2453 3394 2887 2945
Q 3322 2497 3322 1706
Q 3322 1066 3130 698
Q 2938 331 2570 128
Q 2203 -75 1769 -75
Q 1072 -75 642 372
Q 213 819 213 1659
z
M 791 1659
Q 791 1022 1069 705
Q 1347 388 1769 388
Q 2188 388 2466 706
Q 2744 1025 2744 1678
Q 2744 2294 2464 2611
Q 2184 2928 1769 2928
Q 1347 2928 1069 2612
Q 791 2297 791 1659
z
" transform="scale(0.015625)"/>
       <path id="ArialMT-20" transform="scale(0.015625)"/>
       <path id="ArialMT-73" d="M 197 991
L 753 1078
Q 800 744 1014 566
Q 1228 388 1613 388
Q 2000 388 2187 545
Q 2375 703 2375 916
Q 2375 1106 2209 1216
Q 2094 1291 1634 1406
Q 1016 1563 777 1677
Q 538 1791 414 1992
Q 291 2194 291 2438
Q 291 2659 392 2848
Q 494 3038 669 3163
Q 800 3259 1026 3326
Q 1253 3394 1513 3394
Q 1903 3394 2198 3281
Q 2494 3169 2634 2976
Q 2775 2784 2828 2463
L 2278 2388
Q 2241 2644 2061 2787
Q 1881 2931 1553 2931
Q 1166 2931 1000 2803
Q 834 2675 834 2503
Q 834 2394 903 2306
Q 972 2216 1119 2156
Q 1203 2125 1616 2013
Q 2213 1853 2448 1751
Q 2684 1650 2818 1456
Q 2953 1263 2953 975
Q 2953 694 2789 445
Q 2625 197 2315 61
Q 2006 -75 1616 -75
Q 969 -75 630 194
Q 291 463 197 991
z
" transform="scale(0.015625)"/>
       <path id="ArialMT-63" d="M 2588 1216
L 3141 1144
Q 3050 572 2676 248
Q 2303 -75 1759 -75
Q 1078 -75 664 370
Q 250 816 250 1647
Q 250 2184 428 2587
Q 606 2991 970 3192
Q 1334 3394 1763 3394
Q 2303 3394 2647 3120
Q 2991 2847 3088 2344
L 2541 2259
Q 2463 2594 2264 2762
Q 2066 2931 1784 2931
Q 1359 2931 1093 2626
Q 828 2322 828 1663
Q 828 994 1084 691
Q 1341 388 1753 388
Q 2084 388 2306 591
Q 2528 794 2588 1216
z
" transform="scale(0.015625)"/>
      </defs>
      <use xlink:href="#ArialMT-56"/>
      <use xlink:href="#ArialMT-61" transform="translate(59.324219 0)"/>
      <use xlink:href="#ArialMT-6c" transform="translate(114.939453 0)"/>
      <use xlink:href="#ArialMT-69" transform="translate(137.15625 0)"/>
      <use xlink:href="#ArialMT-64" transform="translate(159.373047 0)"/>
      <use xlink:href="#ArialMT-61" transform="translate(214.988281 0)"/>
      <use xlink:href="#ArialMT-74" transform="translate(270.603516 0)"/>
      <use xlink:href="#ArialMT-69" transform="translate(298.386719 0)"/>
      <use xlink:href="#ArialMT-6f" transform="translate(320.603516 0)"/>
      <use xlink:href="#ArialMT-6e" transform="translate(376.21875 0)"/>
      <use xlink:href="#ArialMT-20" transform="translate(431.833984 0)"/>
      <use xlink:href="#ArialMT-73" transform="translate(459.617188 0)"/>
      <use xlink:href="#ArialMT-63" transform="translate(509.617188 0)"/>
      <use xlink:href="#ArialMT-6f" transform="translate(559.617188 0)"/>
      <use xlink:href="#ArialMT-72" transform="translate(615.232422 0)"/>
      <use xlink:href="#ArialMT-65" transform="translate(648.533203 0)"/>
     </g>
    </g>
   </g>
   <g id="FillBetweenPolyCollection_1"/>
   <g id="FillBetweenPolyCollection_2"/>
   <g id="line2d_13">
    <path d="M 61.235661 69.877163
L 81.833393 62.689042
L 140.684056 61.612786
L 346.661378 60.919097
" clip-path="url(#p3841f55e40)" style="fill: none; stroke: #247ba0; stroke-width: 1.5; stroke-linecap: round"/>
    <defs>
     <path id="m564a5b726b" d="M 0 3
C 0.795609 3 1.55874 2.683901 2.12132 2.12132
C 2.683901 1.55874 3 0.795609 3 0
C 3 -0.795609 2.683901 -1.55874 2.12132 -2.12132
C 1.55874 -2.683901 0.795609 -3 0 -3
C -0.795609 -3 -1.55874 -2.683901 -2.12132 -2.12132
C -2.683901 -1.55874 -3 -0.795609 -3 0
C -3 0.795609 -2.683901 1.55874 -2.12132 2.12132
C -1.55874 2.683901 -0.795609 3 0 3
z
" style="stroke: #ffffff; stroke-width: 0.75"/>
    </defs>
    <g clip-path="url(#p3841f55e40)">
     <use xlink:href="#m564a5b726b" x="61.235661" y="69.877163" style="fill: #247ba0; stroke: #ffffff; stroke-width: 0.75"/>
     <use xlink:href="#m564a5b726b" x="81.833393" y="62.689042" style="fill: #247ba0; stroke: #ffffff; stroke-width: 0.75"/>
     <use xlink:href="#m564a5b726b" x="140.684056" y="61.612786" style="fill: #247ba0; stroke: #ffffff; stroke-width: 0.75"/>
     <use xlink:href="#m564a5b726b" x="346.661378" y="60.919097" style="fill: #247ba0; stroke: #ffffff; stroke-width: 0.75"/>
    </g>
   </g>
   <g id="line2d_14">
    <path d="M 61.235661 88.047196
L 81.833393 81.399165
L 140.684056 81.272206
L 346.661378 83.642232
" clip-path="url(#p3841f55e40)" style="fill: none; stroke: #f25f5c; stroke-width: 1.5; stroke-linecap: round"/>
    <defs>
     <path id="md9a0f240d7" d="M 0 3
C 0.795609 3 1.55874 2.683901 2.12132 2.12132
C 2.683901 1.55874 3 0.795609 3 0
C 3 -0.795609 2.683901 -1.55874 2.12132 -2.12132
C 1.55874 -2.683901 0.795609 -3 0 -3
C -0.795609 -3 -1.55874 -2.683901 -2.12132 -2.12132
C -2.683901 -1.55874 -3 -0.795609 -3 0
C -3 0.795609 -2.683901 1.55874 -2.12132 2.12132
C -1.55874 2.683901 -0.795609 3 0 3
z
" style="stroke: #ffffff; stroke-width: 0.75"/>
    </defs>
    <g clip-path="url(#p3841f55e40)">
     <use xlink:href="#md9a0f240d7" x="61.235661" y="88.047196" style="fill: #f25f5c; stroke: #ffffff; stroke-width: 0.75"/>
     <use xlink:href="#md9a0f240d7" x="81.833393" y="81.399165" style="fill: #f25f5c; stroke: #ffffff; stroke-width: 0.75"/>
     <use xlink:href="#md9a0f240d7" x="140.684056" y="81.272206" style="fill: #f25f5c; stroke: #ffffff; stroke-width: 0.75"/>
     <use xlink:href="#md9a0f240d7" x="346.661378" y="83.642232" style="fill: #f25f5c; stroke: #ffffff; stroke-width: 0.75"/>
    </g>
   </g>
   <g id="line2d_15"/>
   <g id="line2d_16"/>
   <g id="patch_3">
    <path d="M 46.964375 263.474297
L 46.964375 11.136797
" style="fill: none; stroke: #cccccc; stroke-width: 1.25; stroke-linejoin: miter; stroke-linecap: square"/>
   </g>
   <g id="patch_4">
    <path d="M 360.932664 263.474297
L 360.932664 11.136797
" style="fill: none; stroke: #cccccc; stroke-width: 1.25; stroke-linejoin: miter; stroke-linecap: square"/>
   </g>
   <g id="patch_5">
    <path d="M 46.964375 263.474297
L 360.932664 263.474297
" style="fill: none; stroke: #cccccc; stroke-width: 1.25; stroke-linejoin: miter; stroke-linecap: square"/>
   </g>
   <g id="patch_6">
    <path d="M 46.964375 11.136797
L 360.932664 11.136797
" style="fill: none; stroke: #cccccc; stroke-width: 1.25; stroke-linejoin: miter; stroke-linecap: square"/>
   </g>
   <g id="legend_1">
    <g id="patch_7">
     <path d="M 300.298601 51.056484
L 353.232664 51.056484
Q 355.432664 51.056484 355.432664 48.856484
L 355.432664 18.836797
Q 355.432664 16.636797 353.232664 16.636797
L 300.298601 16.636797
Q 298.098601 16.636797 298.098601 18.836797
L 298.098601 48.856484
Q 298.098601 51.056484 300.298601 51.056484
z
" style="fill: #ffffff; opacity: 0.8; stroke: #cccccc; stroke-linejoin: miter"/>
    </g>
    <g id="line2d_17">
     <path d="M 302.498601 25.060391
L 313.498601 25.060391
L 324.498601 25.060391
" style="fill: none; stroke: #247ba0; stroke-width: 1.5; stroke-linecap: round"/>
     <g>
      <use xlink:href="#m564a5b726b" x="313.498601" y="25.060391" style="fill: #247ba0; stroke: #ffffff; stroke-width: 0.75"/>
     </g>
    </g>
    <g id="text_15">
     <!-- auc -->
     <g style="fill: #262626" transform="translate(333.298601 28.910391) scale(0.11 -0.11)">
      <defs>
       <path id="ArialMT-75" d="M 2597 0
L 2597 488
Q 2209 -75 1544 -75
Q 1250 -75 995 37
Q 741 150 617 320
Q 494 491 444 738
Q 409 903 409 1263
L 409 3319
L 972 3319
L 972 1478
Q 972 1038 1006 884
Q 1059 663 1231 536
Q 1403 409 1656 409
Q 1909 409 2131 539
Q 2353 669 2445 892
Q 2538 1116 2538 1541
L 2538 3319
L 3100 3319
L 3100 0
L 2597 0
z
" transform="scale(0.015625)"/>
      </defs>
      <use xlink:href="#ArialMT-61"/>
      <use xlink:href="#ArialMT-75" transform="translate(55.615234 0)"/>
      <use xlink:href="#ArialMT-63" transform="translate(111.230469 0)"/>
     </g>
    </g>
    <g id="line2d_18">
     <path d="M 302.498601 40.620234
L 313.498601 40.620234
L 324.498601 40.620234
" style="fill: none; stroke: #f25f5c; stroke-width: 1.5; stroke-linecap: round"/>
     <g>
      <use xlink:href="#md9a0f240d7" x="313.498601" y="40.620234" style="fill: #f25f5c; stroke: #ffffff; stroke-width: 0.75"/>
     </g>
    </g>
    <g id="text_16">
     <!-- ap -->
     <g style="fill: #262626" transform="translate(333.298601 44.470234) scale(0.11 -0.11)">
      <defs>
       <path id="ArialMT-70" d="M 422 -1272
L 422 3319
L 934 3319
L 934 2888
Q 1116 3141 1344 3267
Q 1572 3394 1897 3394
Q 2322 3394 2647 3175
Q 2972 2956 3137 2557
Q 3303 2159 3303 1684
Q 3303 1175 3120 767
Q 2938 359 2589 142
Q 2241 -75 1856 -75
Q 1575 -75 1351 44
Q 1128 163 984 344
L 984 -1272
L 422 -1272
z
M 931 1641
Q 931 1000 1190 694
Q 1450 388 1819 388
Q 2194 388 2461 705
Q 2728 1022 2728 1688
Q 2728 2322 2467 2637
Q 2206 2953 1844 2953
Q 1484 2953 1207 2617
Q 931 2281 931 1641
z
" transform="scale(0.015625)"/>
      </defs>
      <use xlink:href="#ArialMT-61"/>
      <use xlink:href="#ArialMT-70" transform="translate(55.615234 0)"/>
     </g>
    </g>
   </g>
  </g>
  <g id="axes_2">
   <g id="patch_8">
    <path d="M 418.775231 263.474297
L 732.743519 263.474297
L 732.743519 11.136797
L 418.775231 11.136797
z
" style="fill: #ffffff"/>
   </g>
   <g id="matplotlib.axis_3">
    <g id="xtick_7">
     <g id="line2d_19">
      <path d="M 433.046516 263.474297
L 433.046516 11.136797
" clip-path="url(#p84ce10b095)" style="fill: none; stroke: #cccccc; stroke-linecap: round"/>
     </g>
     <g id="text_17">
      <!-- 0.00 -->
      <g style="fill: #262626" transform="translate(422.343001 280.847891) scale(0.11 -0.11)">
       <use xlink:href="#ArialMT-30"/>
       <use xlink:href="#ArialMT-2e" transform="translate(55.615234 0)"/>
       <use xlink:href="#ArialMT-30" transform="translate(83.398438 0)"/>
       <use xlink:href="#ArialMT-30" transform="translate(139.013672 0)"/>
      </g>
     </g>
    </g>
    <g id="xtick_8">
     <g id="line2d_20">
      <path d="M 468.724731 263.474297
L 468.724731 11.136797
" clip-path="url(#p84ce10b095)" style="fill: none; stroke: #cccccc; stroke-linecap: round"/>
     </g>
     <g id="text_18">
      <!-- 0.25 -->
      <g style="fill: #262626" transform="translate(458.021215 280.847891) scale(0.11 -0.11)">
       <defs>
        <path id="ArialMT-35" d="M 266 1200
L 856 1250
Q 922 819 1161 601
Q 1400 384 1738 384
Q 2144 384 2425 690
Q 2706 997 2706 1503
Q 2706 1984 2436 2262
Q 2166 2541 1728 2541
Q 1456 2541 1237 2417
Q 1019 2294 894 2097
L 366 2166
L 809 4519
L 3088 4519
L 3088 3981
L 1259 3981
L 1013 2750
Q 1425 3038 1878 3038
Q 2478 3038 2890 2622
Q 3303 2206 3303 1553
Q 3303 931 2941 478
Q 2500 -78 1738 -78
Q 1113 -78 717 272
Q 322 622 266 1200
z
" transform="scale(0.015625)"/>
       </defs>
       <use xlink:href="#ArialMT-30"/>
       <use xlink:href="#ArialMT-2e" transform="translate(55.615234 0)"/>
       <use xlink:href="#ArialMT-32" transform="translate(83.398438 0)"/>
       <use xlink:href="#ArialMT-35" transform="translate(139.013672 0)"/>
      </g>
     </g>
    </g>
    <g id="xtick_9">
     <g id="line2d_21">
      <path d="M 504.402946 263.474297
L 504.402946 11.136797
" clip-path="url(#p84ce10b095)" style="fill: none; stroke: #cccccc; stroke-linecap: round"/>
     </g>
     <g id="text_19">
      <!-- 0.50 -->
      <g style="fill: #262626" transform="translate(493.69943 280.847891) scale(0.11 -0.11)">
       <use xlink:href="#ArialMT-30"/>
       <use xlink:href="#ArialMT-2e" transform="translate(55.615234 0)"/>
       <use xlink:href="#ArialMT-35" transform="translate(83.398438 0)"/>
       <use xlink:href="#ArialMT-30" transform="translate(139.013672 0)"/>
      </g>
     </g>
    </g>
    <g id="xtick_10">
     <g id="line2d_22">
      <path d="M 540.08116 263.474297
L 540.08116 11.136797
" clip-path="url(#p84ce10b095)" style="fill: none; stroke: #cccccc; stroke-linecap: round"/>
     </g>
     <g id="text_20">
      <!-- 0.75 -->
      <g style="fill: #262626" transform="translate(529.377645 280.847891) scale(0.11 -0.11)">
       <defs>
        <path id="ArialMT-37" d="M 303 3981
L 303 4522
L 3269 4522
L 3269 4084
Q 2831 3619 2401 2847
Q 1972 2075 1738 1259
Q 1569 684 1522 0
L 944 0
Q 953 541 1156 1306
Q 1359 2072 1739 2783
Q 2119 3494 2547 3981
L 303 3981
z
" transform="scale(0.015625)"/>
       </defs>
       <use xlink:href="#ArialMT-30"/>
       <use xlink:href="#ArialMT-2e" transform="translate(55.615234 0)"/>
       <use xlink:href="#ArialMT-37" transform="translate(83.398438 0)"/>
       <use xlink:href="#ArialMT-35" transform="translate(139.013672 0)"/>
      </g>
     </g>
    </g>
    <g id="xtick_11">
     <g id="line2d_23">
      <path d="M 575.759375 263.474297
L 575.759375 11.136797
" clip-path="url(#p84ce10b095)" style="fill: none; stroke: #cccccc; stroke-linecap: round"/>
     </g>
     <g id="text_21">
      <!-- 1.00 -->
      <g style="fill: #262626" transform="translate(565.055859 280.847891) scale(0.11 -0.11)">
       <use xlink:href="#ArialMT-31"/>
       <use xlink:href="#ArialMT-2e" transform="translate(55.615234 0)"/>
       <use xlink:href="#ArialMT-30" transform="translate(83.398438 0)"/>
       <use xlink:href="#ArialMT-30" transform="translate(139.013672 0)"/>
      </g>
     </g>
    </g>
    <g id="xtick_12">
     <g id="line2d_24">
      <path d="M 611.43759 263.474297
L 611.43759 11.136797
" clip-path="url(#p84ce10b095)" style="fill: none; stroke: #cccccc; stroke-linecap: round"/>
     </g>
     <g id="text_22">
      <!-- 1.25 -->
      <g style="fill: #262626" transform="translate(600.734074 280.847891) scale(0.11 -0.11)">
       <use xlink:href="#ArialMT-31"/>
       <use xlink:href="#ArialMT-2e" transform="translate(55.615234 0)"/>
       <use xlink:href="#ArialMT-32" transform="translate(83.398438 0)"/>
       <use xlink:href="#ArialMT-35" transform="translate(139.013672 0)"/>
      </g>
     </g>
    </g>
    <g id="xtick_13">
     <g id="line2d_25">
      <path d="M 647.115804 263.474297
L 647.115804 11.136797
" clip-path="url(#p84ce10b095)" style="fill: none; stroke: #cccccc; stroke-linecap: round"/>
     </g>
     <g id="text_23">
      <!-- 1.50 -->
      <g style="fill: #262626" transform="translate(636.412289 280.847891) scale(0.11 -0.11)">
       <use xlink:href="#ArialMT-31"/>
       <use xlink:href="#ArialMT-2e" transform="translate(55.615234 0)"/>
       <use xlink:href="#ArialMT-35" transform="translate(83.398438 0)"/>
       <use xlink:href="#ArialMT-30" transform="translate(139.013672 0)"/>
      </g>
     </g>
    </g>
    <g id="xtick_14">
     <g id="line2d_26">
      <path d="M 682.794019 263.474297
L 682.794019 11.136797
" clip-path="url(#p84ce10b095)" style="fill: none; stroke: #cccccc; stroke-linecap: round"/>
     </g>
     <g id="text_24">
      <!-- 1.75 -->
      <g style="fill: #262626" transform="translate(672.090503 280.847891) scale(0.11 -0.11)">
       <use xlink:href="#ArialMT-31"/>
       <use xlink:href="#ArialMT-2e" transform="translate(55.615234 0)"/>
       <use xlink:href="#ArialMT-37" transform="translate(83.398438 0)"/>
       <use xlink:href="#ArialMT-35" transform="translate(139.013672 0)"/>
      </g>
     </g>
    </g>
    <g id="xtick_15">
     <g id="line2d_27">
      <path d="M 718.472234 263.474297
L 718.472234 11.136797
" clip-path="url(#p84ce10b095)" style="fill: none; stroke: #cccccc; stroke-linecap: round"/>
     </g>
     <g id="text_25">
      <!-- 2.00 -->
      <g style="fill: #262626" transform="translate(707.768718 280.847891) scale(0.11 -0.11)">
       <use xlink:href="#ArialMT-32"/>
       <use xlink:href="#ArialMT-2e" transform="translate(55.615234 0)"/>
       <use xlink:href="#ArialMT-30" transform="translate(83.398438 0)"/>
       <use xlink:href="#ArialMT-30" transform="translate(139.013672 0)"/>
      </g>
     </g>
    </g>
    <g id="text_26">
     <!-- model.deviation_weight -->
     <g style="fill: #262626" transform="translate(513.056563 295.623516) scale(0.12 -0.12)">
      <defs>
       <path id="ArialMT-6d" d="M 422 0
L 422 3319
L 925 3319
L 925 2853
Q 1081 3097 1340 3245
Q 1600 3394 1931 3394
Q 2300 3394 2536 3241
Q 2772 3088 2869 2813
Q 3263 3394 3894 3394
Q 4388 3394 4653 3120
Q 4919 2847 4919 2278
L 4919 0
L 4359 0
L 4359 2091
Q 4359 2428 4304 2576
Q 4250 2725 4106 2815
Q 3963 2906 3769 2906
Q 3419 2906 3187 2673
Q 2956 2441 2956 1928
L 2956 0
L 2394 0
L 2394 2156
Q 2394 2531 2256 2718
Q 2119 2906 1806 2906
Q 1569 2906 1367 2781
Q 1166 2656 1075 2415
Q 984 2175 984 1722
L 984 0
L 422 0
z
" transform="scale(0.015625)"/>
       <path id="ArialMT-76" d="M 1344 0
L 81 3319
L 675 3319
L 1388 1331
Q 1503 1009 1600 663
Q 1675 925 1809 1294
L 2547 3319
L 3125 3319
L 1869 0
L 1344 0
z
" transform="scale(0.015625)"/>
       <path id="ArialMT-77" d="M 1034 0
L 19 3319
L 600 3319
L 1128 1403
L 1325 691
Q 1338 744 1497 1375
L 2025 3319
L 2603 3319
L 3100 1394
L 3266 759
L 3456 1400
L 4025 3319
L 4572 3319
L 3534 0
L 2950 0
L 2422 1988
L 2294 2553
L 1622 0
L 1034 0
z
" transform="scale(0.015625)"/>
       <path id="ArialMT-68" d="M 422 0
L 422 4581
L 984 4581
L 984 2938
Q 1378 3394 1978 3394
Q 2347 3394 2619 3248
Q 2891 3103 3008 2847
Q 3125 2591 3125 2103
L 3125 0
L 2563 0
L 2563 2103
Q 2563 2525 2380 2717
Q 2197 2909 1863 2909
Q 1613 2909 1392 2779
Q 1172 2650 1078 2428
Q 984 2206 984 1816
L 984 0
L 422 0
z
" transform="scale(0.015625)"/>
      </defs>
      <use xlink:href="#ArialMT-6d"/>
      <use xlink:href="#ArialMT-6f" transform="translate(83.300781 0)"/>
      <use xlink:href="#ArialMT-64" transform="translate(138.916016 0)"/>
      <use xlink:href="#ArialMT-65" transform="translate(194.53125 0)"/>
      <use xlink:href="#ArialMT-6c" transform="translate(250.146484 0)"/>
      <use xlink:href="#ArialMT-2e" transform="translate(272.363281 0)"/>
      <use xlink:href="#ArialMT-64" transform="translate(300.146484 0)"/>
      <use xlink:href="#ArialMT-65" transform="translate(355.761719 0)"/>
      <use xlink:href="#ArialMT-76" transform="translate(411.376953 0)"/>
      <use xlink:href="#ArialMT-69" transform="translate(461.376953 0)"/>
      <use xlink:href="#ArialMT-61" transform="translate(483.59375 0)"/>
      <use xlink:href="#ArialMT-74" transform="translate(539.208984 0)"/>
      <use xlink:href="#ArialMT-69" transform="translate(566.992188 0)"/>
      <use xlink:href="#ArialMT-6f" transform="translate(589.208984 0)"/>
      <use xlink:href="#ArialMT-6e" transform="translate(644.824219 0)"/>
      <use xlink:href="#ArialMT-5f" transform="translate(700.439453 0)"/>
      <use xlink:href="#ArialMT-77" transform="translate(756.054688 0)"/>
      <use xlink:href="#ArialMT-65" transform="translate(828.271484 0)"/>
      <use xlink:href="#ArialMT-69" transform="translate(883.886719 0)"/>
      <use xlink:href="#ArialMT-67" transform="translate(906.103516 0)"/>
      <use xlink:href="#ArialMT-68" transform="translate(961.71875 0)"/>
      <use xlink:href="#ArialMT-74" transform="translate(1017.333984 0)"/>
     </g>
    </g>
   </g>
   <g id="matplotlib.axis_4">
    <g id="ytick_7">
     <g id="line2d_28">
      <path d="M 418.775231 263.474297
L 732.743519 263.474297
" clip-path="url(#p84ce10b095)" style="fill: none; stroke: #cccccc; stroke-linecap: round"/>
     </g>
     <g id="text_27">
      <!-- 0.0 -->
      <g style="fill: #262626" transform="translate(393.985231 267.411094) scale(0.11 -0.11)">
       <use xlink:href="#ArialMT-30"/>
       <use xlink:href="#ArialMT-2e" transform="translate(55.615234 0)"/>
       <use xlink:href="#ArialMT-30" transform="translate(83.398438 0)"/>
      </g>
     </g>
    </g>
    <g id="ytick_8">
     <g id="line2d_29">
      <path d="M 418.775231 213.006797
L 732.743519 213.006797
" clip-path="url(#p84ce10b095)" style="fill: none; stroke: #cccccc; stroke-linecap: round"/>
     </g>
     <g id="text_28">
      <!-- 0.2 -->
      <g style="fill: #262626" transform="translate(393.985231 216.943594) scale(0.11 -0.11)">
       <use xlink:href="#ArialMT-30"/>
       <use xlink:href="#ArialMT-2e" transform="translate(55.615234 0)"/>
       <use xlink:href="#ArialMT-32" transform="translate(83.398438 0)"/>
      </g>
     </g>
    </g>
    <g id="ytick_9">
     <g id="line2d_30">
      <path d="M 418.775231 162.539297
L 732.743519 162.539297
" clip-path="url(#p84ce10b095)" style="fill: none; stroke: #cccccc; stroke-linecap: round"/>
     </g>
     <g id="text_29">
      <!-- 0.4 -->
      <g style="fill: #262626" transform="translate(393.985231 166.476094) scale(0.11 -0.11)">
       <use xlink:href="#ArialMT-30"/>
       <use xlink:href="#ArialMT-2e" transform="translate(55.615234 0)"/>
       <use xlink:href="#ArialMT-34" transform="translate(83.398438 0)"/>
      </g>
     </g>
    </g>
    <g id="ytick_10">
     <g id="line2d_31">
      <path d="M 418.775231 112.071797
L 732.743519 112.071797
" clip-path="url(#p84ce10b095)" style="fill: none; stroke: #cccccc; stroke-linecap: round"/>
     </g>
     <g id="text_30">
      <!-- 0.6 -->
      <g style="fill: #262626" transform="translate(393.985231 116.008594) scale(0.11 -0.11)">
       <use xlink:href="#ArialMT-30"/>
       <use xlink:href="#ArialMT-2e" transform="translate(55.615234 0)"/>
       <use xlink:href="#ArialMT-36" transform="translate(83.398438 0)"/>
      </g>
     </g>
    </g>
    <g id="ytick_11">
     <g id="line2d_32">
      <path d="M 418.775231 61.604297
L 732.743519 61.604297
" clip-path="url(#p84ce10b095)" style="fill: none; stroke: #cccccc; stroke-linecap: round"/>
     </g>
     <g id="text_31">
      <!-- 0.8 -->
      <g style="fill: #262626" transform="translate(393.985231 65.541094) scale(0.11 -0.11)">
       <use xlink:href="#ArialMT-30"/>
       <use xlink:href="#ArialMT-2e" transform="translate(55.615234 0)"/>
       <use xlink:href="#ArialMT-38" transform="translate(83.398438 0)"/>
      </g>
     </g>
    </g>
    <g id="ytick_12">
     <g id="line2d_33">
      <path d="M 418.775231 11.136797
L 732.743519 11.136797
" clip-path="url(#p84ce10b095)" style="fill: none; stroke: #cccccc; stroke-linecap: round"/>
     </g>
     <g id="text_32">
      <!-- 1.0 -->
      <g style="fill: #262626" transform="translate(393.985231 15.073594) scale(0.11 -0.11)">
       <use xlink:href="#ArialMT-31"/>
       <use xlink:href="#ArialMT-2e" transform="translate(55.615234 0)"/>
       <use xlink:href="#ArialMT-30" transform="translate(83.398438 0)"/>
      </g>
     </g>
    </g>
    <g id="text_33">
     <!-- Validation score -->
     <g style="fill: #262626" transform="translate(387.600231 179.552109) rotate(-90) scale(0.12 -0.12)">
      <use xlink:href="#ArialMT-56"/>
      <use xlink:href="#ArialMT-61" transform="translate(59.324219 0)"/>
      <use xlink:href="#ArialMT-6c" transform="translate(114.939453 0)"/>
      <use xlink:href="#ArialMT-69" transform="translate(137.15625 0)"/>
      <use xlink:href="#ArialMT-64" transform="translate(159.373047 0)"/>
      <use xlink:href="#ArialMT-61" transform="translate(214.988281 0)"/>
      <use xlink:href="#ArialMT-74" transform="translate(270.603516 0)"/>
      <use xlink:href="#ArialMT-69" transform="translate(298.386719 0)"/>
      <use xlink:href="#ArialMT-6f" transform="translate(320.603516 0)"/>
      <use xlink:href="#ArialMT-6e" transform="translate(376.21875 0)"/>
      <use xlink:href="#ArialMT-20" transform="translate(431.833984 0)"/>
      <use xlink:href="#ArialMT-73" transform="translate(459.617188 0)"/>
      <use xlink:href="#ArialMT-63" transform="translate(509.617188 0)"/>
      <use xlink:href="#ArialMT-6f" transform="translate(559.617188 0)"/>
      <use xlink:href="#ArialMT-72" transform="translate(615.232422 0)"/>
      <use xlink:href="#ArialMT-65" transform="translate(648.533203 0)"/>
     </g>
    </g>
   </g>
   <g id="FillBetweenPolyCollection_3"/>
   <g id="FillBetweenPolyCollection_4"/>
   <g id="line2d_34">
    <path d="M 433.046516 62.826815
L 468.724731 64.231163
L 504.402946 63.602671
L 575.759375 64.152216
L 718.472234 64.059743
" clip-path="url(#p84ce10b095)" style="fill: none; stroke: #247ba0; stroke-width: 1.5; stroke-linecap: round"/>
    <g clip-path="url(#p84ce10b095)">
     <use xlink:href="#m564a5b726b" x="433.046516" y="62.826815" style="fill: #247ba0; stroke: #ffffff; stroke-width: 0.75"/>
     <use xlink:href="#m564a5b726b" x="468.724731" y="64.231163" style="fill: #247ba0; stroke: #ffffff; stroke-width: 0.75"/>
     <use xlink:href="#m564a5b726b" x="504.402946" y="63.602671" style="fill: #247ba0; stroke: #ffffff; stroke-width: 0.75"/>
     <use xlink:href="#m564a5b726b" x="575.759375" y="64.152216" style="fill: #247ba0; stroke: #ffffff; stroke-width: 0.75"/>
     <use xlink:href="#m564a5b726b" x="718.472234" y="64.059743" style="fill: #247ba0; stroke: #ffffff; stroke-width: 0.75"/>
    </g>
   </g>
   <g id="line2d_35">
    <path d="M 433.046516 82.79802
L 468.724731 83.330309
L 504.402946 83.367804
L 575.759375 84.123054
L 718.472234 84.331812
" clip-path="url(#p84ce10b095)" style="fill: none; stroke: #f25f5c; stroke-width: 1.5; stroke-linecap: round"/>
    <g clip-path="url(#p84ce10b095)">
     <use xlink:href="#md9a0f240d7" x="433.046516" y="82.79802" style="fill: #f25f5c; stroke: #ffffff; stroke-width: 0.75"/>
     <use xlink:href="#md9a0f240d7" x="468.724731" y="83.330309" style="fill: #f25f5c; stroke: #ffffff; stroke-width: 0.75"/>
     <use xlink:href="#md9a0f240d7" x="504.402946" y="83.367804" style="fill: #f25f5c; stroke: #ffffff; stroke-width: 0.75"/>
     <use xlink:href="#md9a0f240d7" x="575.759375" y="84.123054" style="fill: #f25f5c; stroke: #ffffff; stroke-width: 0.75"/>
     <use xlink:href="#md9a0f240d7" x="718.472234" y="84.331812" style="fill: #f25f5c; stroke: #ffffff; stroke-width: 0.75"/>
    </g>
   </g>
   <g id="line2d_36"/>
   <g id="line2d_37"/>
   <g id="patch_9">
    <path d="M 418.775231 263.474297
L 418.775231 11.136797
" style="fill: none; stroke: #cccccc; stroke-width: 1.25; stroke-linejoin: miter; stroke-linecap: square"/>
   </g>
   <g id="patch_10">
    <path d="M 732.743519 263.474297
L 732.743519 11.136797
" style="fill: none; stroke: #cccccc; stroke-width: 1.25; stroke-linejoin: miter; stroke-linecap: square"/>
   </g>
   <g id="patch_11">
    <path d="M 418.775231 263.474297
L 732.743519 263.474297
" style="fill: none; stroke: #cccccc; stroke-width: 1.25; stroke-linejoin: miter; stroke-linecap: square"/>
   </g>
   <g id="patch_12">
    <path d="M 418.775231 11.136797
L 732.743519 11.136797
" style="fill: none; stroke: #cccccc; stroke-width: 1.25; stroke-linejoin: miter; stroke-linecap: square"/>
   </g>
   <g id="legend_2">
    <g id="patch_13">
     <path d="M 672.109457 51.056484
L 725.043519 51.056484
Q 727.243519 51.056484 727.243519 48.856484
L 727.243519 18.836797
Q 727.243519 16.636797 725.043519 16.636797
L 672.109457 16.636797
Q 669.909457 16.636797 669.909457 18.836797
L 669.909457 48.856484
Q 669.909457 51.056484 672.109457 51.056484
z
" style="fill: #ffffff; opacity: 0.8; stroke: #cccccc; stroke-linejoin: miter"/>
    </g>
    <g id="line2d_38">
     <path d="M 674.309457 25.060391
L 685.309457 25.060391
L 696.309457 25.060391
" style="fill: none; stroke: #247ba0; stroke-width: 1.5; stroke-linecap: round"/>
     <g>
      <use xlink:href="#m564a5b726b" x="685.309457" y="25.060391" style="fill: #247ba0; stroke: #ffffff; stroke-width: 0.75"/>
     </g>
    </g>
    <g id="text_34">
     <!-- auc -->
     <g style="fill: #262626" transform="translate(705.109457 28.910391) scale(0.11 -0.11)">
      <use xlink:href="#ArialMT-61"/>
      <use xlink:href="#ArialMT-75" transform="translate(55.615234 0)"/>
      <use xlink:href="#ArialMT-63" transform="translate(111.230469 0)"/>
     </g>
    </g>
    <g id="line2d_39">
     <path d="M 674.309457 40.620234
L 685.309457 40.620234
L 696.309457 40.620234
" style="fill: none; stroke: #f25f5c; stroke-width: 1.5; stroke-linecap: round"/>
     <g>
      <use xlink:href="#md9a0f240d7" x="685.309457" y="40.620234" style="fill: #f25f5c; stroke: #ffffff; stroke-width: 0.75"/>
     </g>
    </g>
    <g id="text_35">
     <!-- ap -->
     <g style="fill: #262626" transform="translate(705.109457 44.470234) scale(0.11 -0.11)">
      <use xlink:href="#ArialMT-61"/>
      <use xlink:href="#ArialMT-70" transform="translate(55.615234 0)"/>
     </g>
    </g>
   </g>
  </g>
  <g id="axes_3">
   <g id="patch_14">
    <path d="M 790.586086 263.474297
L 1104.554375 263.474297
L 1104.554375 11.136797
L 790.586086 11.136797
z
" style="fill: #ffffff"/>
   </g>
   <g id="matplotlib.axis_5">
    <g id="xtick_16">
     <g id="line2d_40">
      <path d="M 804.857372 263.474297
L 804.857372 11.136797
" clip-path="url(#ped7a557b91)" style="fill: none; stroke: #cccccc; stroke-linecap: round"/>
     </g>
     <g id="text_36">
      <!-- 0.0 -->
      <g style="fill: #262626" transform="translate(797.212372 280.847891) scale(0.11 -0.11)">
       <use xlink:href="#ArialMT-30"/>
       <use xlink:href="#ArialMT-2e" transform="translate(55.615234 0)"/>
       <use xlink:href="#ArialMT-30" transform="translate(83.398438 0)"/>
      </g>
     </g>
    </g>
    <g id="xtick_17">
     <g id="line2d_41">
      <path d="M 861.942515 263.474297
L 861.942515 11.136797
" clip-path="url(#ped7a557b91)" style="fill: none; stroke: #cccccc; stroke-linecap: round"/>
     </g>
     <g id="text_37">
      <!-- 0.1 -->
      <g style="fill: #262626" transform="translate(854.297515 280.847891) scale(0.11 -0.11)">
       <use xlink:href="#ArialMT-30"/>
       <use xlink:href="#ArialMT-2e" transform="translate(55.615234 0)"/>
       <use xlink:href="#ArialMT-31" transform="translate(83.398438 0)"/>
      </g>
     </g>
    </g>
    <g id="xtick_18">
     <g id="line2d_42">
      <path d="M 919.027659 263.474297
L 919.027659 11.136797
" clip-path="url(#ped7a557b91)" style="fill: none; stroke: #cccccc; stroke-linecap: round"/>
     </g>
     <g id="text_38">
      <!-- 0.2 -->
      <g style="fill: #262626" transform="translate(911.382659 280.847891) scale(0.11 -0.11)">
       <use xlink:href="#ArialMT-30"/>
       <use xlink:href="#ArialMT-2e" transform="translate(55.615234 0)"/>
       <use xlink:href="#ArialMT-32" transform="translate(83.398438 0)"/>
      </g>
     </g>
    </g>
    <g id="xtick_19">
     <g id="line2d_43">
      <path d="M 976.112802 263.474297
L 976.112802 11.136797
" clip-path="url(#ped7a557b91)" style="fill: none; stroke: #cccccc; stroke-linecap: round"/>
     </g>
     <g id="text_39">
      <!-- 0.3 -->
      <g style="fill: #262626" transform="translate(968.467802 280.847891) scale(0.11 -0.11)">
       <defs>
        <path id="ArialMT-33" d="M 269 1209
L 831 1284
Q 928 806 1161 595
Q 1394 384 1728 384
Q 2125 384 2398 659
Q 2672 934 2672 1341
Q 2672 1728 2419 1979
Q 2166 2231 1775 2231
Q 1616 2231 1378 2169
L 1441 2663
Q 1497 2656 1531 2656
Q 1891 2656 2178 2843
Q 2466 3031 2466 3422
Q 2466 3731 2256 3934
Q 2047 4138 1716 4138
Q 1388 4138 1169 3931
Q 950 3725 888 3313
L 325 3413
Q 428 3978 793 4289
Q 1159 4600 1703 4600
Q 2078 4600 2393 4439
Q 2709 4278 2876 4000
Q 3044 3722 3044 3409
Q 3044 3113 2884 2869
Q 2725 2625 2413 2481
Q 2819 2388 3044 2092
Q 3269 1797 3269 1353
Q 3269 753 2831 336
Q 2394 -81 1725 -81
Q 1122 -81 723 278
Q 325 638 269 1209
z
" transform="scale(0.015625)"/>
       </defs>
       <use xlink:href="#ArialMT-30"/>
       <use xlink:href="#ArialMT-2e" transform="translate(55.615234 0)"/>
       <use xlink:href="#ArialMT-33" transform="translate(83.398438 0)"/>
      </g>
     </g>
    </g>
    <g id="xtick_20">
     <g id="line2d_44">
      <path d="M 1033.197946 263.474297
L 1033.197946 11.136797
" clip-path="url(#ped7a557b91)" style="fill: none; stroke: #cccccc; stroke-linecap: round"/>
     </g>
     <g id="text_40">
      <!-- 0.4 -->
      <g style="fill: #262626" transform="translate(1025.552946 280.847891) scale(0.11 -0.11)">
       <use xlink:href="#ArialMT-30"/>
       <use xlink:href="#ArialMT-2e" transform="translate(55.615234 0)"/>
       <use xlink:href="#ArialMT-34" transform="translate(83.398438 0)"/>
      </g>
     </g>
    </g>
    <g id="xtick_21">
     <g id="line2d_45">
      <path d="M 1090.283089 263.474297
L 1090.283089 11.136797
" clip-path="url(#ped7a557b91)" style="fill: none; stroke: #cccccc; stroke-linecap: round"/>
     </g>
     <g id="text_41">
      <!-- 0.5 -->
      <g style="fill: #262626" transform="translate(1082.638089 280.847891) scale(0.11 -0.11)">
       <use xlink:href="#ArialMT-30"/>
       <use xlink:href="#ArialMT-2e" transform="translate(55.615234 0)"/>
       <use xlink:href="#ArialMT-35" transform="translate(83.398438 0)"/>
      </g>
     </g>
    </g>
    <g id="text_42">
     <!-- ssl.loss_weight -->
     <g style="fill: #262626" transform="translate(907.221168 295.623516) scale(0.12 -0.12)">
      <use xlink:href="#ArialMT-73"/>
      <use xlink:href="#ArialMT-73" transform="translate(50 0)"/>
      <use xlink:href="#ArialMT-6c" transform="translate(100 0)"/>
      <use xlink:href="#ArialMT-2e" transform="translate(122.216797 0)"/>
      <use xlink:href="#ArialMT-6c" transform="translate(150 0)"/>
      <use xlink:href="#ArialMT-6f" transform="translate(172.216797 0)"/>
      <use xlink:href="#ArialMT-73" transform="translate(227.832031 0)"/>
      <use xlink:href="#ArialMT-73" transform="translate(277.832031 0)"/>
      <use xlink:href="#ArialMT-5f" transform="translate(327.832031 0)"/>
      <use xlink:href="#ArialMT-77" transform="translate(383.447266 0)"/>
      <use xlink:href="#ArialMT-65" transform="translate(455.664062 0)"/>
      <use xlink:href="#ArialMT-69" transform="translate(511.279297 0)"/>
      <use xlink:href="#ArialMT-67" transform="translate(533.496094 0)"/>
      <use xlink:href="#ArialMT-68" transform="translate(589.111328 0)"/>
      <use xlink:href="#ArialMT-74" transform="translate(644.726562 0)"/>
     </g>
    </g>
   </g>
   <g id="matplotlib.axis_6">
    <g id="ytick_13">
     <g id="line2d_46">
      <path d="M 790.586086 263.474297
L 1104.554375 263.474297
" clip-path="url(#ped7a557b91)" style="fill: none; stroke: #cccccc; stroke-linecap: round"/>
     </g>
     <g id="text_43">
      <!-- 0.0 -->
      <g style="fill: #262626" transform="translate(765.796086 267.411094) scale(0.11 -0.11)">
       <use xlink:href="#ArialMT-30"/>
       <use xlink:href="#ArialMT-2e" transform="translate(55.615234 0)"/>
       <use xlink:href="#ArialMT-30" transform="translate(83.398438 0)"/>
      </g>
     </g>
    </g>
    <g id="ytick_14">
     <g id="line2d_47">
      <path d="M 790.586086 213.006797
L 1104.554375 213.006797
" clip-path="url(#ped7a557b91)" style="fill: none; stroke: #cccccc; stroke-linecap: round"/>
     </g>
     <g id="text_44">
      <!-- 0.2 -->
      <g style="fill: #262626" transform="translate(765.796086 216.943594) scale(0.11 -0.11)">
       <use xlink:href="#ArialMT-30"/>
       <use xlink:href="#ArialMT-2e" transform="translate(55.615234 0)"/>
       <use xlink:href="#ArialMT-32" transform="translate(83.398438 0)"/>
      </g>
     </g>
    </g>
    <g id="ytick_15">
     <g id="line2d_48">
      <path d="M 790.586086 162.539297
L 1104.554375 162.539297
" clip-path="url(#ped7a557b91)" style="fill: none; stroke: #cccccc; stroke-linecap: round"/>
     </g>
     <g id="text_45">
      <!-- 0.4 -->
      <g style="fill: #262626" transform="translate(765.796086 166.476094) scale(0.11 -0.11)">
       <use xlink:href="#ArialMT-30"/>
       <use xlink:href="#ArialMT-2e" transform="translate(55.615234 0)"/>
       <use xlink:href="#ArialMT-34" transform="translate(83.398438 0)"/>
      </g>
     </g>
    </g>
    <g id="ytick_16">
     <g id="line2d_49">
      <path d="M 790.586086 112.071797
L 1104.554375 112.071797
" clip-path="url(#ped7a557b91)" style="fill: none; stroke: #cccccc; stroke-linecap: round"/>
     </g>
     <g id="text_46">
      <!-- 0.6 -->
      <g style="fill: #262626" transform="translate(765.796086 116.008594) scale(0.11 -0.11)">
       <use xlink:href="#ArialMT-30"/>
       <use xlink:href="#ArialMT-2e" transform="translate(55.615234 0)"/>
       <use xlink:href="#ArialMT-36" transform="translate(83.398438 0)"/>
      </g>
     </g>
    </g>
    <g id="ytick_17">
     <g id="line2d_50">
      <path d="M 790.586086 61.604297
L 1104.554375 61.604297
" clip-path="url(#ped7a557b91)" style="fill: none; stroke: #cccccc; stroke-linecap: round"/>
     </g>
     <g id="text_47">
      <!-- 0.8 -->
      <g style="fill: #262626" transform="translate(765.796086 65.541094) scale(0.11 -0.11)">
       <use xlink:href="#ArialMT-30"/>
       <use xlink:href="#ArialMT-2e" transform="translate(55.615234 0)"/>
       <use xlink:href="#ArialMT-38" transform="translate(83.398438 0)"/>
      </g>
     </g>
    </g>
    <g id="ytick_18">
     <g id="line2d_51">
      <path d="M 790.586086 11.136797
L 1104.554375 11.136797
" clip-path="url(#ped7a557b91)" style="fill: none; stroke: #cccccc; stroke-linecap: round"/>
     </g>
     <g id="text_48">
      <!-- 1.0 -->
      <g style="fill: #262626" transform="translate(765.796086 15.073594) scale(0.11 -0.11)">
       <use xlink:href="#ArialMT-31"/>
       <use xlink:href="#ArialMT-2e" transform="translate(55.615234 0)"/>
       <use xlink:href="#ArialMT-30" transform="translate(83.398438 0)"/>
      </g>
     </g>
    </g>
    <g id="text_49">
     <!-- Validation score -->
     <g style="fill: #262626" transform="translate(759.411086 179.552109) rotate(-90) scale(0.12 -0.12)">
      <use xlink:href="#ArialMT-56"/>
      <use xlink:href="#ArialMT-61" transform="translate(59.324219 0)"/>
      <use xlink:href="#ArialMT-6c" transform="translate(114.939453 0)"/>
      <use xlink:href="#ArialMT-69" transform="translate(137.15625 0)"/>
      <use xlink:href="#ArialMT-64" transform="translate(159.373047 0)"/>
      <use xlink:href="#ArialMT-61" transform="translate(214.988281 0)"/>
      <use xlink:href="#ArialMT-74" transform="translate(270.603516 0)"/>
      <use xlink:href="#ArialMT-69" transform="translate(298.386719 0)"/>
      <use xlink:href="#ArialMT-6f" transform="translate(320.603516 0)"/>
      <use xlink:href="#ArialMT-6e" transform="translate(376.21875 0)"/>
      <use xlink:href="#ArialMT-20" transform="translate(431.833984 0)"/>
      <use xlink:href="#ArialMT-73" transform="translate(459.617188 0)"/>
      <use xlink:href="#ArialMT-63" transform="translate(509.617188 0)"/>
      <use xlink:href="#ArialMT-6f" transform="translate(559.617188 0)"/>
      <use xlink:href="#ArialMT-72" transform="translate(615.232422 0)"/>
      <use xlink:href="#ArialMT-65" transform="translate(648.533203 0)"/>
     </g>
    </g>
   </g>
   <g id="FillBetweenPolyCollection_5"/>
   <g id="FillBetweenPolyCollection_6"/>
   <g id="line2d_52">
    <path d="M 804.857372 61.283189
L 805.428224 58.325565
L 810.565886 58.286642
L 861.942515 66.343186
L 1090.283089 74.634028
" clip-path="url(#ped7a557b91)" style="fill: none; stroke: #247ba0; stroke-width: 1.5; stroke-linecap: round"/>
    <g clip-path="url(#ped7a557b91)">
     <use xlink:href="#m564a5b726b" x="804.857372" y="61.283189" style="fill: #247ba0; stroke: #ffffff; stroke-width: 0.75"/>
     <use xlink:href="#m564a5b726b" x="805.428224" y="58.325565" style="fill: #247ba0; stroke: #ffffff; stroke-width: 0.75"/>
     <use xlink:href="#m564a5b726b" x="810.565886" y="58.286642" style="fill: #247ba0; stroke: #ffffff; stroke-width: 0.75"/>
     <use xlink:href="#m564a5b726b" x="861.942515" y="66.343186" style="fill: #247ba0; stroke: #ffffff; stroke-width: 0.75"/>
     <use xlink:href="#m564a5b726b" x="1090.283089" y="74.634028" style="fill: #247ba0; stroke: #ffffff; stroke-width: 0.75"/>
    </g>
   </g>
   <g id="line2d_53">
    <path d="M 804.857372 84.613547
L 805.428224 77.436937
L 810.565886 74.29022
L 861.942515 88.515533
L 1090.283089 93.09476
" clip-path="url(#ped7a557b91)" style="fill: none; stroke: #f25f5c; stroke-width: 1.5; stroke-linecap: round"/>
    <g clip-path="url(#ped7a557b91)">
     <use xlink:href="#md9a0f240d7" x="804.857372" y="84.613547" style="fill: #f25f5c; stroke: #ffffff; stroke-width: 0.75"/>
     <use xlink:href="#md9a0f240d7" x="805.428224" y="77.436937" style="fill: #f25f5c; stroke: #ffffff; stroke-width: 0.75"/>
     <use xlink:href="#md9a0f240d7" x="810.565886" y="74.29022" style="fill: #f25f5c; stroke: #ffffff; stroke-width: 0.75"/>
     <use xlink:href="#md9a0f240d7" x="861.942515" y="88.515533" style="fill: #f25f5c; stroke: #ffffff; stroke-width: 0.75"/>
     <use xlink:href="#md9a0f240d7" x="1090.283089" y="93.09476" style="fill: #f25f5c; stroke: #ffffff; stroke-width: 0.75"/>
    </g>
   </g>
   <g id="line2d_54"/>
   <g id="line2d_55"/>
   <g id="patch_15">
    <path d="M 790.586086 263.474297
L 790.586086 11.136797
" style="fill: none; stroke: #cccccc; stroke-width: 1.25; stroke-linejoin: miter; stroke-linecap: square"/>
   </g>
   <g id="patch_16">
    <path d="M 1104.554375 263.474297
L 1104.554375 11.136797
" style="fill: none; stroke: #cccccc; stroke-width: 1.25; stroke-linejoin: miter; stroke-linecap: square"/>
   </g>
   <g id="patch_17">
    <path d="M 790.586086 263.474297
L 1104.554375 263.474297
" style="fill: none; stroke: #cccccc; stroke-width: 1.25; stroke-linejoin: miter; stroke-linecap: square"/>
   </g>
   <g id="patch_18">
    <path d="M 790.586086 11.136797
L 1104.554375 11.136797
" style="fill: none; stroke: #cccccc; stroke-width: 1.25; stroke-linejoin: miter; stroke-linecap: square"/>
   </g>
   <g id="legend_3">
    <g id="patch_19">
     <path d="M 1043.920312 51.056484
L 1096.854375 51.056484
Q 1099.054375 51.056484 1099.054375 48.856484
L 1099.054375 18.836797
Q 1099.054375 16.636797 1096.854375 16.636797
L 1043.920312 16.636797
Q 1041.720312 16.636797 1041.720312 18.836797
L 1041.720312 48.856484
Q 1041.720312 51.056484 1043.920312 51.056484
z
" style="fill: #ffffff; opacity: 0.8; stroke: #cccccc; stroke-linejoin: miter"/>
    </g>
    <g id="line2d_56">
     <path d="M 1046.120312 25.060391
L 1057.120312 25.060391
L 1068.120312 25.060391
" style="fill: none; stroke: #247ba0; stroke-width: 1.5; stroke-linecap: round"/>
     <g>
      <use xlink:href="#m564a5b726b" x="1057.120312" y="25.060391" style="fill: #247ba0; stroke: #ffffff; stroke-width: 0.75"/>
     </g>
    </g>
    <g id="text_50">
     <!-- auc -->
     <g style="fill: #262626" transform="translate(1076.920312 28.910391) scale(0.11 -0.11)">
      <use xlink:href="#ArialMT-61"/>
      <use xlink:href="#ArialMT-75" transform="translate(55.615234 0)"/>
      <use xlink:href="#ArialMT-63" transform="translate(111.230469 0)"/>
     </g>
    </g>
    <g id="line2d_57">
     <path d="M 1046.120312 40.620234
L 1057.120312 40.620234
L 1068.120312 40.620234
" style="fill: none; stroke: #f25f5c; stroke-width: 1.5; stroke-linecap: round"/>
     <g>
      <use xlink:href="#md9a0f240d7" x="1057.120312" y="40.620234" style="fill: #f25f5c; stroke: #ffffff; stroke-width: 0.75"/>
     </g>
    </g>
    <g id="text_51">
     <!-- ap -->
     <g style="fill: #262626" transform="translate(1076.920312 44.470234) scale(0.11 -0.11)">
      <use xlink:href="#ArialMT-61"/>
      <use xlink:href="#ArialMT-70" transform="translate(55.615234 0)"/>
     </g>
    </g>
   </g>
  </g>
 </g>
 <defs>
  <clipPath id="p3841f55e40">
   <rect x="46.964375" y="11.136797" width="313.968289" height="252.3375"/>
  </clipPath>
  <clipPath id="p84ce10b095">
   <rect x="418.775231" y="11.136797" width="313.968289" height="252.3375"/>
  </clipPath>
  <clipPath id="ped7a557b91">
   <rect x="790.586086" y="11.136797" width="313.968289" height="252.3375"/>
  </clipPath>
 </defs>
</svg>
